{
.appVersion = "1342";
DisplayStrings = (
"/dcaron",
"/space/nbspace"
);
classes = (
{
automatic = 1;

glyphs = (
{
glyphname = .notdef;
layers = (
{
layerId = "04EC68FF-C98D-4D46-AE83-08D67BD50805";
paths = (
{
closed = 1;
nodes = (
"50 0 LINE",
"477 0 LINE",
"477 700 LINE",
"50 700 LINE"
);
},
{
closed = 1;
nodes = (
"79 21 LINE",
"264 329 LINE",
"449 21 LINE"
);
},
{
closed = 1;
nodes = (
"71 49 LINE",
"71 650 LINE",
"251 350 LINE"
);
},
{
closed = 1;
nodes = (
"457 47 LINE",
"276 350 LINE",
"457 652 LINE"
);
},
{
closed = 1;
nodes = (
"263 371 LINE",
"78 680 LINE",
"449 680 LINE"
);
}
);
width = 527;
}
);
},
{
glyphname = zero;
layers = (
{
layerId = "04EC68FF-C98D-4D46-AE83-08D67BD50805";
paths = (
{
closed = 1;
nodes = (
"496 -12 OFFCURVE",
"588 111 OFFCURVE",
"588 335 CURVE SMOOTH",
"588 557 OFFCURVE",
"496 680 OFFCURVE",
"324 680 CURVE SMOOTH",
"152 680 OFFCURVE",
"60 557 OFFCURVE",
"60 335 CURVE SMOOTH",
"60 111 OFFCURVE",
"152 -12 OFFCURVE",
"324 -12 CURVE SMOOTH"
);
},
{
closed = 1;
nodes = (
"435 107 LINE",
"408 78 OFFCURVE",
"371 62 OFFCURVE",
"324 62 CURVE SMOOTH",
"206 62 OFFCURVE",
"151 160 OFFCURVE",
"151 335 CURVE SMOOTH",
"151 394 OFFCURVE",
"157 445 OFFCURVE",
"171 486 CURVE"
);
},
{
closed = 1;
nodes = (
"217 566 LINE",
"244 592 OFFCURVE",
"280 606 OFFCURVE",
"324 606 CURVE SMOOTH",
"441 606 OFFCURVE",
"497 509 OFFCURVE",
"497 335 CURVE SMOOTH",
"497 278 OFFCURVE",
"491 229 OFFCURVE",
"480 190 CURVE"
);
}
);
width = 648;
}
);
unicode = 0030;
},
{
glyphname = one;
layers = (
{
layerId = "04EC68FF-C98D-4D46-AE83-08D67BD50805";
paths = (
{
closed = 1;
nodes = (
"220 0 LINE",
"304 0 LINE",
"304 668 LINE",
"248 668 LINE",
"219 586 OFFCURVE",
"138 571 OFFCURVE",
"42 571 CURVE",
"42 504 LINE",
"220 504 LINE"
);
}
);
width = 402;
}
);
unicode = 0031;
},
{
glyphname = two;
layers = (
{
layerId = "04EC68FF-C98D-4D46-AE83-08D67BD50805";
paths = (
{
closed = 1;
nodes = (
"34 0 LINE",
"515 0 LINE",
"515 77 LINE",
"147 77 LINE",
"334 212 OFFCURVE",
"497 350 OFFCURVE",
"497 505 CURVE SMOOTH",
"497 617 OFFCURVE",
"408 680 OFFCURVE",
"285 680 CURVE SMOOTH",
"167 680 OFFCURVE",
"83 619 OFFCURVE",
"59 522 CURVE",
"143 498 LINE",
"159 579 OFFCURVE",
"220 610 OFFCURVE",
"283 610 CURVE SMOOTH",
"362 610 OFFCURVE",
"408 563 OFFCURVE",
"408 494 CURVE SMOOTH",
"408 376 OFFCURVE",
"270 249 OFFCURVE",
"34 75 CURVE"
);
}
);
width = 549;
}
);
unicode = 0032;
},
{
glyphname = three;
layers = (
{
layerId = "04EC68FF-C98D-4D46-AE83-08D67BD50805";
paths = (
{
closed = 1;
nodes = (
"42 151 LINE",
"65 60 OFFCURVE",
"137 -12 OFFCURVE",
"272 -12 CURVE SMOOTH",
"399 -12 OFFCURVE",
"514 53 OFFCURVE",
"514 188 CURVE SMOOTH",
"514 258 OFFCURVE",
"486 324 OFFCURVE",
"386 355 CURVE",
"456 384 OFFCURVE",
"495 442 OFFCURVE",
"495 510 CURVE SMOOTH",
"495 634 OFFCURVE",
"395 680 OFFCURVE",
"279 680 CURVE SMOOTH",
"156 680 OFFCURVE",
"76 617 OFFCURVE",
"52 522 CURVE",
"134 498 LINE",
"147 564 OFFCURVE",
"195 610 OFFCURVE",
"277 610 CURVE SMOOTH",
"348 610 OFFCURVE",
"407 573 OFFCURVE",
"407 501 CURVE SMOOTH",
"407 396 OFFCURVE",
"293 390 OFFCURVE",
"218 390 CURVE",
"218 314 LINE",
"271 314 OFFCURVE",
"424 315 OFFCURVE",
"424 187 CURVE SMOOTH",
"424 104 OFFCURVE",
"361 58 OFFCURVE",
"273 58 CURVE SMOOTH",
"188 58 OFFCURVE",
"140 105 OFFCURVE",
"125 175 CURVE"
);
}
);
width = 574;
}
);
unicode = 0033;
},
{
glyphname = four;
layers = (
{
layerId = "04EC68FF-C98D-4D46-AE83-08D67BD50805";
paths = (
{
closed = 1;
nodes = (
"38 165 LINE",
"370 165 LINE",
"370 0 LINE",
"454 0 LINE",
"454 165 LINE",
"576 165 LINE",
"576 244 LINE",
"454 244 LINE",
"454 668 LINE",
"369 668 LINE",
"38 244 LINE"
);
},
{
closed = 1;
nodes = (
"129 244 LINE",
"370 553 LINE",
"370 244 LINE"
);
}
);
width = 614;
}
);
unicode = 0034;
},
{
glyphname = five;
layers = (
{
layerId = "04EC68FF-C98D-4D46-AE83-08D67BD50805";
paths = (
{
closed = 1;
nodes = (
"54 151 LINE",
"79 61 OFFCURVE",
"149 -12 OFFCURVE",
"284 -12 CURVE SMOOTH",
"408 -12 OFFCURVE",
"521 67 OFFCURVE",
"521 220 CURVE SMOOTH",
"521 367 OFFCURVE",
"419 450 OFFCURVE",
"302 450 CURVE SMOOTH",
"247 450 OFFCURVE",
"193 434 OFFCURVE",
"158 400 CURVE",
"181 587 LINE",
"496 587 LINE",
"496 668 LINE",
"113 668 LINE",
"72 328 LINE",
"154 304 LINE",
"168 337 OFFCURVE",
"214 378 OFFCURVE",
"283 378 CURVE SMOOTH",
"355 378 OFFCURVE",
"433 330 OFFCURVE",
"433 219 CURVE SMOOTH",
"433 116 OFFCURVE",
"364 58 OFFCURVE",
"284 58 CURVE SMOOTH",
"197 58 OFFCURVE",
"152 102 OFFCURVE",
"136 175 CURVE"
);
}
);
width = 583;
}
);
unicode = 0035;
},
{
glyphname = six;
layers = (
{
layerId = "04EC68FF-C98D-4D46-AE83-08D67BD50805";
paths = (
{
closed = 1;
nodes = (
"509 573 LINE",
"480 633 OFFCURVE",
"420 680 OFFCURVE",
"321 680 CURVE SMOOTH",
"127 680 OFFCURVE",
"60 499 OFFCURVE",
"60 310 CURVE SMOOTH",
"60 104 OFFCURVE",
"136 -12 OFFCURVE",
"303 -12 CURVE SMOOTH",
"446 -12 OFFCURVE",
"538 94 OFFCURVE",
"538 218 CURVE SMOOTH",
"538 352 OFFCURVE",
"447 445 OFFCURVE",
"323 445 CURVE SMOOTH",
"234 445 OFFCURVE",
"177 404 OFFCURVE",
"147 352 CURVE",
"151 507 OFFCURVE",
"207 610 OFFCURVE",
"311 610 CURVE SMOOTH",
"364 610 OFFCURVE",
"404 587 OFFCURVE",
"424 548 CURVE"
);
},
{
closed = 1;
nodes = (
"214 59 OFFCURVE",
"157 123 OFFCURVE",
"157 215 CURVE SMOOTH",
"157 307 OFFCURVE",
"214 371 OFFCURVE",
"303 371 CURVE SMOOTH",
"391 371 OFFCURVE",
"448 307 OFFCURVE",
"448 215 CURVE SMOOTH",
"448 123 OFFCURVE",
"391 59 OFFCURVE",
"303 59 CURVE SMOOTH"
);
}
);
width = 598;
}
);
unicode = 0036;
},
{
glyphname = seven;
layers = (
{
layerId = "04EC68FF-C98D-4D46-AE83-08D67BD50805";
paths = (
{
closed = 1;
nodes = (
"93 0 LINE",
"198 0 LINE",
"476 587 LINE",
"476 668 LINE",
"15 668 LINE",
"15 587 LINE",
"383 587 LINE"
);
}
);
width = 510;
}
);
unicode = 0037;
},
{
glyphname = eight;
layers = (
{
layerId = "04EC68FF-C98D-4D46-AE83-08D67BD50805";
paths = (
{
closed = 1;
nodes = (
"109 336 OFFCURVE",
"60 274 OFFCURVE",
"60 188 CURVE SMOOTH",
"60 60 OFFCURVE",
"168 -12 OFFCURVE",
"307 -12 CURVE SMOOTH",
"447 -12 OFFCURVE",
"555 60 OFFCURVE",
"555 188 CURVE SMOOTH",
"555 274 OFFCURVE",
"506 336 OFFCURVE",
"432 366 CURVE",
"467 399 OFFCURVE",
"489 446 OFFCURVE",
"489 499 CURVE SMOOTH",
"489 599 OFFCURVE",
"408 680 OFFCURVE",
"307 680 CURVE SMOOTH",
"207 680 OFFCURVE",
"126 599 OFFCURVE",
"126 499 CURVE SMOOTH",
"126 446 OFFCURVE",
"148 399 OFFCURVE",
"183 366 CURVE"
);
},
{
closed = 1;
nodes = (
"151 266 OFFCURVE",
"212 317 OFFCURVE",
"307 317 CURVE SMOOTH",
"403 317 OFFCURVE",
"464 266 OFFCURVE",
"464 188 CURVE SMOOTH",
"464 110 OFFCURVE",
"403 62 OFFCURVE",
"307 62 CURVE SMOOTH",
"212 62 OFFCURVE",
"151 110 OFFCURVE",
"151 188 CURVE SMOOTH"
);
},
{
closed = 1;
nodes = (
"248 391 OFFCURVE",
"200 439 OFFCURVE",
"200 500 CURVE SMOOTH",
"200 559 OFFCURVE",
"248 606 OFFCURVE",
"307 606 CURVE SMOOTH",
"366 606 OFFCURVE",
"414 559 OFFCURVE",
"414 500 CURVE SMOOTH",
"414 439 OFFCURVE",
"366 391 OFFCURVE",
"307 391 CURVE SMOOTH"
);
}
);
width = 615;
}
);
unicode = 0038;
},
{
glyphname = nine;
layers = (
{
layerId = "04EC68FF-C98D-4D46-AE83-08D67BD50805";
paths = (
{
closed = 1;
nodes = (
"317 0 LINE",
"419 150 OFFCURVE",
"507 315 OFFCURVE",
"520 348 CURVE SMOOTH",
"532 378 OFFCURVE",
"538 409 OFFCURVE",
"538 439 CURVE SMOOTH",
"538 528 OFFCURVE",
"490 614 OFFCURVE",
"405 655 CURVE SMOOTH",
"371 672 OFFCURVE",
"335 679 OFFCURVE",
"299 679 CURVE SMOOTH",
"210 679 OFFCURVE",
"125 630 OFFCURVE",
"84 545 CURVE SMOOTH",
"68 512 OFFCURVE",
"60 476 OFFCURVE",
"60 441 CURVE SMOOTH",
"60 352 OFFCURVE",
"109 267 OFFCURVE",
"194 226 CURVE SMOOTH",
"228 209 OFFCURVE",
"264 201 OFFCURVE",
"299 201 CURVE SMOOTH",
"318 201 OFFCURVE",
"335 203 OFFCURVE",
"352 207 CURVE",
"297 116 OFFCURVE",
"213 0 OFFCURVE",
"213 0 CURVE"
);
},
{
closed = 1;
nodes = (
"214 287 OFFCURVE",
"146 356 OFFCURVE",
"146 441 CURVE SMOOTH",
"146 525 OFFCURVE",
"214 594 OFFCURVE",
"299 594 CURVE SMOOTH",
"385 594 OFFCURVE",
"454 525 OFFCURVE",
"454 441 CURVE SMOOTH",
"454 356 OFFCURVE",
"385 287 OFFCURVE",
"299 287 CURVE SMOOTH"
);
}
);
width = 598;
}
);
unicode = 0039;
},
{
color = (153,254,255,255);
glyphname = A;
layers = (
{
layerId = "04EC68FF-C98D-4D46-AE83-08D67BD50805";
paths = (
{
closed = 1;
nodes = (
"10 0 LINE",
"110 0 LINE",
"161 146 LINE",
"465 146 LINE",
"516 0 LINE",
"616 0 LINE",
"366 669 LINE",
"261 669 LINE"
);
},
{
closed = 1;
nodes = (
"190 227 LINE",
"313 574 LINE",
"436 227 LINE"
);
}
);
width = 626;
}
);
leftKerningGroup = A1;
rightKerningGroup = A_2;
unicode = 0041;
},
{
color = (153,254,255,255);
glyphname = B;
layers = (
{
layerId = "04EC68FF-C98D-4D46-AE83-08D67BD50805";
paths = (
{
closed = 1;
nodes = (
"76 0 LINE",
"361 0 LINE SMOOTH",
"507 0 OFFCURVE",
"581 96 OFFCURVE",
"581 192 CURVE SMOOTH",
"581 256 OFFCURVE",
"548 320 OFFCURVE",
"482 355 CURVE",
"527 393 OFFCURVE",
"552 449 OFFCURVE",
"552 502 CURVE SMOOTH",
"552 587 OFFCURVE",
"490 668 OFFCURVE",
"345 668 CURVE SMOOTH",
"76 668 LINE"
);
},
{
closed = 1;
nodes = (
"170 79 LINE",
"170 308 LINE",
"370 308 LINE SMOOTH",
"446 308 OFFCURVE",
"484 252 OFFCURVE",
"484 195 CURVE SMOOTH",
"484 137 OFFCURVE",
"445 79 OFFCURVE",
"371 79 CURVE SMOOTH"
);
},
{
closed = 1;
nodes = (
"170 382 LINE",
"170 589 LINE",
"355 589 LINE SMOOTH",
"422 589 OFFCURVE",
"457 536 OFFCURVE",
"457 484 CURVE SMOOTH",
"457 433 OFFCURVE",
"423 382 OFFCURVE",
"355 382 CURVE SMOOTH"
);
}
);
width = 619;
}
);
leftKerningGroup = B;
leftMetricsKey = H;
rightMetricsKey = "=H/2";
unicode = 0042;
},
{
color = (153,254,255,255);
glyphname = C;
layers = (
{
layerId = "04EC68FF-C98D-4D46-AE83-08D67BD50805";
paths = (
{
closed = 1;
nodes = (
"536 169 LINE",
"505 108 OFFCURVE",
"446 67 OFFCURVE",
"359 67 CURVE SMOOTH",
"234 67 OFFCURVE",
"146 167 OFFCURVE",
"146 335 CURVE SMOOTH",
"146 509 OFFCURVE",
"238 601 OFFCURVE",
"356 601 CURVE SMOOTH",
"443 601 OFFCURVE",
"502 559 OFFCURVE",
"532 499 CURVE",
"614 529 LINE",
"568 626 OFFCURVE",
"473 680 OFFCURVE",
"361 680 CURVE SMOOTH",
"172 680 OFFCURVE",
"50 543 OFFCURVE",
"50 335 CURVE SMOOTH",
"50 132 OFFCURVE",
"162 -12 OFFCURVE",
"353 -12 CURVE SMOOTH",
"471 -12 OFFCURVE",
"570 40 OFFCURVE",
"618 139 CURVE"
);
}
);
width = 656;
}
);
leftKerningGroup = C;
leftMetricsKey = O;
rightKerningGroup = C_2;
rightMetricsKey = "=H/2";
unicode = 0043;
},
{
color = (153,254,255,255);
glyphname = D;
layers = (
{
layerId = "04EC68FF-C98D-4D46-AE83-08D67BD50805";
paths = (
{
closed = 1;
nodes = (
"76 0 LINE",
"258 0 LINE SMOOTH",
"470 0 OFFCURVE",
"623 79 OFFCURVE",
"623 335 CURVE SMOOTH",
"623 589 OFFCURVE",
"470 668 OFFCURVE",
"258 668 CURVE SMOOTH",
"76 668 LINE"
);
},
{
closed = 1;
nodes = (
"170 79 LINE",
"170 589 LINE",
"256 589 LINE SMOOTH",
"394 589 OFFCURVE",
"527 561 OFFCURVE",
"527 335 CURVE SMOOTH",
"527 107 OFFCURVE",
"394 79 OFFCURVE",
"256 79 CURVE SMOOTH"
);
}
);
width = 673;
}
);
leftKerningGroup = B;
leftMetricsKey = H;
rightKerningGroup = D;
rightMetricsKey = O;
unicode = 0044;
},
{
color = (153,254,255,255);
glyphname = E;
layers = (
{
layerId = "04EC68FF-C98D-4D46-AE83-08D67BD50805";
paths = (
{
closed = 1;
nodes = (
"76 0 LINE",
"529 0 LINE",
"529 81 LINE",
"170 81 LINE",
"170 303 LINE",
"435 303 LINE",
"435 384 LINE",
"170 384 LINE",
"170 587 LINE",
"529 587 LINE",
"529 668 LINE",
"76 668 LINE"
);
}
);
width = 567;
}
);
leftKerningGroup = B;
leftMetricsKey = H;
rightKerningGroup = E;
rightMetricsKey = "=H/2";
unicode = 0045;
},
{
color = (153,254,255,255);
glyphname = F;
layers = (
{
layerId = "04EC68FF-C98D-4D46-AE83-08D67BD50805";
paths = (
{
closed = 1;
nodes = (
"76 0 LINE",
"170 0 LINE",
"170 303 LINE",
"510 303 LINE",
"510 384 LINE",
"170 384 LINE",
"170 587 LINE",
"510 587 LINE",
"510 668 LINE",
"76 668 LINE"
);
}
);
width = 548;
}
);
leftKerningGroup = B;
leftMetricsKey = H;
rightMetricsKey = "=H/2";
unicode = 0046;
},
{
color = (153,254,255,255);
glyphname = G;
layers = (
{
layerId = "04EC68FF-C98D-4D46-AE83-08D67BD50805";
paths = (
{
closed = 1;
nodes = (
"358 264 LINE",
"553 264 LINE",
"553 242 LINE SMOOTH",
"553 104 OFFCURVE",
"445 67 OFFCURVE",
"356 67 CURVE SMOOTH",
"232 67 OFFCURVE",
"146 167 OFFCURVE",
"146 335 CURVE SMOOTH",
"146 509 OFFCURVE",
"238 601 OFFCURVE",
"356 601 CURVE SMOOTH",
"443 601 OFFCURVE",
"502 559 OFFCURVE",
"532 499 CURVE",
"615 529 LINE",
"568 626 OFFCURVE",
"473 680 OFFCURVE",
"361 680 CURVE SMOOTH",
"172 680 OFFCURVE",
"50 543 OFFCURVE",
"50 335 CURVE SMOOTH",
"50 132 OFFCURVE",
"160 -12 OFFCURVE",
"352 -12 CURVE SMOOTH",
"442 -12 OFFCURVE",
"520 16 OFFCURVE",
"563 84 CURVE",
"588 0 LINE",
"642 0 LINE",
"642 345 LINE",
"358 345 LINE"
);
}
);
width = 710;
}
);
leftKerningGroup = C;
leftMetricsKey = O;
unicode = 0047;
},
{
color = (153,254,255,255);
glyphname = H;
layers = (
{
guideLines = (
{
position = "{0, 224}";
showMeasurement = 1;
}
);
layerId = "04EC68FF-C98D-4D46-AE83-08D67BD50805";
paths = (
{
closed = 1;
nodes = (
"76 0 LINE",
"170 0 LINE",
"170 303 LINE",
"520 303 LINE",
"520 0 LINE",
"614 0 LINE",
"614 668 LINE",
"520 668 LINE",
"520 384 LINE",
"170 384 LINE",
"170 668 LINE",
"76 668 LINE"
);
}
);
width = 690;
}
);
leftKerningGroup = B;
rightKerningGroup = H;
unicode = 0048;
},
{
color = (153,254,255,255);
glyphname = I;
layers = (
{
layerId = "04EC68FF-C98D-4D46-AE83-08D67BD50805";
paths = (
{
closed = 1;
nodes = (
"66 0 LINE",
"348 0 LINE",
"348 74 LINE",
"254 74 LINE",
"254 594 LINE",
"348 594 LINE",
"348 668 LINE",
"66 668 LINE",
"66 594 LINE",
"160 594 LINE",
"160 74 LINE",
"66 74 LINE"
);
}
);
width = 414;
}
);
rightKerningGroup = I;
unicode = 0049;
},
{
color = (153,254,255,255);
glyphname = J;
layers = (
{
layerId = "04EC68FF-C98D-4D46-AE83-08D67BD50805";
paths = (
{
closed = 1;
nodes = (
"15 189 LINE",
"21 56 OFFCURVE",
"99 -12 OFFCURVE",
"224 -12 CURVE SMOOTH",
"355 -12 OFFCURVE",
"434 66 OFFCURVE",
"434 212 CURVE SMOOTH",
"434 668 LINE",
"340 668 LINE",
"340 213 LINE SMOOTH",
"340 92 OFFCURVE",
"278 65 OFFCURVE",
"224 65 CURVE SMOOTH",
"157 65 OFFCURVE",
"99 113 OFFCURVE",
"102 214 CURVE"
);
}
);
width = 510;
}
);
rightMetricsKey = H;
unicode = 004A;
},
{
color = (153,254,255,255);
glyphname = K;
layers = (
{
layerId = "04EC68FF-C98D-4D46-AE83-08D67BD50805";
paths = (
{
closed = 1;
nodes = (
"76 0 LINE",
"170 0 LINE",
"170 210 LINE",
"270 320 LINE",
"502 0 LINE",
"617 0 LINE",
"333 389 LINE",
"588 668 LINE",
"471 668 LINE",
"170 332 LINE",
"170 668 LINE",
"76 668 LINE"
);
}
);
width = 627;
}
);
leftKerningGroup = B;
leftMetricsKey = H;
rightMetricsKey = V;
unicode = 004B;
},
{
color = (153,254,255,255);
glyphname = L;
layers = (
{
layerId = "04EC68FF-C98D-4D46-AE83-08D67BD50805";
paths = (
{
closed = 1;
nodes = (
"76 0 LINE",
"529 0 LINE",
"529 81 LINE",
"170 81 LINE",
"170 668 LINE",
"76 668 LINE"
);
}
);
width = 539;
}
);
leftKerningGroup = B;
leftMetricsKey = H;
rightKerningGroup = L;
unicode = 004C;
},
{
color = (153,254,255,255);
glyphname = M;
layers = (
{
layerId = "04EC68FF-C98D-4D46-AE83-08D67BD50805";
paths = (
{
closed = 1;
nodes = (
"76 0 LINE",
"170 0 LINE",
"170 570 LINE",
"364 0 LINE",
"457 0 LINE",
"650 570 LINE",
"650 0 LINE",
"744 0 LINE",
"744 668 LINE",
"588 668 LINE",
"410 122 LINE",
"232 668 LINE",
"76 668 LINE"
);
}
);
width = 820;
}
);
leftKerningGroup = B;
leftMetricsKey = H;
rightKerningGroup = H;
rightMetricsKey = H;
unicode = 004D;
},
{
color = (153,254,255,255);
glyphname = N;
layers = (
{
layerId = "04EC68FF-C98D-4D46-AE83-08D67BD50805";
paths = (
{
closed = 1;
nodes = (
"76 0 LINE",
"170 0 LINE",
"170 571 LINE",
"475 0 LINE",
"613 0 LINE",
"613 668 LINE",
"519 668 LINE",
"519 100 LINE",
"215 668 LINE",
"76 668 LINE"
);
}
);
width = 689;
}
);
leftKerningGroup = B;
leftMetricsKey = H;
rightKerningGroup = H;
rightMetricsKey = H;
unicode = 004E;
},
{
color = (153,254,255,255);
glyphname = O;
layers = (
{
layerId = "04EC68FF-C98D-4D46-AE83-08D67BD50805";
paths = (
{
closed = 1;
nodes = (
"556 -12 OFFCURVE",
"677 133 OFFCURVE",
"677 335 CURVE SMOOTH",
"677 536 OFFCURVE",
"556 680 OFFCURVE",
"363 680 CURVE SMOOTH",
"171 680 OFFCURVE",
"50 536 OFFCURVE",
"50 335 CURVE SMOOTH",
"50 133 OFFCURVE",
"171 -12 OFFCURVE",
"363 -12 CURVE SMOOTH"
);
},
{
closed = 1;
nodes = (
"242 67 OFFCURVE",
"146 162 OFFCURVE",
"146 335 CURVE SMOOTH",
"146 507 OFFCURVE",
"242 601 OFFCURVE",
"363 601 CURVE SMOOTH",
"485 601 OFFCURVE",
"581 507 OFFCURVE",
"581 335 CURVE SMOOTH",
"581 162 OFFCURVE",
"485 67 OFFCURVE",
"363 67 CURVE SMOOTH"
);
}
);
width = 727;
}
);
leftKerningGroup = C;
rightKerningGroup = D;
unicode = 004F;
},
{
color = (153,254,255,255);
glyphname = P;
layers = (
{
layerId = "04EC68FF-C98D-4D46-AE83-08D67BD50805";
paths = (
{
closed = 1;
nodes = (
"76 1 LINE",
"170 1 LINE",
"170 266 LINE",
"285 266 LINE SMOOTH",
"448 266 OFFCURVE",
"563 301 OFFCURVE",
"563 466 CURVE SMOOTH",
"563 631 OFFCURVE",
"448 668 OFFCURVE",
"285 668 CURVE SMOOTH",
"76 668 LINE"
);
},
{
closed = 1;
nodes = (
"170 347 LINE",
"170 589 LINE",
"293 589 LINE SMOOTH",
"390 589 OFFCURVE",
"467 575 OFFCURVE",
"467 466 CURVE SMOOTH",
"467 357 OFFCURVE",
"390 347 OFFCURVE",
"293 347 CURVE SMOOTH"
);
}
);
width = 601;
}
);
leftKerningGroup = B;
leftMetricsKey = H;
rightMetricsKey = "=H/2";
unicode = 0050;
},
{
color = (153,254,255,255);
glyphname = Q;
layers = (
{
layerId = "04EC68FF-C98D-4D46-AE83-08D67BD50805";
paths = (
{
closed = 1;
nodes = (
"630 139 LINE",
"660 194 OFFCURVE",
"677 260 OFFCURVE",
"677 335 CURVE SMOOTH",
"677 536 OFFCURVE",
"556 680 OFFCURVE",
"363 680 CURVE SMOOTH",
"171 680 OFFCURVE",
"50 536 OFFCURVE",
"50 335 CURVE SMOOTH",
"50 133 OFFCURVE",
"171 -12 OFFCURVE",
"363 -12 CURVE SMOOTH",
"448 -12 OFFCURVE",
"520 16 OFFCURVE",
"572 65 CURVE",
"689 -44 LINE",
"753 24 LINE"
);
},
{
closed = 1;
nodes = (
"329 294 LINE",
"508 126 LINE",
"470 87 OFFCURVE",
"419 67 OFFCURVE",
"363 67 CURVE SMOOTH",
"242 67 OFFCURVE",
"146 162 OFFCURVE",
"146 335 CURVE SMOOTH",
"146 507 OFFCURVE",
"242 601 OFFCURVE",
"363 601 CURVE SMOOTH",
"485 601 OFFCURVE",
"581 507 OFFCURVE",
"581 335 CURVE SMOOTH",
"581 285 OFFCURVE",
"573 242 OFFCURVE",
"559 206 CURVE",
"393 362 LINE"
);
}
);
width = 753;
}
);
leftKerningGroup = C;
leftMetricsKey = O;
unicode = 0051;
},
{
color = (153,254,255,255);
glyphname = R;
layers = (
{
layerId = "04EC68FF-C98D-4D46-AE83-08D67BD50805";
paths = (
{
closed = 1;
nodes = (
"76 0 LINE",
"170 0 LINE",
"170 281 LINE",
"270 281 LINE",
"473 0 LINE",
"588 0 LINE",
"381 288 LINE",
"536 310 OFFCURVE",
"566 385 OFFCURVE",
"566 476 CURVE SMOOTH",
"566 636 OFFCURVE",
"451 668 OFFCURVE",
"288 668 CURVE SMOOTH",
"76 668 LINE"
);
},
{
closed = 1;
nodes = (
"170 360 LINE",
"170 589 LINE",
"295 589 LINE SMOOTH",
"393 589 OFFCURVE",
"470 577 OFFCURVE",
"470 474 CURVE SMOOTH",
"470 371 OFFCURVE",
"393 360 OFFCURVE",
"295 360 CURVE SMOOTH"
);
}
);
width = 618;
}
);
leftKerningGroup = B;
leftMetricsKey = H;
rightKerningGroup = R;
unicode = 0052;
},
{
color = (153,254,255,255);
glyphname = S;
layers = (
{
layerId = "04EC68FF-C98D-4D46-AE83-08D67BD50805";
paths = (
{
closed = 1;
nodes = (
"40 146 LINE",
"75 38 OFFCURVE",
"186 -12 OFFCURVE",
"296 -12 CURVE SMOOTH",
"427 -12 OFFCURVE",
"556 58 OFFCURVE",
"556 182 CURVE SMOOTH",
"556 327 OFFCURVE",
"431 361 OFFCURVE",
"315 386 CURVE SMOOTH",
"224 405 OFFCURVE",
"143 422 OFFCURVE",
"143 497 CURVE SMOOTH",
"143 567 OFFCURVE",
"214 601 OFFCURVE",
"287 601 CURVE SMOOTH",
"348 601 OFFCURVE",
"411 577 OFFCURVE",
"437 530 CURVE",
"523 555 LINE",
"481 641 OFFCURVE",
"385 680 OFFCURVE",
"291 680 CURVE SMOOTH",
"168 680 OFFCURVE",
"46 614 OFFCURVE",
"46 501 CURVE SMOOTH",
"46 354 OFFCURVE",
"183 324 OFFCURVE",
"286 302 CURVE SMOOTH",
"413 276 OFFCURVE",
"457 246 OFFCURVE",
"457 186 CURVE SMOOTH",
"457 106 OFFCURVE",
"380 67 OFFCURVE",
"300 67 CURVE SMOOTH",
"227 67 OFFCURVE",
"150 100 OFFCURVE",
"127 172 CURVE"
);
}
);
width = 596;
}
);
leftKerningGroup = S;
rightKerningGroup = S_2;
unicode = 0053;
},
{
color = (153,254,255,255);
glyphname = T;
layers = (
{
layerId = "04EC68FF-C98D-4D46-AE83-08D67BD50805";
paths = (
{
closed = 1;
nodes = (
"232 0 LINE",
"326 0 LINE",
"326 587 LINE",
"548 587 LINE",
"548 668 LINE",
"10 668 LINE",
"10 587 LINE",
"232 587 LINE"
);
}
);
width = 558;
}
);
leftKerningGroup = T;
rightKerningGroup = T;
unicode = 0054;
},
{
color = (153,254,255,255);
glyphname = U;
layers = (
{
layerId = "04EC68FF-C98D-4D46-AE83-08D67BD50805";
paths = (
{
closed = 1;
nodes = (
"76 668 LINE",
"76 279 LINE SMOOTH",
"76 84 OFFCURVE",
"151 -12 OFFCURVE",
"345 -12 CURVE SMOOTH",
"540 -12 OFFCURVE",
"614 84 OFFCURVE",
"614 279 CURVE SMOOTH",
"614 668 LINE",
"520 668 LINE",
"520 272 LINE SMOOTH",
"520 140 OFFCURVE",
"473 69 OFFCURVE",
"345 69 CURVE SMOOTH",
"217 69 OFFCURVE",
"170 140 OFFCURVE",
"170 272 CURVE SMOOTH",
"170 668 LINE"
);
}
);
width = 690;
}
);
leftMetricsKey = H;
rightKerningGroup = U_2;
rightMetricsKey = H;
unicode = 0055;
},
{
color = (153,254,255,255);
glyphname = V;
layers = (
{
layerId = "04EC68FF-C98D-4D46-AE83-08D67BD50805";
paths = (
{
closed = 1;
nodes = (
"239 0 LINE",
"349 0 LINE",
"579 668 LINE",
"476 668 LINE",
"294 110 LINE",
"113 668 LINE",
"10 668 LINE"
);
}
);
width = 589;
}
);
unicode = 0056;
},
{
color = (153,254,255,255);
glyphname = W;
layers = (
{
layerId = "04EC68FF-C98D-4D46-AE83-08D67BD50805";
paths = (
{
closed = 1;
nodes = (
"178 0 LINE",
"291 0 LINE",
"420 552 LINE",
"549 0 LINE",
"663 0 LINE",
"830 668 LINE",
"727 668 LINE",
"597 116 LINE",
"475 668 LINE",
"365 668 LINE",
"243 116 LINE",
"113 668 LINE",
"10 668 LINE"
);
}
);
width = 840;
}
);
leftMetricsKey = V;
rightMetricsKey = V;
unicode = 0057;
},
{
color = (153,254,255,255);
glyphname = X;
layers = (
{
layerId = "04EC68FF-C98D-4D46-AE83-08D67BD50805";
paths = (
{
closed = 1;
nodes = (
"10 0 LINE",
"123 0 LINE",
"311 265 LINE",
"500 0 LINE",
"613 0 LINE",
"368 344 LINE",
"599 668 LINE",
"486 668 LINE",
"311 423 LINE",
"136 668 LINE",
"24 668 LINE",
"255 344 LINE"
);
}
);
width = 623;
}
);
leftMetricsKey = V;
rightMetricsKey = V;
unicode = 0058;
},
{
color = (153,254,255,255);
glyphname = Y;
layers = (
{
layerId = "04EC68FF-C98D-4D46-AE83-08D67BD50805";
paths = (
{
closed = 1;
nodes = (
"251 0 LINE",
"345 0 LINE",
"345 259 LINE",
"585 668 LINE",
"482 668 LINE",
"298 345 LINE",
"113 668 LINE",
"10 668 LINE",
"251 259 LINE"
);
}
);
width = 595;
}
);
leftKerningGroup = Y;
leftMetricsKey = V;
rightKerningGroup = Y_2;
rightMetricsKey = V;
unicode = 0059;
},
{
color = (153,254,255,255);
glyphname = Z;
layers = (
{
layerId = "04EC68FF-C98D-4D46-AE83-08D67BD50805";
paths = (
{
closed = 1;
nodes = (
"44 0 LINE",
"563 0 LINE",
"563 81 LINE",
"156 81 LINE",
"548 587 LINE",
"548 668 LINE",
"59 668 LINE",
"59 587 LINE",
"438 587 LINE",
"44 81 LINE"
);
}
);
width = 607;
}
);
leftKerningGroup = Z;
rightKerningGroup = Z_2;
unicode = 005A;
},
{
color = (153,254,255,255);
glyphname = a;
layers = (
{
layerId = "04EC68FF-C98D-4D46-AE83-08D67BD50805";
paths = (
{
closed = 1;
nodes = (
"398 0 LINE",
"475 0 LINE",
"466 47 OFFCURVE",
"459 104 OFFCURVE",
"458 187 CURVE SMOOTH",
"457 303 LINE SMOOTH",
"456 442 OFFCURVE",
"397 504 OFFCURVE",
"260 504 CURVE SMOOTH",
"171 504 OFFCURVE",
"97 460 OFFCURVE",
"70 384 CURVE",
"151 360 LINE",
"162 408 OFFCURVE",
"201 437 OFFCURVE",
"261 437 CURVE SMOOTH",
"341 437 OFFCURVE",
"376 390 OFFCURVE",
"373 306 CURVE",
"170 283 OFFCURVE",
"38 249 OFFCURVE",
"38 131 CURVE SMOOTH",
"38 40 OFFCURVE",
"115 -12 OFFCURVE",
"209 -12 CURVE SMOOTH",
"296 -12 OFFCURVE",
"348 18 OFFCURVE",
"378 68 CURVE"
);
},
{
closed = 1;
nodes = (
"380 208 LINE SMOOTH",
"380 91 OFFCURVE",
"305 55 OFFCURVE",
"227 55 CURVE SMOOTH",
"167 55 OFFCURVE",
"131 86 OFFCURVE",
"131 133 CURVE SMOOTH",
"131 201 OFFCURVE",
"228 223 OFFCURVE",
"380 239 CURVE"
);
}
);
width = 526;
}
);
leftKerningGroup = a;
leftMetricsKey = o;
unicode = 0061;
},
{
color = (153,254,255,255);
glyphname = b;
layers = (
{
layerId = "04EC68FF-C98D-4D46-AE83-08D67BD50805";
paths = (
{
closed = 1;
nodes = (
"70 0 LINE",
"132 0 LINE",
"154 75 LINE",
"184 22 OFFCURVE",
"237 -12 OFFCURVE",
"315 -12 CURVE SMOOTH",
"428 -12 OFFCURVE",
"528 82 OFFCURVE",
"528 246 CURVE SMOOTH",
"528 409 OFFCURVE",
"428 504 OFFCURVE",
"315 504 CURVE SMOOTH",
"237 504 OFFCURVE",
"184 470 OFFCURVE",
"154 418 CURVE",
"154 668 LINE",
"70 668 LINE"
);
},
{
closed = 1;
nodes = (
"208 60 OFFCURVE",
"152 128 OFFCURVE",
"152 246 CURVE SMOOTH",
"152 364 OFFCURVE",
"208 432 OFFCURVE",
"293 432 CURVE SMOOTH",
"378 432 OFFCURVE",
"434 364 OFFCURVE",
"434 246 CURVE SMOOTH",
"434 128 OFFCURVE",
"378 60 OFFCURVE",
"293 60 CURVE SMOOTH"
);
}
);
width = 566;
}
);
leftMetricsKey = n;
rightKerningGroup = b;
rightMetricsKey = o;
unicode = 0062;
},
{
color = (153,254,255,255);
glyphname = c;
layers = (
{
layerId = "04EC68FF-C98D-4D46-AE83-08D67BD50805";
paths = (
{
closed = 1;
nodes = (
"390 127 LINE",
"368 90 OFFCURVE",
"326 62 OFFCURVE",
"272 62 CURVE SMOOTH",
"198 62 OFFCURVE",
"129 122 OFFCURVE",
"129 247 CURVE SMOOTH",
"129 372 OFFCURVE",
"197 430 OFFCURVE",
"272 430 CURVE SMOOTH",
"323 430 OFFCURVE",
"366 404 OFFCURVE",
"388 364 CURVE",
"465 392 LINE",
"433 453 OFFCURVE",
"367 504 OFFCURVE",
"278 504 CURVE SMOOTH",
"131 504 OFFCURVE",
"38 394 OFFCURVE",
"38 246 CURVE SMOOTH",
"38 96 OFFCURVE",
"127 -12 OFFCURVE",
"269 -12 CURVE SMOOTH",
"357 -12 OFFCURVE",
"430 35 OFFCURVE",
"467 99 CURVE"
);
}
);
width = 500;
}
);
leftKerningGroup = c;
leftMetricsKey = o;
rightKerningGroup = c_2;
unicode = 0063;
},
{
color = (153,254,255,255);
glyphname = d;
layers = (
{
layerId = "04EC68FF-C98D-4D46-AE83-08D67BD50805";
paths = (
{
closed = 1;
nodes = (
"434 0 LINE",
"513 0 LINE",
"496 87 OFFCURVE",
"496 154 OFFCURVE",
"496 187 CURVE SMOOTH",
"496 668 LINE",
"412 668 LINE",
"412 418 LINE",
"382 470 OFFCURVE",
"329 504 OFFCURVE",
"251 504 CURVE SMOOTH",
"138 504 OFFCURVE",
"38 409 OFFCURVE",
"38 246 CURVE SMOOTH",
"38 82 OFFCURVE",
"138 -12 OFFCURVE",
"251 -12 CURVE SMOOTH",
"329 -12 OFFCURVE",
"382 22 OFFCURVE",
"412 75 CURVE"
);
},
{
closed = 1;
nodes = (
"188 60 OFFCURVE",
"132 128 OFFCURVE",
"132 246 CURVE SMOOTH",
"132 364 OFFCURVE",
"188 432 OFFCURVE",
"273 432 CURVE SMOOTH",
"358 432 OFFCURVE",
"414 364 OFFCURVE",
"414 246 CURVE SMOOTH",
"414 128 OFFCURVE",
"358 60 OFFCURVE",
"273 60 CURVE SMOOTH"
);
}
);
width = 564;
}
);
leftKerningGroup = c;
leftMetricsKey = o;
rightMetricsKey = a;
unicode = 0064;
},
{
color = (153,254,255,255);
glyphname = e;
layers = (
{
layerId = "04EC68FF-C98D-4D46-AE83-08D67BD50805";
paths = (
{
closed = 1;
nodes = (
"397 111 LINE",
"374 81 OFFCURVE",
"337 62 OFFCURVE",
"281 62 CURVE SMOOTH",
"220 62 OFFCURVE",
"132 100 OFFCURVE",
"128 225 CURVE",
"510 225 LINE",
"520 367 OFFCURVE",
"437 504 OFFCURVE",
"279 504 CURVE SMOOTH",
"143 504 OFFCURVE",
"38 404 OFFCURVE",
"38 247 CURVE SMOOTH",
"38 101 OFFCURVE",
"125 -12 OFFCURVE",
"281 -12 CURVE SMOOTH",
"374 -12 OFFCURVE",
"442 29 OFFCURVE",
"478 87 CURVE"
);
},
{
closed = 1;
nodes = (
"129 292 LINE",
"137 392 OFFCURVE",
"204 432 OFFCURVE",
"279 432 CURVE SMOOTH",
"367 432 OFFCURVE",
"420 362 OFFCURVE",
"421 292 CURVE"
);
}
);
width = 539;
}
);
leftKerningGroup = c;
leftMetricsKey = o;
rightKerningGroup = e;
unicode = 0065;
},
{
color = (153,254,255,255);
glyphname = f;
layers = (
{
layerId = "04EC68FF-C98D-4D46-AE83-08D67BD50805";
paths = (
{
closed = 1;
nodes = (
"99 0 LINE",
"183 0 LINE",
"183 429 LINE",
"286 429 LINE",
"286 496 LINE",
"183 496 LINE",
"183 571 LINE SMOOTH",
"183 622 OFFCURVE",
"191 635 OFFCURVE",
"234 635 CURVE SMOOTH",
"286 635 LINE",
"286 706 LINE",
"232 706 LINE SMOOTH",
"121 706 OFFCURVE",
"99 672 OFFCURVE",
"99 570 CURVE SMOOTH",
"99 496 LINE",
"15 496 LINE",
"15 429 LINE",
"99 429 LINE"
);
}
);
width = 311;
}
);
rightKerningGroup = f;
unicode = 0066;
},
{
color = (153,254,255,255);
glyphname = g;
layers = (
{
layerId = "04EC68FF-C98D-4D46-AE83-08D67BD50805";
paths = (
{
closed = 1;
nodes = (
"81 -76 LINE",
"107 -159 OFFCURVE",
"193 -192 OFFCURVE",
"274 -192 CURVE SMOOTH",
"308 -192 OFFCURVE",
"341 -186 OFFCURVE",
"369 -176 CURVE SMOOTH",
"484 -134 OFFCURVE",
"490 -51 OFFCURVE",
"490 47 CURVE SMOOTH",
"490 496 LINE",
"429 496 LINE",
"406 418 LINE",
"375 470 OFFCURVE",
"327 504 OFFCURVE",
"248 504 CURVE SMOOTH",
"138 504 OFFCURVE",
"38 415 OFFCURVE",
"38 256 CURVE SMOOTH",
"38 97 OFFCURVE",
"138 9 OFFCURVE",
"248 9 CURVE SMOOTH",
"327 9 OFFCURVE",
"375 42 OFFCURVE",
"406 94 CURVE",
"406 28 LINE SMOOTH",
"406 -53 OFFCURVE",
"391 -89 OFFCURVE",
"330 -110 CURVE SMOOTH",
"321 -113 OFFCURVE",
"299 -118 OFFCURVE",
"274 -118 CURVE SMOOTH",
"233 -118 OFFCURVE",
"183 -105 OFFCURVE",
"165 -53 CURVE"
);
},
{
closed = 1;
nodes = (
"187 79 OFFCURVE",
"129 143 OFFCURVE",
"129 256 CURVE SMOOTH",
"129 369 OFFCURVE",
"187 432 OFFCURVE",
"269 432 CURVE SMOOTH",
"344 432 OFFCURVE",
"409 382 OFFCURVE",
"409 256 CURVE SMOOTH",
"409 130 OFFCURVE",
"344 79 OFFCURVE",
"269 79 CURVE SMOOTH"
);
}
);
width = 560;
}
);
leftKerningGroup = g;
leftMetricsKey = o;
unicode = 0067;
},
{
color = (153,254,255,255);
glyphname = h;
layers = (
{
layerId = "04EC68FF-C98D-4D46-AE83-08D67BD50805";
paths = (
{
closed = 1;
nodes = (
"70 0 LINE",
"154 0 LINE",
"154 269 LINE SMOOTH",
"154 375 OFFCURVE",
"204 432 OFFCURVE",
"285 432 CURVE SMOOTH",
"381 432 OFFCURVE",
"394 365 OFFCURVE",
"394 289 CURVE SMOOTH",
"394 0 LINE",
"478 0 LINE",
"478 314 LINE SMOOTH",
"478 427 OFFCURVE",
"434 504 OFFCURVE",
"314 504 CURVE SMOOTH",
"230 504 OFFCURVE",
"182 468 OFFCURVE",
"154 421 CURVE",
"154 668 LINE",
"70 668 LINE"
);
}
);
width = 546;
}
);
leftMetricsKey = n;
rightKerningGroup = h;
rightMetricsKey = n;
unicode = 0068;
},
{
glyphname = i;
layers = (
{
layerId = "04EC68FF-C98D-4D46-AE83-08D67BD50805";
paths = (
{
closed = 1;
nodes = (
"114 0 LINE",
"198 0 LINE",
"198 496 LINE",
"45 496 LINE",
"45 429 LINE",
"114 429 LINE"
);
},
{
closed = 1;
nodes = (
"191 590 OFFCURVE",
"219 618 OFFCURVE",
"219 653 CURVE SMOOTH",
"219 687 OFFCURVE",
"191 715 OFFCURVE",
"156 715 CURVE SMOOTH",
"122 715 OFFCURVE",
"94 687 OFFCURVE",
"94 653 CURVE SMOOTH",
"94 618 OFFCURVE",
"122 590 OFFCURVE",
"156 590 CURVE SMOOTH"
);
}
);
width = 278;
}
);
leftKerningGroup = i;
unicode = 0069;
},
{
glyphname = j;
layers = (
{
layerId = "04EC68FF-C98D-4D46-AE83-08D67BD50805";
paths = (
{
closed = 1;
nodes = (
"-58 -159 LINE",
"-38 -160 OFFCURVE",
"-20 -161 OFFCURVE",
"-3 -161 CURVE SMOOTH",
"134 -161 OFFCURVE",
"174 -121 OFFCURVE",
"174 7 CURVE SMOOTH",
"174 496 LINE",
"90 496 LINE",
"90 12 LINE SMOOTH",
"90 -72 OFFCURVE",
"73 -87 OFFCURVE",
"-11 -87 CURVE SMOOTH",
"-25 -87 OFFCURVE",
"-40 -87 OFFCURVE",
"-58 -86 CURVE"
);
},
{
closed = 1;
nodes = (
"166 590 OFFCURVE",
"194 618 OFFCURVE",
"194 653 CURVE SMOOTH",
"194 687 OFFCURVE",
"166 715 OFFCURVE",
"132 715 CURVE SMOOTH",
"97 715 OFFCURVE",
"69 687 OFFCURVE",
"69 653 CURVE SMOOTH",
"69 618 OFFCURVE",
"97 590 OFFCURVE",
"132 590 CURVE SMOOTH"
);
}
);
width = 254;
}
);
unicode = 006A;
},
{
color = (153,254,255,255);
glyphname = k;
layers = (
{
layerId = "04EC68FF-C98D-4D46-AE83-08D67BD50805";
paths = (
{
closed = 1;
nodes = (
"70 0 LINE",
"154 0 LINE",
"154 166 LINE",
"212 229 LINE",
"377 0 LINE",
"480 0 LINE",
"268 291 LINE",
"455 496 LINE",
"354 496 LINE",
"154 273 LINE",
"154 668 LINE",
"70 668 LINE"
);
}
);
width = 490;
}
);
leftMetricsKey = n;
unicode = 006B;
},
{
color = (153,254,255,255);
glyphname = l;
layers = (
{
layerId = "04EC68FF-C98D-4D46-AE83-08D67BD50805";
paths = (
{
closed = 1;
nodes = (
"224 0 LINE",
"224 74 LINE",
"205 74 LINE SMOOTH",
"158 74 OFFCURVE",
"154 87 OFFCURVE",
"154 138 CURVE SMOOTH",
"154 667 LINE",
"70 667 LINE",
"70 124 LINE SMOOTH",
"70 21 OFFCURVE",
"92 0 OFFCURVE",
"187 0 CURVE SMOOTH"
);
}
);
width = 239;
}
);
leftMetricsKey = n;
unicode = 006C;
},
{
color = (153,254,255,255);
glyphname = m;
layers = (
{
layerId = "04EC68FF-C98D-4D46-AE83-08D67BD50805";
paths = (
{
closed = 1;
nodes = (
"70 0 LINE",
"154 0 LINE",
"154 269 LINE SMOOTH",
"154 375 OFFCURVE",
"202 432 OFFCURVE",
"274 432 CURVE SMOOTH",
"365 432 OFFCURVE",
"380 365 OFFCURVE",
"380 289 CURVE SMOOTH",
"380 0 LINE",
"464 0 LINE",
"464 269 LINE SMOOTH",
"464 375 OFFCURVE",
"511 432 OFFCURVE",
"583 432 CURVE SMOOTH",
"675 432 OFFCURVE",
"689 365 OFFCURVE",
"689 289 CURVE SMOOTH",
"689 0 LINE",
"773 0 LINE",
"773 314 LINE SMOOTH",
"773 427 OFFCURVE",
"728 504 OFFCURVE",
"613 504 CURVE SMOOTH",
"544 504 OFFCURVE",
"486 478 OFFCURVE",
"446 417 CURVE",
"424 471 OFFCURVE",
"379 504 OFFCURVE",
"303 504 CURVE SMOOTH",
"229 504 OFFCURVE",
"182 468 OFFCURVE",
"154 421 CURVE",
"132 496 LINE",
"70 496 LINE"
);
}
);
width = 841;
}
);
leftMetricsKey = n;
rightKerningGroup = h;
rightMetricsKey = n;
unicode = 006D;
},
{
color = (153,254,255,255);
glyphname = n;
layers = (
{
layerId = "04EC68FF-C98D-4D46-AE83-08D67BD50805";
paths = (
{
closed = 1;
nodes = (
"70 0 LINE",
"154 0 LINE",
"154 269 LINE SMOOTH",
"154 375 OFFCURVE",
"204 432 OFFCURVE",
"285 432 CURVE SMOOTH",
"381 432 OFFCURVE",
"394 365 OFFCURVE",
"394 289 CURVE SMOOTH",
"394 0 LINE",
"478 0 LINE",
"478 314 LINE SMOOTH",
"478 427 OFFCURVE",
"434 504 OFFCURVE",
"314 504 CURVE SMOOTH",
"230 504 OFFCURVE",
"182 468 OFFCURVE",
"154 421 CURVE",
"132 496 LINE",
"70 496 LINE"
);
}
);
width = 546;
}
);
leftKerningGroup = n;
rightKerningGroup = h;
unicode = 006E;
},
{
color = (153,254,255,255);
glyphname = o;
layers = (
{
layerId = "04EC68FF-C98D-4D46-AE83-08D67BD50805";
paths = (
{
closed = 1;
nodes = (
"391 -12 OFFCURVE",
"514 67 OFFCURVE",
"514 246 CURVE SMOOTH",
"514 425 OFFCURVE",
"391 504 OFFCURVE",
"276 504 CURVE SMOOTH",
"162 504 OFFCURVE",
"38 425 OFFCURVE",
"38 246 CURVE SMOOTH",
"38 67 OFFCURVE",
"162 -12 OFFCURVE",
"276 -12 CURVE SMOOTH"
);
},
{
closed = 1;
nodes = (
"205 62 OFFCURVE",
"128 118 OFFCURVE",
"128 246 CURVE SMOOTH",
"128 374 OFFCURVE",
"205 430 OFFCURVE",
"276 430 CURVE SMOOTH",
"348 430 OFFCURVE",
"424 374 OFFCURVE",
"424 246 CURVE SMOOTH",
"424 118 OFFCURVE",
"348 62 OFFCURVE",
"276 62 CURVE SMOOTH"
);
}
);
width = 552;
}
);
leftKerningGroup = c;
rightKerningGroup = b;
unicode = 006F;
},
{
color = (153,254,255,255);
glyphname = p;
layers = (
{
layerId = "04EC68FF-C98D-4D46-AE83-08D67BD50805";
paths = (
{
closed = 1;
nodes = (
"70 -161 LINE",
"154 -161 LINE",
"154 75 LINE",
"184 22 OFFCURVE",
"237 -12 OFFCURVE",
"315 -12 CURVE SMOOTH",
"428 -12 OFFCURVE",
"528 83 OFFCURVE",
"528 246 CURVE SMOOTH",
"528 410 OFFCURVE",
"428 504 OFFCURVE",
"315 504 CURVE SMOOTH",
"237 504 OFFCURVE",
"184 470 OFFCURVE",
"154 418 CURVE",
"131 496 LINE",
"70 496 LINE"
);
},
{
closed = 1;
nodes = (
"208 60 OFFCURVE",
"152 128 OFFCURVE",
"152 246 CURVE SMOOTH",
"152 364 OFFCURVE",
"208 432 OFFCURVE",
"293 432 CURVE SMOOTH",
"378 432 OFFCURVE",
"434 364 OFFCURVE",
"434 246 CURVE SMOOTH",
"434 128 OFFCURVE",
"378 60 OFFCURVE",
"293 60 CURVE SMOOTH"
);
}
);
width = 566;
}
);
rightKerningGroup = b;
rightMetricsKey = o;
unicode = 0070;
},
{
color = (153,254,255,255);
glyphname = q;
layers = (
{
layerId = "04EC68FF-C98D-4D46-AE83-08D67BD50805";
paths = (
{
closed = 1;
nodes = (
"628 -81 LINE",
"604 -90 OFFCURVE",
"583 -94 OFFCURVE",
"567 -94 CURVE SMOOTH",
"516 -94 OFFCURVE",
"496 -60 OFFCURVE",
"496 -24 CURVE SMOOTH",
"496 496 LINE",
"435 496 LINE",
"412 418 LINE",
"382 470 OFFCURVE",
"329 504 OFFCURVE",
"250 504 CURVE SMOOTH",
"137 504 OFFCURVE",
"38 410 OFFCURVE",
"38 246 CURVE SMOOTH",
"38 83 OFFCURVE",
"137 -12 OFFCURVE",
"250 -12 CURVE SMOOTH",
"329 -12 OFFCURVE",
"382 22 OFFCURVE",
"412 75 CURVE",
"412 -27 LINE SMOOTH",
"412 -141 OFFCURVE",
"475 -173 OFFCURVE",
"543 -173 CURVE SMOOTH",
"572 -173 OFFCURVE",
"602 -167 OFFCURVE",
"628 -159 CURVE"
);
},
{
closed = 1;
nodes = (
"187 60 OFFCURVE",
"131 128 OFFCURVE",
"131 246 CURVE SMOOTH",
"131 364 OFFCURVE",
"187 432 OFFCURVE",
"273 432 CURVE SMOOTH",
"358 432 OFFCURVE",
"414 364 OFFCURVE",
"414 246 CURVE SMOOTH",
"414 128 OFFCURVE",
"358 60 OFFCURVE",
"273 60 CURVE SMOOTH"
);
}
);
width = 576;
}
);
leftKerningGroup = c;
leftMetricsKey = o;
rightKerningGroup = q;
unicode = 0071;
},
{
color = (153,254,255,255);
glyphname = r;
layers = (
{
layerId = "04EC68FF-C98D-4D46-AE83-08D67BD50805";
paths = (
{
closed = 1;
nodes = (
"70 0 LINE",
"154 0 LINE",
"154 213 LINE SMOOTH",
"154 345 OFFCURVE",
"199 417 OFFCURVE",
"335 417 CURVE",
"335 504 LINE",
"252 504 OFFCURVE",
"193 464 OFFCURVE",
"158 404 CURVE",
"131 496 LINE",
"70 496 LINE"
);
}
);
width = 340;
}
);
leftMetricsKey = n;
unicode = 0072;
},
{
color = (153,254,255,255);
glyphname = s;
layers = (
{
layerId = "04EC68FF-C98D-4D46-AE83-08D67BD50805";
paths = (
{
closed = 1;
nodes = (
"31 112 LINE",
"64 27 OFFCURVE",
"153 -12 OFFCURVE",
"239 -12 CURVE SMOOTH",
"342 -12 OFFCURVE",
"441 42 OFFCURVE",
"441 136 CURVE SMOOTH",
"441 347 OFFCURVE",
"126 248 OFFCURVE",
"126 368 CURVE SMOOTH",
"126 411 OFFCURVE",
"175 434 OFFCURVE",
"226 434 CURVE SMOOTH",
"273 434 OFFCURVE",
"322 415 OFFCURVE",
"339 375 CURVE",
"418 404 LINE",
"388 473 OFFCURVE",
"310 505 OFFCURVE",
"232 505 CURVE SMOOTH",
"136 505 OFFCURVE",
"41 456 OFFCURVE",
"41 367 CURVE SMOOTH",
"41 169 OFFCURVE",
"356 269 OFFCURVE",
"356 133 CURVE SMOOTH",
"356 88 OFFCURVE",
"298 59 OFFCURVE",
"239 59 CURVE SMOOTH",
"184 59 OFFCURVE",
"127 83 OFFCURVE",
"112 142 CURVE"
);
}
);
width = 471;
}
);
leftKerningGroup = s_2;
rightKerningGroup = s;
unicode = 0073;
},
{
color = (153,254,255,255);
glyphname = t;
layers = (
{
layerId = "04EC68FF-C98D-4D46-AE83-08D67BD50805";
paths = (
{
closed = 1;
nodes = (
"284 0 LINE",
"284 74 LINE",
"239 74 LINE SMOOTH",
"191 74 OFFCURVE",
"188 87 OFFCURVE",
"188 138 CURVE SMOOTH",
"188 429 LINE",
"284 429 LINE",
"284 496 LINE",
"188 496 LINE",
"188 621 LINE",
"104 621 LINE",
"104 496 LINE",
"20 496 LINE",
"20 429 LINE",
"104 429 LINE",
"104 124 LINE SMOOTH",
"104 21 OFFCURVE",
"126 0 OFFCURVE",
"221 0 CURVE SMOOTH"
);
}
);
width = 324;
}
);
leftKerningGroup = t;
rightKerningGroup = t1;
unicode = 0074;
},
{
color = (153,254,255,255);
glyphname = u;
layers = (
{
layerId = "04EC68FF-C98D-4D46-AE83-08D67BD50805";
paths = (
{
closed = 1;
nodes = (
"403 0 LINE",
"466 0 LINE",
"466 497 LINE",
"382 497 LINE",
"382 224 LINE SMOOTH",
"382 118 OFFCURVE",
"335 62 OFFCURVE",
"256 62 CURVE SMOOTH",
"165 62 OFFCURVE",
"152 128 OFFCURVE",
"152 205 CURVE SMOOTH",
"152 497 LINE",
"68 497 LINE",
"68 180 LINE SMOOTH",
"68 67 OFFCURVE",
"111 -12 OFFCURVE",
"227 -12 CURVE SMOOTH",
"309 -12 OFFCURVE",
"354 24 OFFCURVE",
"382 72 CURVE"
);
}
);
width = 536;
}
);
leftKerningGroup = u;
rightKerningGroup = u1;
unicode = 0075;
},
{
color = (153,254,255,255);
glyphname = v;
layers = (
{
layerId = "04EC68FF-C98D-4D46-AE83-08D67BD50805";
paths = (
{
closed = 1;
nodes = (
"177 0 LINE",
"264 0 LINE",
"441 496 LINE",
"350 496 LINE",
"221 110 LINE",
"91 496 LINE",
"0 496 LINE"
);
}
);
width = 441;
}
);
leftKerningGroup = y;
rightKerningGroup = y_2;
unicode = 0076;
},
{
color = (153,254,255,255);
glyphname = w;
layers = (
{
layerId = "04EC68FF-C98D-4D46-AE83-08D67BD50805";
paths = (
{
closed = 1;
nodes = (
"143 0 LINE",
"219 0 LINE",
"327 399 LINE",
"435 0 LINE",
"512 0 LINE",
"654 496 LINE",
"564 496 LINE",
"469 129 LINE",
"371 496 LINE",
"284 496 LINE",
"185 129 LINE",
"90 496 LINE",
"0 496 LINE"
);
}
);
width = 654;
}
);
leftMetricsKey = v;
rightMetricsKey = v;
unicode = 0077;
},
{
color = (153,254,255,255);
glyphname = x;
layers = (
{
layerId = "04EC68FF-C98D-4D46-AE83-08D67BD50805";
paths = (
{
closed = 1;
nodes = (
"0 0 LINE",
"99 0 LINE",
"230 185 LINE",
"362 0 LINE",
"461 0 LINE",
"280 255 LINE",
"452 496 LINE",
"353 496 LINE",
"230 324 LINE",
"108 496 LINE",
"9 496 LINE",
"181 255 LINE"
);
}
);
width = 461;
}
);
leftMetricsKey = v;
rightMetricsKey = v;
unicode = 0078;
},
{
color = (153,254,255,255);
glyphname = y;
layers = (
{
layerId = "04EC68FF-C98D-4D46-AE83-08D67BD50805";
paths = (
{
closed = 1;
nodes = (
"37 -161 LINE",
"80 -161 LINE SMOOTH",
"191 -161 OFFCURVE",
"217 -129 OFFCURVE",
"253 -22 CURVE SMOOTH",
"429 495 LINE",
"337 495 LINE",
"215 113 LINE",
"93 495 LINE",
"0 495 LINE",
"179 -1 LINE",
"156 -77 OFFCURVE",
"143 -87 OFFCURVE",
"71 -87 CURVE SMOOTH",
"37 -87 LINE"
);
}
);
width = 429;
}
);
leftKerningGroup = y;
leftMetricsKey = v;
rightKerningGroup = y_2;
rightMetricsKey = v;
unicode = 0079;
},
{
color = (153,254,255,255);
glyphname = z;
layers = (
{
layerId = "04EC68FF-C98D-4D46-AE83-08D67BD50805";
paths = (
{
closed = 1;
nodes = (
"40 0 LINE",
"430 0 LINE",
"430 74 LINE",
"135 74 LINE",
"420 422 LINE",
"420 496 LINE",
"49 496 LINE",
"49 422 LINE",
"325 422 LINE",
"40 74 LINE"
);
}
);
width = 460;
}
);
leftKerningGroup = z;
rightKerningGroup = z_2;
unicode = 007A;
},
{
glyphname = circumflex;
layers = (
{
layerId = "04EC68FF-C98D-4D46-AE83-08D67BD50805";
paths = (
{
closed = 1;
nodes = (
"53 575 LINE",
"147 575 LINE",
"214 636 LINE",
"282 575 LINE",
"376 575 LINE",
"264 676 LINE SMOOTH",
"250 689 OFFCURVE",
"232 695 OFFCURVE",
"215 695 CURVE SMOOTH",
"197 695 OFFCURVE",
"179 689 OFFCURVE",
"165 676 CURVE SMOOTH"
);
}
);
width = 429;
}
);
unicode = 02C6;
},
{
glyphname = caron;
layers = (
{
layerId = "04EC68FF-C98D-4D46-AE83-08D67BD50805";
paths = (
{
closed = 1;
nodes = (
"53 689 LINE",
"165 588 LINE SMOOTH",
"179 575 OFFCURVE",
"197 569 OFFCURVE",
"215 569 CURVE SMOOTH",
"232 569 OFFCURVE",
"250 575 OFFCURVE",
"264 588 CURVE SMOOTH",
"376 689 LINE",
"282 689 LINE",
"214 628 LINE",
"147 689 LINE"
);
}
);
width = 429;
}
);
unicode = 02C7;
},
{
glyphname = breve;
layers = (
{
layerId = "04EC68FF-C98D-4D46-AE83-08D67BD50805";
paths = (
{
closed = 1;
nodes = (
"278 689 LINE",
"265 658 OFFCURVE",
"235 636 OFFCURVE",
"200 636 CURVE SMOOTH",
"164 636 OFFCURVE",
"134 658 OFFCURVE",
"122 689 CURVE",
"53 689 LINE",
"67 621 OFFCURVE",
"127 569 OFFCURVE",
"200 569 CURVE SMOOTH",
"272 569 OFFCURVE",
"333 621 OFFCURVE",
"347 689 CURVE"
);
}
);
width = 399;
}
);
unicode = 02D8;
},
{
glyphname = dotaccent;
layers = (
{
layerId = "04EC68FF-C98D-4D46-AE83-08D67BD50805";
paths = (
{
closed = 1;
nodes = (
"137 590 OFFCURVE",
"161 614 OFFCURVE",
"161 644 CURVE SMOOTH",
"161 674 OFFCURVE",
"137 698 OFFCURVE",
"107 698 CURVE SMOOTH",
"77 698 OFFCURVE",
"53 674 OFFCURVE",
"53 644 CURVE SMOOTH",
"53 614 OFFCURVE",
"77 590 OFFCURVE",
"107 590 CURVE SMOOTH"
);
}
);
width = 214;
}
);
unicode = 02D9;
},
{
glyphname = ring;
layers = (
{
layerId = "04EC68FF-C98D-4D46-AE83-08D67BD50805";
paths = (
{
closed = 1;
nodes = (
"15 609 OFFCURVE",
"64 559 OFFCURVE",
"126 559 CURVE SMOOTH",
"187 559 OFFCURVE",
"233 609 OFFCURVE",
"233 668 CURVE SMOOTH",
"233 727 OFFCURVE",
"187 777 OFFCURVE",
"126 777 CURVE SMOOTH",
"64 777 OFFCURVE",
"15 727 OFFCURVE",
"15 668 CURVE SMOOTH"
);
},
{
closed = 1;
nodes = (
"72 696 OFFCURVE",
"95 719 OFFCURVE",
"124 719 CURVE SMOOTH",
"153 719 OFFCURVE",
"176 696 OFFCURVE",
"176 668 CURVE SMOOTH",
"176 640 OFFCURVE",
"153 617 OFFCURVE",
"124 617 CURVE SMOOTH",
"95 617 OFFCURVE",
"72 640 OFFCURVE",
"72 668 CURVE SMOOTH"
);
}
);
width = 253;
}
);
unicode = 02DA;
},
{
glyphname = ogonek;
layers = (
{
layerId = "04EC68FF-C98D-4D46-AE83-08D67BD50805";
paths = (
{
closed = 1;
nodes = (
"210 -107 LINE",
"197 -113 OFFCURVE",
"184 -115 OFFCURVE",
"172 -115 CURVE SMOOTH",
"144 -115 OFFCURVE",
"123 -102 OFFCURVE",
"123 -75 CURVE SMOOTH",
"123 -50 OFFCURVE",
"142 -25 OFFCURVE",
"210 0 CURVE",
"133 0 LINE",
"84 -12 OFFCURVE",
"53 -50 OFFCURVE",
"53 -91 CURVE SMOOTH",
"53 -134 OFFCURVE",
"87 -173 OFFCURVE",
"147 -173 CURVE SMOOTH",
"166 -173 OFFCURVE",
"187 -169 OFFCURVE",
"210 -161 CURVE"
);
}
);
width = 263;
}
);
unicode = 02DB;
},
{
glyphname = quoteleft;
layers = (
{
layerId = "04EC68FF-C98D-4D46-AE83-08D67BD50805";
paths = (
{
closed = 1;
nodes = (
"120 668 LINE",
"58 507 LINE SMOOTH",
"55 499 OFFCURVE",
"53 490 OFFCURVE",
"53 482 CURVE SMOOTH",
"53 448 OFFCURVE",
"82 418 OFFCURVE",
"118 418 CURVE SMOOTH",
"153 418 OFFCURVE",
"182 446 OFFCURVE",
"182 482 CURVE SMOOTH",
"182 514 OFFCURVE",
"159 541 OFFCURVE",
"128 546 CURVE",
"175 668 LINE"
);
}
);
width = 235;
}
);
leftKerningGroup = quoteleft;
rightKerningGroup = quoteleft_2;
unicode = 2018;
},
{
glyphname = quoteright;
layers = (
{
layerId = "04EC68FF-C98D-4D46-AE83-08D67BD50805";
paths = (
{
closed = 1;
nodes = (
"60 429 LINE",
"115 429 LINE",
"177 591 LINE SMOOTH",
"180 599 OFFCURVE",
"182 607 OFFCURVE",
"182 616 CURVE SMOOTH",
"182 650 OFFCURVE",
"153 680 OFFCURVE",
"117 680 CURVE SMOOTH",
"82 680 OFFCURVE",
"53 651 OFFCURVE",
"53 615 CURVE SMOOTH",
"53 583 OFFCURVE",
"76 557 OFFCURVE",
"107 552 CURVE"
);
}
);
width = 235;
}
);
leftKerningGroup = quoteright;
rightKerningGroup = quoteright_2;
unicode = 2019;
},
{
glyphname = quotesinglbase;
layers = (
{
layerId = "04EC68FF-C98D-4D46-AE83-08D67BD50805";
paths = (
{
closed = 1;
nodes = (
"60 -134 LINE",
"115 -134 LINE",
"177 28 LINE SMOOTH",
"180 36 OFFCURVE",
"182 44 OFFCURVE",
"182 53 CURVE SMOOTH",
"182 87 OFFCURVE",
"153 117 OFFCURVE",
"117 117 CURVE SMOOTH",
"82 117 OFFCURVE",
"53 88 OFFCURVE",
"53 52 CURVE SMOOTH",
"53 20 OFFCURVE",
"76 -6 OFFCURVE",
"107 -11 CURVE"
);
}
);
width = 235;
}
);
leftKerningGroup = period;
rightKerningGroup = period_2;
unicode = 201A;
},
{
glyphname = quotedblleft;
layers = (
{
layerId = "04EC68FF-C98D-4D46-AE83-08D67BD50805";
paths = (
{
closed = 1;
nodes = (
"283 668 LINE",
"221 507 LINE SMOOTH",
"218 499 OFFCURVE",
"216 490 OFFCURVE",
"216 482 CURVE SMOOTH",
"216 448 OFFCURVE",
"245 418 OFFCURVE",
"281 418 CURVE SMOOTH",
"316 418 OFFCURVE",
"345 446 OFFCURVE",
"345 482 CURVE SMOOTH",
"345 514 OFFCURVE",
"322 541 OFFCURVE",
"292 546 CURVE",
"338 668 LINE"
);
},
{
closed = 1;
nodes = (
"120 668 LINE",
"58 507 LINE SMOOTH",
"55 499 OFFCURVE",
"53 490 OFFCURVE",
"53 482 CURVE SMOOTH",
"53 448 OFFCURVE",
"82 418 OFFCURVE",
"118 418 CURVE SMOOTH",
"153 418 OFFCURVE",
"182 446 OFFCURVE",
"182 482 CURVE SMOOTH",
"182 514 OFFCURVE",
"159 541 OFFCURVE",
"128 546 CURVE",
"175 668 LINE"
);
}
);
width = 398;
}
);
leftKerningGroup = quoteleft;
rightKerningGroup = quoteleft_2;
unicode = 201C;
},
{
glyphname = quotedblright;
layers = (
{
layerId = "04EC68FF-C98D-4D46-AE83-08D67BD50805";
paths = (
{
closed = 1;
nodes = (
"223 429 LINE",
"279 429 LINE",
"340 591 LINE SMOOTH",
"343 599 OFFCURVE",
"345 608 OFFCURVE",
"345 616 CURVE SMOOTH",
"345 650 OFFCURVE",
"317 680 OFFCURVE",
"281 680 CURVE SMOOTH",
"245 680 OFFCURVE",
"216 651 OFFCURVE",
"216 615 CURVE SMOOTH",
"216 583 OFFCURVE",
"239 557 OFFCURVE",
"270 552 CURVE"
);
},
{
closed = 1;
nodes = (
"60 429 LINE",
"115 429 LINE",
"177 591 LINE SMOOTH",
"180 599 OFFCURVE",
"182 607 OFFCURVE",
"182 616 CURVE SMOOTH",
"182 650 OFFCURVE",
"153 680 OFFCURVE",
"117 680 CURVE SMOOTH",
"82 680 OFFCURVE",
"53 651 OFFCURVE",
"53 615 CURVE SMOOTH",
"53 583 OFFCURVE",
"76 557 OFFCURVE",
"107 552 CURVE"
);
}
);
width = 398;
}
);
leftKerningGroup = quoteright;
rightKerningGroup = quoteright_2;
unicode = 201D;
},
{
glyphname = quotedblbase;
layers = (
{
layerId = "04EC68FF-C98D-4D46-AE83-08D67BD50805";
paths = (
{
closed = 1;
nodes = (
"223 -134 LINE",
"279 -134 LINE",
"340 28 LINE SMOOTH",
"343 36 OFFCURVE",
"345 45 OFFCURVE",
"345 53 CURVE SMOOTH",
"345 87 OFFCURVE",
"317 117 OFFCURVE",
"281 117 CURVE SMOOTH",
"245 117 OFFCURVE",
"216 88 OFFCURVE",
"216 52 CURVE SMOOTH",
"216 20 OFFCURVE",
"239 -6 OFFCURVE",
"270 -11 CURVE"
);
},
{
closed = 1;
nodes = (
"60 -134 LINE",
"115 -134 LINE",
"177 28 LINE SMOOTH",
"180 36 OFFCURVE",
"182 44 OFFCURVE",
"182 53 CURVE SMOOTH",
"182 87 OFFCURVE",
"153 117 OFFCURVE",
"117 117 CURVE SMOOTH",
"82 117 OFFCURVE",
"53 88 OFFCURVE",
"53 52 CURVE SMOOTH",
"53 20 OFFCURVE",
"76 -6 OFFCURVE",
"107 -11 CURVE"
);
}
);
width = 398;
}
);
leftKerningGroup = period;
rightKerningGroup = period_2;
unicode = 201E;
},
{
glyphname = dagger;
layers = (
{
layerId = "04EC68FF-C98D-4D46-AE83-08D67BD50805";
paths = (
{
closed = 1;
nodes = (
"230 0 LINE",
"311 0 LINE",
"311 416 LINE",
"501 416 LINE",
"501 496 LINE",
"311 496 LINE",
"311 668 LINE",
"230 668 LINE",
"230 496 LINE",
"40 496 LINE",
"40 416 LINE",
"230 416 LINE"
);
}
);
width = 541;
}
);
unicode = 2020;
},
{
glyphname = daggerdbl;
layers = (
{
layerId = "04EC68FF-C98D-4D46-AE83-08D67BD50805";
paths = (
{
closed = 1;
nodes = (
"40 172 LINE",
"230 172 LINE",
"230 0 LINE",
"311 0 LINE",
"311 172 LINE",
"501 172 LINE",
"501 251 LINE",
"311 251 LINE",
"311 416 LINE",
"501 416 LINE",
"501 496 LINE",
"311 496 LINE",
"311 668 LINE",
"230 668 LINE",
"230 496 LINE",
"40 496 LINE",
"40 416 LINE",
"230 416 LINE",
"230 251 LINE",
"40 251 LINE"
);
}
);
width = 541;
}
);
unicode = 2021;
},
{
glyphname = bullet;
layers = (
{
layerId = "04EC68FF-C98D-4D46-AE83-08D67BD50805";
paths = (
{
closed = 1;
nodes = (
"311 88 OFFCURVE",
"385 163 OFFCURVE",
"385 254 CURVE SMOOTH",
"385 346 OFFCURVE",
"311 420 OFFCURVE",
"219 420 CURVE SMOOTH",
"127 420 OFFCURVE",
"53 346 OFFCURVE",
"53 254 CURVE SMOOTH",
"53 163 OFFCURVE",
"127 88 OFFCURVE",
"219 88 CURVE SMOOTH"
);
}
);
width = 438;
}
);
unicode = 2022;
},
{
glyphname = ellipsis;
layers = (
{
layerId = "04EC68FF-C98D-4D46-AE83-08D67BD50805";
paths = (
{
closed = 1;
nodes = (
"514 17 OFFCURVE",
"543 -12 OFFCURVE",
"579 -12 CURVE SMOOTH",
"614 -12 OFFCURVE",
"643 17 OFFCURVE",
"643 52 CURVE SMOOTH",
"643 88 OFFCURVE",
"614 117 OFFCURVE",
"579 117 CURVE SMOOTH",
"543 117 OFFCURVE",
"514 88 OFFCURVE",
"514 52 CURVE SMOOTH"
);
},
{
closed = 1;
nodes = (
"153 -12 OFFCURVE",
"182 17 OFFCURVE",
"182 52 CURVE SMOOTH",
"182 88 OFFCURVE",
"153 117 OFFCURVE",
"117 117 CURVE SMOOTH",
"82 117 OFFCURVE",
"53 88 OFFCURVE",
"53 52 CURVE SMOOTH",
"53 17 OFFCURVE",
"82 -12 OFFCURVE",
"117 -12 CURVE SMOOTH"
);
},
{
closed = 1;
nodes = (
"384 -12 OFFCURVE",
"413 17 OFFCURVE",
"413 52 CURVE SMOOTH",
"413 88 OFFCURVE",
"384 117 OFFCURVE",
"348 117 CURVE SMOOTH",
"312 117 OFFCURVE",
"284 88 OFFCURVE",
"284 52 CURVE SMOOTH",
"284 17 OFFCURVE",
"312 -12 OFFCURVE",
"348 -12 CURVE SMOOTH"
);
}
);
width = 696;
}
);
leftKerningGroup = period;
rightKerningGroup = period_2;
unicode = 2026;
},
{
glyphname = perthousand;
layers = (
{
layerId = "04EC68FF-C98D-4D46-AE83-08D67BD50805";
paths = (
{
closed = 1;
nodes = (
"186 0 LINE",
"274 0 LINE",
"742 668 LINE",
"654 668 LINE"
);
},
{
closed = 1;
nodes = (
"320 316 OFFCURVE",
"401 398 OFFCURVE",
"401 498 CURVE SMOOTH",
"401 598 OFFCURVE",
"320 680 OFFCURVE",
"220 680 CURVE SMOOTH",
"119 680 OFFCURVE",
"38 598 OFFCURVE",
"38 498 CURVE SMOOTH",
"38 398 OFFCURVE",
"119 316 OFFCURVE",
"220 316 CURVE SMOOTH"
);
},
{
closed = 1;
nodes = (
"112 557 OFFCURVE",
"161 605 OFFCURVE",
"220 605 CURVE SMOOTH",
"279 605 OFFCURVE",
"327 557 OFFCURVE",
"327 498 CURVE SMOOTH",
"327 439 OFFCURVE",
"279 391 OFFCURVE",
"220 391 CURVE SMOOTH",
"161 391 OFFCURVE",
"112 439 OFFCURVE",
"112 498 CURVE SMOOTH"
);
},
{
closed = 1;
nodes = (
"526 69 OFFCURVE",
"607 -12 OFFCURVE",
"708 -12 CURVE SMOOTH",
"808 -12 OFFCURVE",
"889 69 OFFCURVE",
"889 169 CURVE SMOOTH",
"889 270 OFFCURVE",
"808 351 OFFCURVE",
"708 351 CURVE SMOOTH",
"607 351 OFFCURVE",
"526 270 OFFCURVE",
"526 169 CURVE SMOOTH"
);
},
{
closed = 1;
nodes = (
"600 229 OFFCURVE",
"648 277 OFFCURVE",
"708 277 CURVE SMOOTH",
"767 277 OFFCURVE",
"815 229 OFFCURVE",
"815 169 CURVE SMOOTH",
"815 110 OFFCURVE",
"767 62 OFFCURVE",
"708 62 CURVE SMOOTH",
"648 62 OFFCURVE",
"600 110 OFFCURVE",
"600 169 CURVE SMOOTH"
);
},
{
closed = 1;
nodes = (
"927 69 OFFCURVE",
"1008 -12 OFFCURVE",
"1109 -12 CURVE SMOOTH",
"1209 -12 OFFCURVE",
"1290 69 OFFCURVE",
"1290 169 CURVE SMOOTH",
"1290 270 OFFCURVE",
"1209 351 OFFCURVE",
"1109 351 CURVE SMOOTH",
"1008 351 OFFCURVE",
"927 270 OFFCURVE",
"927 169 CURVE SMOOTH"
);
},
{
closed = 1;
nodes = (
"1001 229 OFFCURVE",
"1049 277 OFFCURVE",
"1109 277 CURVE SMOOTH",
"1168 277 OFFCURVE",
"1216 229 OFFCURVE",
"1216 169 CURVE SMOOTH",
"1216 110 OFFCURVE",
"1168 62 OFFCURVE",
"1109 62 CURVE SMOOTH",
"1049 62 OFFCURVE",
"1001 110 OFFCURVE",
"1001 169 CURVE SMOOTH"
);
}
);
width = 1328;
}
);
leftKerningGroup = percent;
leftMetricsKey = o;
rightMetricsKey = o;
unicode = 2030;
},
{
glyphname = guilsinglleft;
layers = (
{
layerId = "04EC68FF-C98D-4D46-AE83-08D67BD50805";
paths = (
{
closed = 1;
nodes = (
"201 40 LINE",
"300 40 LINE",
"151 250 LINE",
"300 461 LINE",
"201 461 LINE",
"53 250 LINE"
);
}
);
width = 353;
}
);
leftKerningGroup = guilsinglleft;
rightKerningGroup = guilsinglleft_2;
unicode = 2039;
},
{
glyphname = guilsinglright;
layers = (
{
layerId = "04EC68FF-C98D-4D46-AE83-08D67BD50805";
paths = (
{
closed = 1;
nodes = (
"53 40 LINE",
"153 40 LINE",
"300 250 LINE",
"153 461 LINE",
"53 461 LINE",
"202 250 LINE"
);
}
);
width = 353;
}
);
leftKerningGroup = guilsinglright;
rightKerningGroup = guilsinglright_2;
unicode = 203A;
},
{
color = (153,254,255,255);
glyphname = fraction;
layers = (
{
layerId = "04EC68FF-C98D-4D46-AE83-08D67BD50805";
paths = (
{
closed = 1;
nodes = (
"15 0 LINE",
"103 0 LINE",
"571 668 LINE",
"483 668 LINE"
);
}
);
width = 586;
}
);
unicode = 2044;
},
{
glyphname = ordfeminine;
layers = (
{
layerId = "04EC68FF-C98D-4D46-AE83-08D67BD50805";
paths = (
{
closed = 1;
nodes = (
"260 403 LINE",
"318 403 LINE",
"312 433 OFFCURVE",
"307 460 OFFCURVE",
"307 491 CURVE SMOOTH",
"307 573 LINE SMOOTH",
"307 665 OFFCURVE",
"252 692 OFFCURVE",
"189 692 CURVE SMOOTH",
"126 692 OFFCURVE",
"83 665 OFFCURVE",
"68 625 CURVE",
"129 607 LINE",
"135 632 OFFCURVE",
"157 643 OFFCURVE",
"186 643 CURVE SMOOTH",
"237 643 OFFCURVE",
"239 610 OFFCURVE",
"239 578 CURVE",
"141 570 OFFCURVE",
"53 552 OFFCURVE",
"53 478 CURVE SMOOTH",
"53 430 OFFCURVE",
"91 397 OFFCURVE",
"152 397 CURVE SMOOTH",
"188 397 OFFCURVE",
"231 409 OFFCURVE",
"248 442 CURVE"
);
},
{
closed = 1;
nodes = (
"239 519 LINE SMOOTH",
"239 479 OFFCURVE",
"219 448 OFFCURVE",
"172 448 CURVE SMOOTH",
"142 448 OFFCURVE",
"123 460 OFFCURVE",
"123 483 CURVE SMOOTH",
"123 510 OFFCURVE",
"150 520 OFFCURVE",
"239 530 CURVE"
);
}
);
width = 371;
}
);
unicode = 00AA;
},
{
glyphname = guillemotleft;
layers = (
{
layerId = "04EC68FF-C98D-4D46-AE83-08D67BD50805";
paths = (
{
closed = 1;
nodes = (
"409 40 LINE",
"509 40 LINE",
"359 251 LINE",
"509 461 LINE",
"409 461 LINE",
"262 251 LINE"
);
},
{
closed = 1;
nodes = (
"201 40 LINE",
"300 40 LINE",
"151 251 LINE",
"300 461 LINE",
"201 461 LINE",
"53 251 LINE"
);
}
);
width = 562;
}
);
leftKerningGroup = guilsinglleft;
rightKerningGroup = guilsinglleft_2;
unicode = 00AB;
},
{
glyphname = logicalnot;
layers = (
{
layerId = "04EC68FF-C98D-4D46-AE83-08D67BD50805";
paths = (
{
closed = 1;
nodes = (
"53 317 LINE",
"468 317 LINE",
"468 90 LINE",
"549 90 LINE",
"549 396 LINE",
"53 396 LINE"
);
}
);
width = 602;
}
);
unicode = 00AC;
},
{
glyphname = registered;
layers = (
{
layerId = "04EC68FF-C98D-4D46-AE83-08D67BD50805";
paths = (
{
closed = 1;
nodes = (
"53 143 OFFCURVE",
"208 -12 OFFCURVE",
"399 -12 CURVE SMOOTH",
"590 -12 OFFCURVE",
"745 143 OFFCURVE",
"745 333 CURVE SMOOTH",
"745 525 OFFCURVE",
"590 680 OFFCURVE",
"399 680 CURVE SMOOTH",
"208 680 OFFCURVE",
"53 525 OFFCURVE",
"53 333 CURVE SMOOTH"
);
},
{
closed = 1;
nodes = (
"242 49 OFFCURVE",
"115 177 OFFCURVE",
"115 333 CURVE SMOOTH",
"115 490 OFFCURVE",
"242 619 OFFCURVE",
"399 619 CURVE SMOOTH",
"556 619 OFFCURVE",
"683 490 OFFCURVE",
"683 333 CURVE SMOOTH",
"683 177 OFFCURVE",
"556 49 OFFCURVE",
"399 49 CURVE SMOOTH"
);
},
{
closed = 1;
nodes = (
"264 162 LINE",
"340 162 LINE",
"340 301 LINE",
"382 301 LINE",
"484 162 LINE",
"570 162 LINE",
"462 311 LINE",
"538 332 OFFCURVE",
"550 383 OFFCURVE",
"550 414 CURVE SMOOTH",
"550 511 OFFCURVE",
"485 530 OFFCURVE",
"376 530 CURVE SMOOTH",
"264 530 LINE"
);
},
{
closed = 1;
nodes = (
"340 359 LINE",
"340 469 LINE",
"388 469 LINE SMOOTH",
"439 469 OFFCURVE",
"474 458 OFFCURVE",
"474 413 CURVE SMOOTH",
"474 378 OFFCURVE",
"450 359 OFFCURVE",
"393 359 CURVE SMOOTH"
);
}
);
width = 798;
}
);
unicode = 00AE;
},
{
glyphname = macron;
layers = (
{
layerId = "04EC68FF-C98D-4D46-AE83-08D67BD50805";
paths = (
{
closed = 1;
nodes = (
"53 601 LINE",
"329 601 LINE",
"329 668 LINE",
"53 668 LINE"
);
}
);
width = 382;
}
);
unicode = 00AF;
},
{
glyphname = degree;
layers = (
{
layerId = "04EC68FF-C98D-4D46-AE83-08D67BD50805";
paths = (
{
closed = 1;
nodes = (
"251 408 OFFCURVE",
"312 469 OFFCURVE",
"312 544 CURVE SMOOTH",
"312 619 OFFCURVE",
"251 680 OFFCURVE",
"176 680 CURVE SMOOTH",
"101 680 OFFCURVE",
"40 619 OFFCURVE",
"40 544 CURVE SMOOTH",
"40 469 OFFCURVE",
"101 408 OFFCURVE",
"176 408 CURVE SMOOTH"
);
},
{
closed = 1;
nodes = (
"136 471 OFFCURVE",
"103 504 OFFCURVE",
"103 544 CURVE SMOOTH",
"103 585 OFFCURVE",
"136 617 OFFCURVE",
"176 617 CURVE SMOOTH",
"217 617 OFFCURVE",
"249 585 OFFCURVE",
"249 544 CURVE SMOOTH",
"249 504 OFFCURVE",
"217 471 OFFCURVE",
"176 471 CURVE SMOOTH"
);
}
);
width = 352;
}
);
unicode = 00B0;
},
{
glyphname = plusminus;
layers = (
{
layerId = "04EC68FF-C98D-4D46-AE83-08D67BD50805";
paths = (
{
closed = 1;
nodes = (
"53 270 LINE",
"250 270 LINE",
"250 124 LINE",
"329 124 LINE",
"329 270 LINE",
"526 270 LINE",
"526 349 LINE",
"329 349 LINE",
"329 496 LINE",
"250 496 LINE",
"250 349 LINE",
"53 349 LINE"
);
},
{
closed = 1;
nodes = (
"53 0 LINE",
"526 0 LINE",
"526 79 LINE",
"53 79 LINE"
);
}
);
width = 579;
}
);
unicode = 00B1;
},
{
glyphname = twosuperior;
layers = (
{
layerId = "04EC68FF-C98D-4D46-AE83-08D67BD50805";
paths = (
{
closed = 1;
nodes = (
"53 403 LINE",
"329 403 LINE",
"329 461 LINE",
"134 461 LINE",
"251 541 OFFCURVE",
"320 612 OFFCURVE",
"320 686 CURVE SMOOTH",
"320 750 OFFCURVE",
"266 786 OFFCURVE",
"196 786 CURVE SMOOTH",
"127 786 OFFCURVE",
"79 751 OFFCURVE",
"65 695 CURVE",
"129 677 LINE",
"134 720 OFFCURVE",
"163 736 OFFCURVE",
"193 736 CURVE SMOOTH",
"227 736 OFFCURVE",
"250 717 OFFCURVE",
"250 682 CURVE SMOOTH",
"250 620 OFFCURVE",
"176 555 OFFCURVE",
"53 458 CURVE"
);
}
);
width = 382;
}
);
unicode = 00B2;
},
{
glyphname = threesuperior;
layers = (
{
layerId = "04EC68FF-C98D-4D46-AE83-08D67BD50805";
paths = (
{
closed = 1;
nodes = (
"53 486 LINE",
"70 435 OFFCURVE",
"116 397 OFFCURVE",
"187 397 CURVE SMOOTH",
"263 397 OFFCURVE",
"330 434 OFFCURVE",
"330 511 CURVE SMOOTH",
"330 549 OFFCURVE",
"309 586 OFFCURVE",
"268 602 CURVE",
"298 618 OFFCURVE",
"321 649 OFFCURVE",
"321 685 CURVE SMOOTH",
"321 756 OFFCURVE",
"256 786 OFFCURVE",
"194 786 CURVE SMOOTH",
"124 786 OFFCURVE",
"75 754 OFFCURVE",
"58 701 CURVE",
"119 683 LINE",
"129 717 OFFCURVE",
"152 736 OFFCURVE",
"190 736 CURVE SMOOTH",
"222 736 OFFCURVE",
"252 720 OFFCURVE",
"252 683 CURVE SMOOTH",
"252 621 OFFCURVE",
"178 626 OFFCURVE",
"151 626 CURVE",
"151 572 LINE",
"184 572 OFFCURVE",
"261 578 OFFCURVE",
"261 509 CURVE SMOOTH",
"261 471 OFFCURVE",
"229 448 OFFCURVE",
"188 448 CURVE SMOOTH",
"147 448 OFFCURVE",
"125 473 OFFCURVE",
"115 504 CURVE"
);
}
);
width = 383;
}
);
unicode = 00B3;
},
{
glyphname = acute;
layers = (
{
layerId = "04EC68FF-C98D-4D46-AE83-08D67BD50805";
paths = (
{
closed = 1;
nodes = (
"123 571 LINE",
"129 576 OFFCURVE",
"187 624 OFFCURVE",
"202 641 CURVE SMOOTH",
"212 651 OFFCURVE",
"215 660 OFFCURVE",
"215 669 CURVE SMOOTH",
"215 680 OFFCURVE",
"211 690 OFFCURVE",
"203 697 CURVE SMOOTH",
"196 704 OFFCURVE",
"186 707 OFFCURVE",
"177 707 CURVE SMOOTH",
"167 707 OFFCURVE",
"156 703 OFFCURVE",
"149 694 CURVE",
"131 675 OFFCURVE",
"61 581 OFFCURVE",
"53 571 CURVE"
);
}
);
width = 268;
}
);
unicode = 00B4;
},
{
glyphname = mu;
layers = (
{
layerId = "04EC68FF-C98D-4D46-AE83-08D67BD50805";
paths = (
{
closed = 1;
nodes = (
"70 -162 LINE",
"154 -162 LINE",
"154 41 LINE",
"179 8 OFFCURVE",
"212 -12 OFFCURVE",
"254 -12 CURVE SMOOTH",
"328 -12 OFFCURVE",
"356 24 OFFCURVE",
"384 72 CURVE",
"405 0 LINE",
"468 0 LINE",
"468 497 LINE",
"384 497 LINE",
"384 224 LINE SMOOTH",
"384 118 OFFCURVE",
"337 62 OFFCURVE",
"258 62 CURVE SMOOTH",
"172 62 OFFCURVE",
"154 120 OFFCURVE",
"154 191 CURVE SMOOTH",
"154 497 LINE",
"70 497 LINE"
);
}
);
width = 538;
}
);
leftMetricsKey = p;
rightMetricsKey = u;
unicode = 03BC;
},
{
glyphname = paragraph;
layers = (
{
layerId = "04EC68FF-C98D-4D46-AE83-08D67BD50805";
paths = (
{
closed = 1;
nodes = (
"187 -161 LINE",
"268 -161 LINE",
"268 601 LINE",
"362 601 LINE",
"362 -161 LINE",
"443 -161 LINE",
"443 601 LINE",
"483 601 LINE",
"483 668 LINE",
"227 668 LINE SMOOTH",
"123 668 OFFCURVE",
"38 583 OFFCURVE",
"38 479 CURVE SMOOTH",
"38 388 OFFCURVE",
"102 312 OFFCURVE",
"187 294 CURVE"
);
}
);
width = 508;
}
);
leftMetricsKey = q;
rightMetricsKey = f;
unicode = 00B6;
},
{
glyphname = periodcentered;
layers = (
{
layerId = "04EC68FF-C98D-4D46-AE83-08D67BD50805";
paths = (
{
closed = 1;
nodes = (
"153 183 OFFCURVE",
"182 212 OFFCURVE",
"182 248 CURVE SMOOTH",
"182 283 OFFCURVE",
"153 312 OFFCURVE",
"117 312 CURVE SMOOTH",
"82 312 OFFCURVE",
"53 283 OFFCURVE",
"53 248 CURVE SMOOTH",
"53 212 OFFCURVE",
"82 183 OFFCURVE",
"117 183 CURVE SMOOTH"
);
}
);
width = 235;
}
);
unicode = 00B7;
},
{
glyphname = cedilla;
layers = (
{
layerId = "04EC68FF-C98D-4D46-AE83-08D67BD50805";
paths = (
{
closed = 1;
nodes = (
"73 -161 LINE",
"107 -175 OFFCURVE",
"136 -181 OFFCURVE",
"161 -181 CURVE SMOOTH",
"226 -181 OFFCURVE",
"258 -140 OFFCURVE",
"258 -102 CURVE SMOOTH",
"258 -70 OFFCURVE",
"235 -41 OFFCURVE",
"189 -41 CURVE SMOOTH",
"180 -41 OFFCURVE",
"170 -43 OFFCURVE",
"159 -45 CURVE",
"189 4 LINE",
"155 25 LINE",
"104 -57 LINE SMOOTH",
"102 -60 OFFCURVE",
"101 -63 OFFCURVE",
"101 -67 CURVE SMOOTH",
"101 -79 OFFCURVE",
"111 -91 OFFCURVE",
"129 -86 CURVE SMOOTH",
"141 -83 OFFCURVE",
"151 -81 OFFCURVE",
"160 -81 CURVE SMOOTH",
"185 -81 OFFCURVE",
"196 -93 OFFCURVE",
"196 -106 CURVE SMOOTH",
"196 -122 OFFCURVE",
"179 -140 OFFCURVE",
"145 -140 CURVE SMOOTH",
"129 -140 OFFCURVE",
"110 -136 OFFCURVE",
"87 -126 CURVE"
);
}
);
width = 291;
}
);
unicode = 00B8;
},
{
glyphname = onesuperior;
layers = (
{
layerId = "04EC68FF-C98D-4D46-AE83-08D67BD50805";
paths = (
{
closed = 1;
nodes = (
"136 403 LINE",
"203 403 LINE",
"203 779 LINE",
"147 779 LINE",
"134 742 OFFCURVE",
"97 730 OFFCURVE",
"53 730 CURVE",
"53 683 LINE",
"136 683 LINE"
);
}
);
width = 256;
}
);
unicode = 00B9;
},
{
glyphname = ordmasculine;
layers = (
{
layerId = "04EC68FF-C98D-4D46-AE83-08D67BD50805";
paths = (
{
closed = 1;
nodes = (
"265 398 OFFCURVE",
"332 445 OFFCURVE",
"332 545 CURVE SMOOTH",
"332 645 OFFCURVE",
"265 692 OFFCURVE",
"194 692 CURVE SMOOTH",
"123 692 OFFCURVE",
"57 645 OFFCURVE",
"57 545 CURVE SMOOTH",
"57 445 OFFCURVE",
"123 398 OFFCURVE",
"194 398 CURVE SMOOTH"
);
},
{
closed = 1;
nodes = (
"155 452 OFFCURVE",
"126 485 OFFCURVE",
"126 545 CURVE SMOOTH",
"126 605 OFFCURVE",
"155 638 OFFCURVE",
"194 638 CURVE SMOOTH",
"234 638 OFFCURVE",
"263 605 OFFCURVE",
"263 545 CURVE SMOOTH",
"263 485 OFFCURVE",
"234 452 OFFCURVE",
"194 452 CURVE SMOOTH"
);
}
);
width = 381;
}
);
unicode = 00BA;
},
{
glyphname = guillemotright;
layers = (
{
layerId = "04EC68FF-C98D-4D46-AE83-08D67BD50805";
paths = (
{
closed = 1;
nodes = (
"262 40 LINE",
"361 40 LINE",
"509 251 LINE",
"361 461 LINE",
"262 461 LINE",
"411 251 LINE"
);
},
{
closed = 1;
nodes = (
"53 40 LINE",
"153 40 LINE",
"300 251 LINE",
"153 461 LINE",
"53 461 LINE",
"202 251 LINE"
);
}
);
width = 562;
}
);
leftKerningGroup = guilsinglright;
rightKerningGroup = guilsinglright_2;
unicode = 00BB;
},
{
glyphname = onequarter;
layers = (
{
layerId = "04EC68FF-C98D-4D46-AE83-08D67BD50805";
paths = (
{
closed = 1;
nodes = (
"115 0 LINE",
"204 0 LINE",
"671 668 LINE",
"583 668 LINE"
);
},
{
closed = 1;
nodes = (
"136 292 LINE",
"204 292 LINE",
"204 668 LINE",
"147 668 LINE",
"134 630 OFFCURVE",
"97 619 OFFCURVE",
"53 619 CURVE",
"53 571 LINE",
"136 571 LINE"
);
},
{
closed = 1;
nodes = (
"528 143 LINE",
"640 289 LINE",
"640 143 LINE"
);
},
{
closed = 1;
nodes = (
"455 86 LINE",
"640 86 LINE",
"640 0 LINE",
"708 0 LINE",
"708 86 LINE",
"773 86 LINE",
"773 143 LINE",
"708 143 LINE",
"708 376 LINE",
"641 376 LINE",
"455 140 LINE"
);
}
);
width = 826;
}
);
unicode = 00BC;
},
{
glyphname = onehalf;
layers = (
{
layerId = "04EC68FF-C98D-4D46-AE83-08D67BD50805";
paths = (
{
closed = 1;
nodes = (
"115 0 LINE",
"203 0 LINE",
"671 668 LINE",
"583 668 LINE"
);
},
{
closed = 1;
nodes = (
"136 292 LINE",
"203 292 LINE",
"203 668 LINE",
"147 668 LINE",
"134 630 OFFCURVE",
"97 619 OFFCURVE",
"53 619 CURVE",
"53 571 LINE",
"136 571 LINE"
);
},
{
closed = 1;
nodes = (
"484 0 LINE",
"759 0 LINE",
"759 58 LINE",
"565 58 LINE",
"682 137 OFFCURVE",
"751 208 OFFCURVE",
"751 283 CURVE SMOOTH",
"751 346 OFFCURVE",
"697 382 OFFCURVE",
"627 382 CURVE SMOOTH",
"558 382 OFFCURVE",
"510 347 OFFCURVE",
"495 292 CURVE",
"559 273 LINE",
"565 316 OFFCURVE",
"594 332 OFFCURVE",
"624 332 CURVE SMOOTH",
"658 332 OFFCURVE",
"681 313 OFFCURVE",
"681 278 CURVE SMOOTH",
"681 216 OFFCURVE",
"606 152 OFFCURVE",
"484 54 CURVE"
);
}
);
width = 812;
}
);
unicode = 00BD;
},
{
glyphname = threequarters;
layers = (
{
layerId = "04EC68FF-C98D-4D46-AE83-08D67BD50805";
paths = (
{
closed = 1;
nodes = (
"157 0 LINE",
"245 0 LINE",
"714 668 LINE",
"626 668 LINE"
);
},
{
closed = 1;
nodes = (
"53 380 LINE",
"70 329 OFFCURVE",
"116 291 OFFCURVE",
"187 291 CURVE SMOOTH",
"263 291 OFFCURVE",
"330 328 OFFCURVE",
"330 405 CURVE SMOOTH",
"330 443 OFFCURVE",
"309 480 OFFCURVE",
"268 495 CURVE",
"298 511 OFFCURVE",
"321 541 OFFCURVE",
"321 578 CURVE SMOOTH",
"321 649 OFFCURVE",
"256 680 OFFCURVE",
"194 680 CURVE SMOOTH",
"124 680 OFFCURVE",
"75 647 OFFCURVE",
"58 594 CURVE",
"119 576 LINE",
"129 609 OFFCURVE",
"152 629 OFFCURVE",
"190 629 CURVE SMOOTH",
"222 629 OFFCURVE",
"252 612 OFFCURVE",
"252 576 CURVE SMOOTH",
"252 514 OFFCURVE",
"178 519 OFFCURVE",
"151 519 CURVE",
"151 466 LINE",
"184 466 OFFCURVE",
"261 472 OFFCURVE",
"261 403 CURVE SMOOTH",
"261 365 OFFCURVE",
"229 342 OFFCURVE",
"188 342 CURVE SMOOTH",
"147 342 OFFCURVE",
"125 366 OFFCURVE",
"115 398 CURVE"
);
},
{
closed = 1;
nodes = (
"570 143 LINE",
"682 289 LINE",
"682 143 LINE"
);
},
{
closed = 1;
nodes = (
"497 86 LINE",
"682 86 LINE",
"682 0 LINE",
"751 0 LINE",
"751 86 LINE",
"815 86 LINE",
"815 143 LINE",
"751 143 LINE",
"751 376 LINE",
"683 376 LINE",
"497 140 LINE"
);
}
);
width = 868;
}
);
unicode = 00BE;
},
{
glyphname = less;
layers = (
{
layerId = "04EC68FF-C98D-4D46-AE83-08D67BD50805";
paths = (
{
closed = 1;
nodes = (
"40 213 LINE",
"513 0 LINE",
"513 90 LINE",
"145 248 LINE",
"513 406 LINE",
"513 496 LINE",
"40 283 LINE"
);
}
);
width = 553;
}
);
unicode = 003C;
},
{
glyphname = equal;
layers = (
{
layerId = "04EC68FF-C98D-4D46-AE83-08D67BD50805";
paths = (
{
closed = 1;
nodes = (
"53 307 LINE",
"549 307 LINE",
"549 386 LINE",
"53 386 LINE"
);
},
{
closed = 1;
nodes = (
"53 121 LINE",
"549 121 LINE",
"549 200 LINE",
"53 200 LINE"
);
}
);
width = 602;
}
);
unicode = 003D;
},
{
glyphname = greater;
layers = (
{
layerId = "04EC68FF-C98D-4D46-AE83-08D67BD50805";
paths = (
{
closed = 1;
nodes = (
"40 0 LINE",
"513 213 LINE",
"513 283 LINE",
"40 496 LINE",
"40 406 LINE",
"408 248 LINE",
"40 90 LINE"
);
}
);
width = 553;
}
);
unicode = 003E;
},
{
glyphname = question;
layers = (
{
layerId = "04EC68FF-C98D-4D46-AE83-08D67BD50805";
paths = (
{
closed = 1;
nodes = (
"182 190 LINE",
"268 190 LINE",
"268 224 LINE SMOOTH",
"268 275 OFFCURVE",
"288 291 OFFCURVE",
"345 328 CURVE SMOOTH",
"408 369 OFFCURVE",
"470 430 OFFCURVE",
"470 516 CURVE SMOOTH",
"470 629 OFFCURVE",
"365 680 OFFCURVE",
"261 680 CURVE SMOOTH",
"147 680 OFFCURVE",
"60 620 OFFCURVE",
"40 524 CURVE",
"122 501 LINE",
"131 553 OFFCURVE",
"167 610 OFFCURVE",
"257 610 CURVE SMOOTH",
"330 610 OFFCURVE",
"382 572 OFFCURVE",
"382 508 CURVE SMOOTH",
"382 454 OFFCURVE",
"344 417 OFFCURVE",
"296 387 CURVE SMOOTH",
"220 338 OFFCURVE",
"182 304 OFFCURVE",
"182 227 CURVE SMOOTH"
);
},
{
closed = 1;
nodes = (
"162 14 OFFCURVE",
"194 -12 OFFCURVE",
"227 -12 CURVE SMOOTH",
"236 -12 OFFCURVE",
"244 -10 OFFCURVE",
"252 -7 CURVE SMOOTH",
"276 4 OFFCURVE",
"291 27 OFFCURVE",
"291 52 CURVE SMOOTH",
"291 87 OFFCURVE",
"263 117 OFFCURVE",
"227 117 CURVE SMOOTH",
"191 117 OFFCURVE",
"162 88 OFFCURVE",
"162 52 CURVE SMOOTH"
);
}
);
width = 520;
}
);
unicode = 003F;
},
{
glyphname = at;
layers = (
{
layerId = "04EC68FF-C98D-4D46-AE83-08D67BD50805";
paths = (
{
closed = 1;
nodes = (
"532 85 LINE",
"489 61 OFFCURVE",
"442 49 OFFCURVE",
"396 49 CURVE SMOOTH",
"250 49 OFFCURVE",
"112 165 OFFCURVE",
"112 335 CURVE SMOOTH",
"112 492 OFFCURVE",
"240 618 OFFCURVE",
"396 618 CURVE SMOOTH",
"547 618 OFFCURVE",
"668 502 OFFCURVE",
"668 366 CURVE SMOOTH",
"668 342 OFFCURVE",
"664 318 OFFCURVE",
"656 293 CURVE SMOOTH",
"642 251 OFFCURVE",
"605 229 OFFCURVE",
"575 229 CURVE SMOOTH",
"551 229 OFFCURVE",
"532 244 OFFCURVE",
"532 273 CURVE SMOOTH",
"532 499 LINE",
"495 511 OFFCURVE",
"453 519 OFFCURVE",
"413 519 CURVE SMOOTH",
"313 519 OFFCURVE",
"218 470 OFFCURVE",
"218 318 CURVE SMOOTH",
"218 211 OFFCURVE",
"286 155 OFFCURVE",
"357 155 CURVE SMOOTH",
"398 155 OFFCURVE",
"441 174 OFFCURVE",
"473 213 CURVE",
"486 178 OFFCURVE",
"529 155 OFFCURVE",
"575 155 CURVE SMOOTH",
"648 155 OFFCURVE",
"730 211 OFFCURVE",
"730 366 CURVE SMOOTH",
"730 567 OFFCURVE",
"547 680 OFFCURVE",
"396 680 CURVE SMOOTH",
"205 680 OFFCURVE",
"50 525 OFFCURVE",
"50 335 CURVE SMOOTH",
"50 127 OFFCURVE",
"221 -12 OFFCURVE",
"398 -12 CURVE SMOOTH",
"443 -12 OFFCURVE",
"489 -3 OFFCURVE",
"532 16 CURVE"
);
},
{
closed = 1;
nodes = (
"451 338 LINE SMOOTH",
"451 266 OFFCURVE",
"408 229 OFFCURVE",
"369 229 CURVE SMOOTH",
"334 229 OFFCURVE",
"302 256 OFFCURVE",
"302 313 CURVE SMOOTH",
"302 423 OFFCURVE",
"356 445 OFFCURVE",
"406 445 CURVE SMOOTH",
"422 445 OFFCURVE",
"437 443 OFFCURVE",
"451 441 CURVE"
);
}
);
width = 780;
}
);
leftMetricsKey = O;
rightMetricsKey = O;
unicode = 0040;
},
{
glyphname = colon;
layers = (
{
layerId = "04EC68FF-C98D-4D46-AE83-08D67BD50805";
paths = (
{
closed = 1;
nodes = (
"138 375 OFFCURVE",
"167 404 OFFCURVE",
"167 440 CURVE SMOOTH",
"167 475 OFFCURVE",
"138 504 OFFCURVE",
"102 504 CURVE SMOOTH",
"67 504 OFFCURVE",
"38 475 OFFCURVE",
"38 440 CURVE SMOOTH",
"38 404 OFFCURVE",
"67 375 OFFCURVE",
"102 375 CURVE SMOOTH"
);
},
{
closed = 1;
nodes = (
"138 -12 OFFCURVE",
"167 17 OFFCURVE",
"167 52 CURVE SMOOTH",
"167 88 OFFCURVE",
"138 117 OFFCURVE",
"102 117 CURVE SMOOTH",
"67 117 OFFCURVE",
"38 88 OFFCURVE",
"38 52 CURVE SMOOTH",
"38 17 OFFCURVE",
"67 -12 OFFCURVE",
"102 -12 CURVE SMOOTH"
);
}
);
width = 205;
}
);
leftKerningGroup = colon;
leftMetricsKey = o;
rightKerningGroup = colon_2;
rightMetricsKey = o;
unicode = 003A;
},
{
glyphname = semicolon;
layers = (
{
layerId = "04EC68FF-C98D-4D46-AE83-08D67BD50805";
paths = (
{
closed = 1;
nodes = (
"45 -133 LINE",
"100 -133 LINE",
"162 28 LINE SMOOTH",
"165 36 OFFCURVE",
"167 45 OFFCURVE",
"167 53 CURVE SMOOTH",
"167 87 OFFCURVE",
"138 117 OFFCURVE",
"102 117 CURVE SMOOTH",
"67 117 OFFCURVE",
"38 88 OFFCURVE",
"38 53 CURVE SMOOTH",
"38 21 OFFCURVE",
"61 -6 OFFCURVE",
"92 -11 CURVE"
);
},
{
closed = 1;
nodes = (
"138 375 OFFCURVE",
"167 404 OFFCURVE",
"167 440 CURVE SMOOTH",
"167 475 OFFCURVE",
"138 504 OFFCURVE",
"102 504 CURVE SMOOTH",
"67 504 OFFCURVE",
"38 475 OFFCURVE",
"38 440 CURVE SMOOTH",
"38 404 OFFCURVE",
"67 375 OFFCURVE",
"102 375 CURVE SMOOTH"
);
}
);
width = 205;
}
);
leftKerningGroup = colon;
leftMetricsKey = o;
rightKerningGroup = colon_2;
rightMetricsKey = o;
unicode = 003B;
},
{
glyphname = bracketleft;
layers = (
{
layerId = "04EC68FF-C98D-4D46-AE83-08D67BD50805";
paths = (
{
closed = 1;
nodes = (
"76 -161 LINE",
"282 -161 LINE",
"282 -87 LINE",
"157 -87 LINE",
"157 594 LINE",
"282 594 LINE",
"282 668 LINE",
"76 668 LINE"
);
}
);
width = 315;
}
);
leftMetricsKey = N;
unicode = 005B;
},
{
glyphname = backslash;
layers = (
{
layerId = "04EC68FF-C98D-4D46-AE83-08D67BD50805";
paths = (
{
closed = 1;
nodes = (
"275 0 LINE",
"362 0 LINE",
"102 668 LINE",
"15 668 LINE"
);
}
);
width = 377;
}
);
unicode = 005C;
},
{
glyphname = bracketright;
layers = (
{
layerId = "04EC68FF-C98D-4D46-AE83-08D67BD50805";
paths = (
{
closed = 1;
nodes = (
"33 -161 LINE",
"239 -161 LINE",
"239 668 LINE",
"33 668 LINE",
"33 594 LINE",
"158 594 LINE",
"158 -87 LINE",
"33 -87 LINE"
);
}
);
width = 315;
}
);
rightMetricsKey = N;
unicode = 005D;
},
{
glyphname = asciicircum;
layers = (
{
layerId = "04EC68FF-C98D-4D46-AE83-08D67BD50805";
paths = (
{
closed = 1;
nodes = (
"53 311 LINE",
"142 311 LINE",
"276 569 LINE",
"410 311 LINE",
"499 311 LINE",
"314 668 LINE",
"238 668 LINE"
);
}
);
width = 552;
}
);
unicode = 005E;
},
{
glyphname = underscore;
layers = (
{
layerId = "04EC68FF-C98D-4D46-AE83-08D67BD50805";
paths = (
{
closed = 1;
nodes = (
"10 -79 LINE",
"386 -79 LINE",
"386 0 LINE",
"10 0 LINE"
);
}
);
width = 396;
}
);
unicode = 005F;
},
{
glyphname = grave;
layers = (
{
layerId = "04EC68FF-C98D-4D46-AE83-08D67BD50805";
paths = (
{
closed = 1;
nodes = (
"215 571 LINE",
"122 692 LINE SMOOTH",
"113 704 OFFCURVE",
"102 707 OFFCURVE",
"91 707 CURVE SMOOTH",
"70 707 OFFCURVE",
"53 690 OFFCURVE",
"53 669 CURVE SMOOTH",
"53 660 OFFCURVE",
"56 651 OFFCURVE",
"70 636 CURVE SMOOTH",
"88 617 OFFCURVE",
"119 592 OFFCURVE",
"145 571 CURVE"
);
}
);
width = 268;
}
);
unicode = 0060;
},
{
glyphname = exclam;
layers = (
{
layerId = "04EC68FF-C98D-4D46-AE83-08D67BD50805";
paths = (
{
closed = 1;
nodes = (
"114 195 LINE",
"167 195 LINE",
"185 496 LINE",
"185 668 LINE",
"96 668 LINE",
"96 496 LINE"
);
},
{
closed = 1;
nodes = (
"176 -12 OFFCURVE",
"205 17 OFFCURVE",
"205 52 CURVE SMOOTH",
"205 88 OFFCURVE",
"176 117 OFFCURVE",
"140 117 CURVE SMOOTH",
"105 117 OFFCURVE",
"76 88 OFFCURVE",
"76 52 CURVE SMOOTH",
"76 17 OFFCURVE",
"105 -12 OFFCURVE",
"140 -12 CURVE SMOOTH"
);
}
);
width = 281;
}
);
leftMetricsKey = N;
rightMetricsKey = N;
unicode = 0021;
},
{
glyphname = quotedbl;
layers = (
{
layerId = "04EC68FF-C98D-4D46-AE83-08D67BD50805";
paths = (
{
closed = 1;
nodes = (
"195 447 LINE",
"247 447 LINE",
"261 668 LINE",
"181 668 LINE"
);
},
{
closed = 1;
nodes = (
"54 447 LINE",
"106 447 LINE",
"120 668 LINE",
"40 668 LINE"
);
}
);
width = 301;
}
);
leftKerningGroup = quotesingle;
rightKerningGroup = quotesingle_2;
unicode = 0022;
},
{
glyphname = numbersign;
layers = (
{
layerId = "04EC68FF-C98D-4D46-AE83-08D67BD50805";
paths = (
{
closed = 1;
nodes = (
"137 0 LINE",
"219 0 LINE",
"243 172 LINE",
"366 172 LINE",
"342 0 LINE",
"424 0 LINE",
"448 172 LINE",
"572 172 LINE",
"583 253 LINE",
"460 253 LINE",
"482 415 LINE",
"606 415 LINE",
"617 496 LINE",
"494 496 LINE",
"518 668 LINE",
"436 668 LINE",
"412 496 LINE",
"289 496 LINE",
"313 668 LINE",
"231 668 LINE",
"207 496 LINE",
"83 496 LINE",
"72 415 LINE",
"196 415 LINE",
"173 253 LINE",
"49 253 LINE",
"38 172 LINE",
"162 172 LINE"
);
},
{
closed = 1;
nodes = (
"255 253 LINE",
"277 415 LINE",
"400 415 LINE",
"378 253 LINE"
);
}
);
width = 655;
}
);
leftMetricsKey = o;
rightMetricsKey = o;
unicode = 0023;
},
{
glyphname = dollar;
layers = (
{
layerId = "04EC68FF-C98D-4D46-AE83-08D67BD50805";
paths = (
{
closed = 1;
nodes = (
"267 -87 LINE",
"317 -87 LINE",
"317 -12 LINE",
"443 -6 OFFCURVE",
"554 63 OFFCURVE",
"554 188 CURVE SMOOTH",
"554 323 OFFCURVE",
"431 357 OFFCURVE",
"329 383 CURVE SMOOTH",
"317 386 LINE",
"317 599 LINE",
"364 593 OFFCURVE",
"411 573 OFFCURVE",
"437 530 CURVE",
"523 555 LINE",
"485 634 OFFCURVE",
"406 672 OFFCURVE",
"317 679 CURVE",
"317 742 LINE",
"267 742 LINE",
"267 679 LINE",
"164 672 OFFCURVE",
"47 616 OFFCURVE",
"47 498 CURVE SMOOTH",
"47 386 OFFCURVE",
"139 333 OFFCURVE",
"231 315 CURVE SMOOTH",
"267 308 LINE",
"267 69 LINE",
"197 78 OFFCURVE",
"150 112 OFFCURVE",
"127 172 CURVE",
"40 146 LINE",
"73 57 OFFCURVE",
"152 -1 OFFCURVE",
"267 -11 CURVE"
);
},
{
closed = 1;
nodes = (
"317 297 LINE",
"399 278 OFFCURVE",
"457 249 OFFCURVE",
"457 180 CURVE SMOOTH",
"457 118 OFFCURVE",
"406 73 OFFCURVE",
"317 68 CURVE"
);
},
{
closed = 1;
nodes = (
"267 398 LINE",
"252 401 LINE SMOOTH",
"190 413 OFFCURVE",
"143 444 OFFCURVE",
"143 503 CURVE SMOOTH",
"143 570 OFFCURVE",
"215 595 OFFCURVE",
"267 600 CURVE"
);
}
);
width = 594;
}
);
leftMetricsKey = S;
rightMetricsKey = S;
unicode = 0024;
},
{
glyphname = percent;
layers = (
{
layerId = "04EC68FF-C98D-4D46-AE83-08D67BD50805";
paths = (
{
closed = 1;
nodes = (
"186 0 LINE",
"274 0 LINE",
"742 668 LINE",
"654 668 LINE"
);
},
{
closed = 1;
nodes = (
"38 398 OFFCURVE",
"119 317 OFFCURVE",
"220 317 CURVE SMOOTH",
"320 317 OFFCURVE",
"401 398 OFFCURVE",
"401 498 CURVE SMOOTH",
"401 599 OFFCURVE",
"320 680 OFFCURVE",
"220 680 CURVE SMOOTH",
"119 680 OFFCURVE",
"38 599 OFFCURVE",
"38 498 CURVE SMOOTH"
);
},
{
closed = 1;
nodes = (
"112 558 OFFCURVE",
"160 606 OFFCURVE",
"220 606 CURVE SMOOTH",
"279 606 OFFCURVE",
"327 558 OFFCURVE",
"327 498 CURVE SMOOTH",
"327 439 OFFCURVE",
"279 391 OFFCURVE",
"220 391 CURVE SMOOTH",
"161 391 OFFCURVE",
"112 439 OFFCURVE",
"112 498 CURVE SMOOTH"
);
},
{
closed = 1;
nodes = (
"808 -12 OFFCURVE",
"889 69 OFFCURVE",
"889 170 CURVE SMOOTH",
"889 270 OFFCURVE",
"808 352 OFFCURVE",
"708 352 CURVE SMOOTH",
"607 352 OFFCURVE",
"526 270 OFFCURVE",
"526 170 CURVE SMOOTH",
"526 69 OFFCURVE",
"607 -12 OFFCURVE",
"708 -12 CURVE SMOOTH"
);
},
{
closed = 1;
nodes = (
"648 62 OFFCURVE",
"600 111 OFFCURVE",
"600 170 CURVE SMOOTH",
"600 229 OFFCURVE",
"648 277 OFFCURVE",
"708 277 CURVE SMOOTH",
"767 277 OFFCURVE",
"815 229 OFFCURVE",
"815 170 CURVE SMOOTH",
"815 111 OFFCURVE",
"767 62 OFFCURVE",
"708 62 CURVE SMOOTH"
);
}
);
width = 927;
}
);
leftKerningGroup = percent;
leftMetricsKey = o;
rightMetricsKey = o;
unicode = 0025;
},
{
glyphname = ampersand;
layers = (
{
layerId = "04EC68FF-C98D-4D46-AE83-08D67BD50805";
paths = (
{
closed = 1;
nodes = (
"351 363 LINE",
"433 397 OFFCURVE",
"491 452 OFFCURVE",
"491 536 CURVE SMOOTH",
"491 644 OFFCURVE",
"399 680 OFFCURVE",
"317 680 CURVE SMOOTH",
"211 680 OFFCURVE",
"135 625 OFFCURVE",
"135 538 CURVE SMOOTH",
"135 486 OFFCURVE",
"164 438 OFFCURVE",
"209 387 CURVE",
"106 352 OFFCURVE",
"38 285 OFFCURVE",
"38 183 CURVE SMOOTH",
"38 73 OFFCURVE",
"124 -12 OFFCURVE",
"263 -12 CURVE SMOOTH",
"359 -12 OFFCURVE",
"436 26 OFFCURVE",
"494 87 CURVE",
"576 0 LINE",
"695 0 LINE",
"546 157 LINE",
"582 217 OFFCURVE",
"602 289 OFFCURVE",
"608 361 CURVE",
"521 361 LINE",
"517 307 OFFCURVE",
"504 260 OFFCURVE",
"487 219 CURVE"
);
},
{
closed = 1;
nodes = (
"440 143 LINE",
"394 91 OFFCURVE",
"333 62 OFFCURVE",
"263 62 CURVE SMOOTH",
"192 62 OFFCURVE",
"128 110 OFFCURVE",
"128 187 CURVE SMOOTH",
"128 261 OFFCURVE",
"179 306 OFFCURVE",
"259 334 CURVE"
);
},
{
closed = 1;
nodes = (
"289 428 OFFCURVE",
"225 485 OFFCURVE",
"225 540 CURVE SMOOTH",
"225 585 OFFCURVE",
"270 606 OFFCURVE",
"319 606 CURVE SMOOTH",
"368 606 OFFCURVE",
"409 585 OFFCURVE",
"409 531 CURVE SMOOTH",
"409 478 OFFCURVE",
"365 439 OFFCURVE",
"300 415 CURVE"
);
}
);
width = 705;
}
);
leftMetricsKey = c;
rightMetricsKey = k;
unicode = 0026;
},
{
glyphname = quotesingle;
layers = (
{
layerId = "04EC68FF-C98D-4D46-AE83-08D67BD50805";
paths = (
{
closed = 1;
nodes = (
"54 447 LINE",
"106 447 LINE",
"120 668 LINE",
"40 668 LINE"
);
}
);
width = 160;
}
);
leftKerningGroup = quotesingle;
rightKerningGroup = quotesingle_2;
unicode = 0027;
},
{
glyphname = parenleft;
layers = (
{
layerId = "04EC68FF-C98D-4D46-AE83-08D67BD50805";
paths = (
{
closed = 1;
nodes = (
"265 -161 LINE",
"164 -24 OFFCURVE",
"124 132 OFFCURVE",
"124 278 CURVE SMOOTH",
"124 432 OFFCURVE",
"169 574 OFFCURVE",
"235 668 CURVE",
"160 668 LINE",
"86 551 OFFCURVE",
"50 416 OFFCURVE",
"50 280 CURVE SMOOTH",
"50 125 OFFCURVE",
"97 -31 OFFCURVE",
"189 -161 CURVE"
);
}
);
width = 300;
}
);
leftMetricsKey = O;
unicode = 0028;
},
{
glyphname = parenright;
layers = (
{
layerId = "04EC68FF-C98D-4D46-AE83-08D67BD50805";
paths = (
{
closed = 1;
nodes = (
"112 -161 LINE",
"203 -31 OFFCURVE",
"250 125 OFFCURVE",
"250 281 CURVE SMOOTH",
"250 416 OFFCURVE",
"215 551 OFFCURVE",
"141 668 CURVE",
"66 668 LINE",
"132 574 OFFCURVE",
"177 432 OFFCURVE",
"177 279 CURVE SMOOTH",
"177 133 OFFCURVE",
"136 -24 OFFCURVE",
"35 -161 CURVE"
);
}
);
width = 300;
}
);
rightMetricsKey = O;
unicode = 0029;
},
{
glyphname = asterisk;
layers = (
{
layerId = "04EC68FF-C98D-4D46-AE83-08D67BD50805";
paths = (
{
closed = 1;
nodes = (
"107 422 LINE",
"153 388 LINE",
"215 474 LINE",
"278 388 LINE",
"324 422 LINE",
"261 508 LINE",
"363 540 LINE",
"345 595 LINE",
"244 562 LINE",
"244 668 LINE",
"187 668 LINE",
"187 562 LINE",
"86 595 LINE",
"68 540 LINE",
"169 508 LINE"
);
}
);
width = 433;
}
);
leftMetricsKey = u;
rightMetricsKey = u;
unicode = 002A;
},
{
glyphname = plus;
layers = (
{
layerId = "04EC68FF-C98D-4D46-AE83-08D67BD50805";
paths = (
{
closed = 1;
nodes = (
"53 208 LINE",
"261 208 LINE",
"261 0 LINE",
"341 0 LINE",
"341 208 LINE",
"549 208 LINE",
"549 288 LINE",
"341 288 LINE",
"341 496 LINE",
"261 496 LINE",
"261 288 LINE",
"53 288 LINE"
);
}
);
width = 602;
}
);
unicode = 002B;
},
{
glyphname = comma;
layers = (
{
layerId = "04EC68FF-C98D-4D46-AE83-08D67BD50805";
paths = (
{
closed = 1;
nodes = (
"45 -133 LINE",
"100 -133 LINE",
"162 28 LINE SMOOTH",
"165 36 OFFCURVE",
"167 45 OFFCURVE",
"167 53 CURVE SMOOTH",
"167 87 OFFCURVE",
"138 117 OFFCURVE",
"102 117 CURVE SMOOTH",
"67 117 OFFCURVE",
"38 88 OFFCURVE",
"38 53 CURVE SMOOTH",
"38 21 OFFCURVE",
"61 -6 OFFCURVE",
"92 -11 CURVE"
);
}
);
width = 205;
}
);
leftKerningGroup = period;
leftMetricsKey = o;
rightKerningGroup = period_2;
rightMetricsKey = o;
unicode = 002C;
},
{
glyphname = hyphen;
layers = (
{
layerId = "04EC68FF-C98D-4D46-AE83-08D67BD50805";
paths = (
{
closed = 1;
nodes = (
"38 208 LINE",
"330 208 LINE",
"330 289 LINE",
"38 289 LINE"
);
}
);
width = 368;
}
);
leftKerningGroup = hyphen;
leftMetricsKey = o;
rightKerningGroup = hyphen_2;
rightMetricsKey = o;
unicode = 002D;
},
{
glyphname = period;
layers = (
{
layerId = "04EC68FF-C98D-4D46-AE83-08D67BD50805";
paths = (
{
closed = 1;
nodes = (
"138 -12 OFFCURVE",
"167 17 OFFCURVE",
"167 52 CURVE SMOOTH",
"167 88 OFFCURVE",
"138 117 OFFCURVE",
"102 117 CURVE SMOOTH",
"67 117 OFFCURVE",
"38 88 OFFCURVE",
"38 52 CURVE SMOOTH",
"38 17 OFFCURVE",
"67 -12 OFFCURVE",
"102 -12 CURVE SMOOTH"
);
}
);
width = 205;
}
);
leftKerningGroup = period;
leftMetricsKey = o;
rightKerningGroup = period_2;
rightMetricsKey = o;
unicode = 002E;
},
{
glyphname = slash;
layers = (
{
layerId = "04EC68FF-C98D-4D46-AE83-08D67BD50805";
paths = (
{
closed = 1;
nodes = (
"15 0 LINE",
"102 0 LINE",
"362 668 LINE",
"275 668 LINE"
);
}
);
width = 377;
}
);
unicode = 002F;
},
{
glyphname = braceleft;
layers = (
{
layerId = "04EC68FF-C98D-4D46-AE83-08D67BD50805";
paths = (
{
closed = 1;
nodes = (
"285 -161 LINE",
"285 -90 LINE",
"243 -90 LINE SMOOTH",
"199 -90 OFFCURVE",
"192 -78 OFFCURVE",
"192 -26 CURVE SMOOTH",
"192 127 LINE SMOOTH",
"192 212 OFFCURVE",
"161 240 OFFCURVE",
"113 253 CURVE",
"161 266 OFFCURVE",
"192 296 OFFCURVE",
"192 380 CURVE SMOOTH",
"192 533 LINE SMOOTH",
"192 584 OFFCURVE",
"199 597 OFFCURVE",
"243 597 CURVE SMOOTH",
"285 597 LINE",
"285 668 LINE",
"242 668 LINE SMOOTH",
"130 668 OFFCURVE",
"108 635 OFFCURVE",
"108 532 CURVE SMOOTH",
"108 382 LINE SMOOTH",
"108 325 OFFCURVE",
"100 287 OFFCURVE",
"38 287 CURVE",
"38 220 LINE",
"100 220 OFFCURVE",
"108 182 OFFCURVE",
"108 125 CURVE SMOOTH",
"108 -25 LINE SMOOTH",
"108 -128 OFFCURVE",
"130 -161 OFFCURVE",
"242 -161 CURVE SMOOTH"
);
}
);
width = 319;
}
);
leftMetricsKey = o;
unicode = 007B;
},
{
glyphname = bar;
layers = (
{
layerId = "04EC68FF-C98D-4D46-AE83-08D67BD50805";
paths = (
{
closed = 1;
nodes = (
"76 -161 LINE",
"157 -161 LINE",
"157 668 LINE",
"76 668 LINE"
);
}
);
width = 233;
}
);
leftMetricsKey = N;
rightMetricsKey = N;
unicode = 007C;
},
{
glyphname = braceright;
layers = (
{
layerId = "04EC68FF-C98D-4D46-AE83-08D67BD50805";
paths = (
{
closed = 1;
nodes = (
"34 -161 LINE",
"77 -161 LINE SMOOTH",
"189 -161 OFFCURVE",
"211 -128 OFFCURVE",
"211 -25 CURVE SMOOTH",
"211 125 LINE SMOOTH",
"211 182 OFFCURVE",
"219 220 OFFCURVE",
"281 220 CURVE",
"281 287 LINE",
"219 287 OFFCURVE",
"211 325 OFFCURVE",
"211 382 CURVE SMOOTH",
"211 532 LINE SMOOTH",
"211 635 OFFCURVE",
"189 668 OFFCURVE",
"77 668 CURVE SMOOTH",
"34 668 LINE",
"34 597 LINE",
"75 597 LINE SMOOTH",
"120 597 OFFCURVE",
"127 584 OFFCURVE",
"127 533 CURVE SMOOTH",
"127 380 LINE SMOOTH",
"127 296 OFFCURVE",
"158 266 OFFCURVE",
"205 253 CURVE",
"158 240 OFFCURVE",
"127 212 OFFCURVE",
"127 127 CURVE SMOOTH",
"127 -26 LINE SMOOTH",
"127 -78 OFFCURVE",
"120 -90 OFFCURVE",
"75 -90 CURVE SMOOTH",
"34 -90 LINE"
);
}
);
width = 319;
}
);
rightMetricsKey = o;
unicode = 007D;
},
{
glyphname = asciitilde;
layers = (
{
layerId = "04EC68FF-C98D-4D46-AE83-08D67BD50805";
paths = (
{
closed = 1;
nodes = (
"115 199 LINE",
"121 232 OFFCURVE",
"146 249 OFFCURVE",
"179 249 CURVE SMOOTH",
"239 249 OFFCURVE",
"307 195 OFFCURVE",
"379 195 CURVE SMOOTH",
"450 195 OFFCURVE",
"500 236 OFFCURVE",
"515 297 CURVE",
"441 319 LINE",
"434 285 OFFCURVE",
"409 268 OFFCURVE",
"378 268 CURVE SMOOTH",
"325 268 OFFCURVE",
"260 323 OFFCURVE",
"177 323 CURVE SMOOTH",
"105 323 OFFCURVE",
"55 282 OFFCURVE",
"40 221 CURVE"
);
}
);
width = 555;
}
);
unicode = 007E;
},
{
glyphname = exclamdown;
layers = (
{
layerId = "04EC68FF-C98D-4D46-AE83-08D67BD50805";
paths = (
{
closed = 1;
nodes = (
"96 -161 LINE",
"185 -161 LINE",
"185 11 LINE",
"167 311 LINE",
"114 311 LINE",
"96 11 LINE"
);
},
{
closed = 1;
nodes = (
"176 390 OFFCURVE",
"205 419 OFFCURVE",
"205 454 CURVE SMOOTH",
"205 490 OFFCURVE",
"176 519 OFFCURVE",
"140 519 CURVE SMOOTH",
"105 519 OFFCURVE",
"76 490 OFFCURVE",
"76 454 CURVE SMOOTH",
"76 419 OFFCURVE",
"105 390 OFFCURVE",
"140 390 CURVE SMOOTH"
);
}
);
width = 281;
}
);
leftMetricsKey = exclam;
rightMetricsKey = exclam;
unicode = 00A1;
},
{
glyphname = cent;
layers = (
{
layerId = "04EC68FF-C98D-4D46-AE83-08D67BD50805";
paths = (
{
closed = 1;
nodes = (
"236 -87 LINE",
"286 -87 LINE",
"286 -12 LINE",
"367 -6 OFFCURVE",
"433 39 OFFCURVE",
"467 99 CURVE",
"390 127 LINE",
"370 93 OFFCURVE",
"334 67 OFFCURVE",
"286 62 CURVE",
"286 430 LINE",
"331 425 OFFCURVE",
"368 401 OFFCURVE",
"388 365 CURVE",
"465 393 LINE",
"434 451 OFFCURVE",
"372 501 OFFCURVE",
"286 504 CURVE",
"286 571 LINE",
"236 571 LINE",
"236 501 LINE",
"114 482 OFFCURVE",
"38 380 OFFCURVE",
"38 247 CURVE SMOOTH",
"38 108 OFFCURVE",
"113 6 OFFCURVE",
"236 -10 CURVE"
);
},
{
closed = 1;
nodes = (
"236 67 LINE",
"177 84 OFFCURVE",
"129 143 OFFCURVE",
"129 248 CURVE SMOOTH",
"129 352 OFFCURVE",
"177 409 OFFCURVE",
"236 425 CURVE"
);
}
);
width = 500;
}
);
leftMetricsKey = c;
rightMetricsKey = c;
unicode = 00A2;
},
{
glyphname = sterling;
layers = (
{
layerId = "04EC68FF-C98D-4D46-AE83-08D67BD50805";
paths = (
{
closed = 1;
nodes = (
"101 -12 LINE",
"156 16 OFFCURVE",
"199 26 OFFCURVE",
"235 26 CURVE SMOOTH",
"308 26 OFFCURVE",
"356 -12 OFFCURVE",
"431 -12 CURVE SMOOTH",
"466 -12 OFFCURVE",
"506 -4 OFFCURVE",
"556 18 CURVE",
"531 91 LINE",
"487 72 OFFCURVE",
"452 66 OFFCURVE",
"422 66 CURVE SMOOTH",
"353 66 OFFCURVE",
"313 102 OFFCURVE",
"254 102 CURVE SMOOTH",
"236 102 OFFCURVE",
"217 99 OFFCURVE",
"194 90 CURVE",
"248 122 OFFCURVE",
"290 171 OFFCURVE",
"290 238 CURVE SMOOTH",
"290 262 OFFCURVE",
"285 289 OFFCURVE",
"272 318 CURVE",
"453 318 LINE",
"453 369 LINE",
"249 369 LINE",
"226 415 OFFCURVE",
"201 460 OFFCURVE",
"201 508 CURVE SMOOTH",
"201 585 OFFCURVE",
"272 609 OFFCURVE",
"329 609 CURVE SMOOTH",
"391 609 OFFCURVE",
"445 585 OFFCURVE",
"463 516 CURVE",
"546 541 LINE",
"520 626 OFFCURVE",
"445 680 OFFCURVE",
"333 680 CURVE SMOOTH",
"227 680 OFFCURVE",
"112 634 OFFCURVE",
"112 511 CURVE SMOOTH",
"112 459 OFFCURVE",
"134 414 OFFCURVE",
"156 369 CURVE",
"70 369 LINE",
"70 318 LINE",
"179 318 LINE",
"195 284 OFFCURVE",
"202 253 OFFCURVE",
"202 226 CURVE SMOOTH",
"202 125 OFFCURVE",
"110 70 OFFCURVE",
"73 55 CURVE"
);
}
);
width = 586;
}
);
leftMetricsKey = l;
rightMetricsKey = R;
unicode = 00A3;
},
{
glyphname = currency;
layers = (
{
layerId = "04EC68FF-C98D-4D46-AE83-08D67BD50805";
paths = (
{
closed = 1;
nodes = (
"53 119 LINE",
"89 84 LINE",
"155 149 LINE",
"195 118 OFFCURVE",
"242 103 OFFCURVE",
"290 103 CURVE SMOOTH",
"338 103 OFFCURVE",
"386 118 OFFCURVE",
"425 149 CURVE",
"491 84 LINE",
"527 119 LINE",
"461 185 LINE",
"493 225 OFFCURVE",
"508 273 OFFCURVE",
"508 321 CURVE SMOOTH",
"508 369 OFFCURVE",
"493 417 OFFCURVE",
"461 456 CURVE",
"527 522 LINE",
"491 558 LINE",
"425 492 LINE",
"386 524 OFFCURVE",
"338 539 OFFCURVE",
"290 539 CURVE SMOOTH",
"242 539 OFFCURVE",
"195 524 OFFCURVE",
"155 492 CURVE",
"89 558 LINE",
"53 522 LINE",
"119 456 LINE",
"88 417 OFFCURVE",
"72 369 OFFCURVE",
"72 321 CURVE SMOOTH",
"72 273 OFFCURVE",
"88 225 OFFCURVE",
"119 185 CURVE"
);
},
{
closed = 1;
nodes = (
"211 178 OFFCURVE",
"148 242 OFFCURVE",
"148 321 CURVE SMOOTH",
"148 399 OFFCURVE",
"211 463 OFFCURVE",
"290 463 CURVE SMOOTH",
"369 463 OFFCURVE",
"432 399 OFFCURVE",
"432 321 CURVE SMOOTH",
"432 242 OFFCURVE",
"369 178 OFFCURVE",
"290 178 CURVE SMOOTH"
);
}
);
width = 580;
}
);
unicode = 00A4;
},
{
glyphname = yen;
layers = (
{
layerId = "04EC68FF-C98D-4D46-AE83-08D67BD50805";
paths = (
{
closed = 1;
nodes = (
"101 86 LINE",
"251 86 LINE",
"251 0 LINE",
"345 0 LINE",
"345 86 LINE",
"494 86 LINE",
"494 137 LINE",
"345 137 LINE",
"345 223 LINE",
"494 223 LINE",
"494 274 LINE",
"353 274 LINE",
"585 668 LINE",
"482 668 LINE",
"298 345 LINE",
"113 668 LINE",
"10 668 LINE",
"242 274 LINE",
"101 274 LINE",
"101 223 LINE",
"251 223 LINE",
"251 137 LINE",
"101 137 LINE"
);
}
);
width = 595;
}
);
leftMetricsKey = Y;
rightMetricsKey = Y;
unicode = 00A5;
},
{
glyphname = brokenbar;
layers = (
{
layerId = "04EC68FF-C98D-4D46-AE83-08D67BD50805";
paths = (
{
closed = 1;
nodes = (
"76 358 LINE",
"157 358 LINE",
"157 668 LINE",
"76 668 LINE"
);
},
{
closed = 1;
nodes = (
"76 -161 LINE",
"157 -161 LINE",
"157 149 LINE",
"76 149 LINE"
);
}
);
width = 233;
}
);
leftMetricsKey = N;
rightMetricsKey = N;
unicode = 00A6;
},
{
glyphname = section;
layers = (
{
layerId = "04EC68FF-C98D-4D46-AE83-08D67BD50805";
paths = (
{
closed = 1;
nodes = (
"67 -44 LINE",
"91 -125 OFFCURVE",
"162 -173 OFFCURVE",
"261 -173 CURVE SMOOTH",
"363 -173 OFFCURVE",
"449 -122 OFFCURVE",
"449 -23 CURVE SMOOTH",
"449 28 OFFCURVE",
"424 61 OFFCURVE",
"385 91 CURVE",
"448 118 OFFCURVE",
"490 163 OFFCURVE",
"499 224 CURVE SMOOTH",
"500 230 OFFCURVE",
"500 236 OFFCURVE",
"500 242 CURVE SMOOTH",
"500 403 OFFCURVE",
"187 443 OFFCURVE",
"164 536 CURVE SMOOTH",
"163 542 OFFCURVE",
"162 547 OFFCURVE",
"162 552 CURVE SMOOTH",
"162 592 OFFCURVE",
"204 610 OFFCURVE",
"253 610 CURVE SMOOTH",
"301 610 OFFCURVE",
"342 592 OFFCURVE",
"358 550 CURVE",
"439 574 LINE",
"412 639 OFFCURVE",
"348 680 OFFCURVE",
"257 680 CURVE SMOOTH",
"167 680 OFFCURVE",
"76 637 OFFCURVE",
"76 550 CURVE SMOOTH",
"76 490 OFFCURVE",
"112 450 OFFCURVE",
"151 424 CURVE",
"86 402 OFFCURVE",
"31 355 OFFCURVE",
"31 289 CURVE SMOOTH",
"31 101 OFFCURVE",
"363 94 OFFCURVE",
"363 -36 CURVE SMOOTH",
"363 -80 OFFCURVE",
"321 -103 OFFCURVE",
"263 -103 CURVE SMOOTH",
"197 -103 OFFCURVE",
"163 -72 OFFCURVE",
"150 -20 CURVE"
);
},
{
closed = 1;
nodes = (
"203 202 OFFCURVE",
"115 218 OFFCURVE",
"115 294 CURVE SMOOTH",
"115 341 OFFCURVE",
"170 373 OFFCURVE",
"218 387 CURVE",
"307 334 OFFCURVE",
"416 304 OFFCURVE",
"416 226 CURVE SMOOTH",
"416 180 OFFCURVE",
"368 148 OFFCURVE",
"323 129 CURVE"
);
}
);
width = 530;
}
);
leftMetricsKey = s;
rightMetricsKey = s;
unicode = 00A7;
},
{
glyphname = dieresis;
layers = (
{
layerId = "04EC68FF-C98D-4D46-AE83-08D67BD50805";
paths = (
{
closed = 1;
nodes = (
"137 590 OFFCURVE",
"161 614 OFFCURVE",
"161 644 CURVE SMOOTH",
"161 673 OFFCURVE",
"137 697 OFFCURVE",
"107 697 CURVE SMOOTH",
"77 697 OFFCURVE",
"53 673 OFFCURVE",
"53 644 CURVE SMOOTH",
"53 614 OFFCURVE",
"77 590 OFFCURVE",
"107 590 CURVE SMOOTH"
);
},
{
closed = 1;
nodes = (
"348 590 OFFCURVE",
"372 614 OFFCURVE",
"372 644 CURVE SMOOTH",
"372 673 OFFCURVE",
"348 697 OFFCURVE",
"318 697 CURVE SMOOTH",
"289 697 OFFCURVE",
"265 673 OFFCURVE",
"265 644 CURVE SMOOTH",
"265 614 OFFCURVE",
"289 590 OFFCURVE",
"318 590 CURVE SMOOTH"
);
}
);
width = 425;
}
);
unicode = 00A8;
},
{
glyphname = copyright;
layers = (
{
layerId = "04EC68FF-C98D-4D46-AE83-08D67BD50805";
paths = (
{
closed = 1;
nodes = (
"590 -12 OFFCURVE",
"745 143 OFFCURVE",
"745 334 CURVE SMOOTH",
"745 525 OFFCURVE",
"590 680 OFFCURVE",
"399 680 CURVE SMOOTH",
"208 680 OFFCURVE",
"53 525 OFFCURVE",
"53 334 CURVE SMOOTH",
"53 143 OFFCURVE",
"208 -12 OFFCURVE",
"399 -12 CURVE SMOOTH"
);
},
{
closed = 1;
nodes = (
"484 254 LINE",
"466 221 OFFCURVE",
"434 209 OFFCURVE",
"401 209 CURVE SMOOTH",
"344 209 OFFCURVE",
"303 252 OFFCURVE",
"303 342 CURVE SMOOTH",
"303 431 OFFCURVE",
"344 473 OFFCURVE",
"401 473 CURVE SMOOTH",
"435 473 OFFCURVE",
"464 456 OFFCURVE",
"481 424 CURVE",
"548 449 LINE",
"523 497 OFFCURVE",
"475 531 OFFCURVE",
"403 531 CURVE SMOOTH",
"295 531 OFFCURVE",
"227 460 OFFCURVE",
"227 342 CURVE SMOOTH",
"227 223 OFFCURVE",
"289 150 OFFCURVE",
"401 150 CURVE SMOOTH",
"475 150 OFFCURVE",
"524 185 OFFCURVE",
"550 230 CURVE"
);
},
{
closed = 1;
nodes = (
"242 50 OFFCURVE",
"115 177 OFFCURVE",
"115 334 CURVE SMOOTH",
"115 491 OFFCURVE",
"242 618 OFFCURVE",
"399 618 CURVE SMOOTH",
"556 618 OFFCURVE",
"683 491 OFFCURVE",
"683 334 CURVE SMOOTH",
"683 177 OFFCURVE",
"556 50 OFFCURVE",
"399 50 CURVE SMOOTH"
);
}
);
width = 798;
}
);
unicode = 00A9;
},
{
glyphname = questiondown;
layers = (
{
layerId = "04EC68FF-C98D-4D46-AE83-08D67BD50805";
paths = (
{
closed = 1;
nodes = (
"398 7 LINE",
"389 -46 OFFCURVE",
"352 -103 OFFCURVE",
"260 -103 CURVE SMOOTH",
"189 -103 OFFCURVE",
"138 -65 OFFCURVE",
"138 -7 CURVE SMOOTH",
"138 53 OFFCURVE",
"175 90 OFFCURVE",
"223 120 CURVE SMOOTH",
"300 169 OFFCURVE",
"338 203 OFFCURVE",
"338 281 CURVE SMOOTH",
"338 317 LINE",
"252 317 LINE",
"252 283 LINE SMOOTH",
"252 233 OFFCURVE",
"232 216 OFFCURVE",
"174 179 CURVE SMOOTH",
"112 139 OFFCURVE",
"50 77 OFFCURVE",
"50 -11 CURVE SMOOTH",
"50 -122 OFFCURVE",
"154 -173 OFFCURVE",
"258 -173 CURVE SMOOTH",
"373 -173 OFFCURVE",
"459 -113 OFFCURVE",
"480 -17 CURVE"
);
},
{
closed = 1;
nodes = (
"328 390 OFFCURVE",
"357 419 OFFCURVE",
"357 455 CURVE SMOOTH",
"357 490 OFFCURVE",
"328 519 OFFCURVE",
"293 519 CURVE SMOOTH",
"257 519 OFFCURVE",
"228 490 OFFCURVE",
"228 455 CURVE SMOOTH",
"228 419 OFFCURVE",
"257 390 OFFCURVE",
"293 390 CURVE SMOOTH"
);
}
);
width = 520;
}
);
unicode = 00BF;
},
{
glyphname = grave.case;
layers = (
{
layerId = "04EC68FF-C98D-4D46-AE83-08D67BD50805";
paths = (
{
closed = 1;
nodes = (
"153 744 LINE",
"47 851 LINE SMOOTH",
"38 861 OFFCURVE",
"26 864 OFFCURVE",
"16 864 CURVE SMOOTH",
"-4 864 OFFCURVE",
"-20 848 OFFCURVE",
"-20 828 CURVE SMOOTH",
"-20 817 OFFCURVE",
"-14 805 OFFCURVE",
"-4 796 CURVE SMOOTH",
"14 781 OFFCURVE",
"71 748 OFFCURVE",
"77 744 CURVE"
);
}
);
width = 203;
}
);
},
{
glyphname = acute.case;
layers = (
{
layerId = "04EC68FF-C98D-4D46-AE83-08D67BD50805";
paths = (
{
closed = 1;
nodes = (
"120 744 LINE",
"126 748 OFFCURVE",
"183 781 OFFCURVE",
"200 796 CURVE SMOOTH",
"211 805 OFFCURVE",
"216 817 OFFCURVE",
"216 828 CURVE SMOOTH",
"216 848 OFFCURVE",
"200 864 OFFCURVE",
"180 864 CURVE SMOOTH",
"170 864 OFFCURVE",
"160 860 OFFCURVE",
"151 852 CURVE SMOOTH",
"134 838 OFFCURVE",
"53 753 OFFCURVE",
"44 744 CURVE"
);
}
);
width = 153;
}
);
},
{
glyphname = germandbls;
layers = (
{
layerId = "04EC68FF-C98D-4D46-AE83-08D67BD50805";
paths = (
{
closed = 1;
nodes = (
"76 0 LINE",
"160 0 LINE",
"160 453 LINE SMOOTH",
"160 568 OFFCURVE",
"206 611 OFFCURVE",
"311 611 CURVE SMOOTH",
"385 611 OFFCURVE",
"435 570 OFFCURVE",
"435 511 CURVE SMOOTH",
"435 444 OFFCURVE",
"379 406 OFFCURVE",
"279 406 CURVE",
"279 330 LINE",
"393 330 OFFCURVE",
"469 296 OFFCURVE",
"469 195 CURVE SMOOTH",
"469 106 OFFCURVE",
"408 62 OFFCURVE",
"318 62 CURVE SMOOTH",
"306 62 OFFCURVE",
"293 63 OFFCURVE",
"279 65 CURVE",
"302 -12 LINE",
"435 -16 OFFCURVE",
"559 40 OFFCURVE",
"559 197 CURVE SMOOTH",
"559 305 OFFCURVE",
"498 356 OFFCURVE",
"420 376 CURVE",
"489 405 OFFCURVE",
"520 454 OFFCURVE",
"520 521 CURVE SMOOTH",
"520 618 OFFCURVE",
"431 680 OFFCURVE",
"312 680 CURVE SMOOTH",
"100 680 OFFCURVE",
"76 548 OFFCURVE",
"76 453 CURVE SMOOTH"
);
}
);
width = 597;
}
);
leftMetricsKey = B;
rightMetricsKey = B;
unicode = 00DF;
},
{
glyphname = AE;
layers = (
{
layerId = "04EC68FF-C98D-4D46-AE83-08D67BD50805";
paths = (
{
closed = 1;
nodes = (
"10 0 LINE",
"119 0 LINE",
"223 145 LINE",
"506 145 LINE",
"506 0 LINE",
"960 0 LINE",
"960 81 LINE",
"600 81 LINE",
"600 303 LINE",
"866 303 LINE",
"866 384 LINE",
"600 384 LINE",
"600 587 LINE",
"960 587 LINE",
"960 668 LINE",
"496 668 LINE"
);
},
{
closed = 1;
nodes = (
"279 226 LINE",
"506 546 LINE",
"506 226 LINE"
);
}
);
width = 998;
}
);
leftMetricsKey = A;
rightKerningGroup = E;
rightMetricsKey = E;
unicode = 00C6;
},
{
glyphname = florin;
layers = (
{
layerId = "04EC68FF-C98D-4D46-AE83-08D67BD50805";
paths = (
{
closed = 1;
nodes = (
"25 -165 LINE",
"43 -170 OFFCURVE",
"61 -173 OFFCURVE",
"80 -173 CURVE SMOOTH",
"138 -173 OFFCURVE",
"193 -141 OFFCURVE",
"193 -27 CURVE SMOOTH",
"193 429 LINE",
"296 429 LINE",
"296 496 LINE",
"193 496 LINE",
"193 571 LINE SMOOTH",
"193 622 OFFCURVE",
"201 635 OFFCURVE",
"244 635 CURVE SMOOTH",
"296 635 LINE",
"296 706 LINE",
"242 706 LINE SMOOTH",
"131 706 OFFCURVE",
"109 672 OFFCURVE",
"109 570 CURVE SMOOTH",
"109 496 LINE",
"25 496 LINE",
"25 429 LINE",
"109 429 LINE",
"109 -24 LINE SMOOTH",
"109 -66 OFFCURVE",
"93 -93 OFFCURVE",
"51 -93 CURVE SMOOTH",
"43 -93 OFFCURVE",
"35 -92 OFFCURVE",
"25 -90 CURVE"
);
}
);
width = 321;
}
);
leftMetricsKey = "=f+10";
rightMetricsKey = f;
unicode = 0192;
},
{
glyphname = integral;
layers = (
{
layerId = "04EC68FF-C98D-4D46-AE83-08D67BD50805";
paths = (
{
closed = 1;
nodes = (
"152 -122 OFFCURVE",
"152 -117 OFFCURVE",
"152 -112 CURVE SMOOTH",
"152 -85 OFFCURVE",
"132 -61 OFFCURVE",
"103 -61 CURVE SMOOTH",
"75 -61 OFFCURVE",
"53 -84 OFFCURVE",
"53 -111 CURVE SMOOTH",
"53 -158 OFFCURVE",
"94 -173 OFFCURVE",
"138 -173 CURVE SMOOTH",
"198 -173 OFFCURVE",
"271 -142 OFFCURVE",
"271 44 CURVE SMOOTH",
"271 538 LINE SMOOTH",
"271 640 OFFCURVE",
"308 635 OFFCURVE",
"308 635 CURVE",
"306 630 OFFCURVE",
"305 624 OFFCURVE",
"305 619 CURVE SMOOTH",
"305 593 OFFCURVE",
"326 569 OFFCURVE",
"355 569 CURVE SMOOTH",
"383 569 OFFCURVE",
"405 591 OFFCURVE",
"405 619 CURVE SMOOTH",
"405 666 OFFCURVE",
"364 681 OFFCURVE",
"320 681 CURVE SMOOTH",
"260 681 OFFCURVE",
"187 649 OFFCURVE",
"187 464 CURVE SMOOTH",
"187 -31 LINE SMOOTH",
"187 -132 OFFCURVE",
"150 -127 OFFCURVE",
"150 -127 CURVE"
);
}
);
width = 458;
}
);
unicode = 222B;
},
{
glyphname = approxequal;
layers = (
{
layerId = "04EC68FF-C98D-4D46-AE83-08D67BD50805";
paths = (
{
closed = 1;
nodes = (
"128 287 LINE",
"134 320 OFFCURVE",
"159 337 OFFCURVE",
"192 337 CURVE SMOOTH",
"252 337 OFFCURVE",
"320 283 OFFCURVE",
"392 283 CURVE SMOOTH",
"463 283 OFFCURVE",
"513 324 OFFCURVE",
"528 385 CURVE",
"454 407 LINE",
"447 374 OFFCURVE",
"422 356 OFFCURVE",
"392 356 CURVE SMOOTH",
"340 356 OFFCURVE",
"275 411 OFFCURVE",
"192 411 CURVE SMOOTH",
"119 411 OFFCURVE",
"69 370 OFFCURVE",
"53 309 CURVE"
);
},
{
closed = 1;
nodes = (
"128 101 LINE",
"134 134 OFFCURVE",
"159 151 OFFCURVE",
"192 151 CURVE SMOOTH",
"252 151 OFFCURVE",
"320 97 OFFCURVE",
"392 97 CURVE SMOOTH",
"463 97 OFFCURVE",
"513 138 OFFCURVE",
"528 199 CURVE",
"454 221 LINE",
"447 187 OFFCURVE",
"422 170 OFFCURVE",
"391 170 CURVE SMOOTH",
"338 170 OFFCURVE",
"273 225 OFFCURVE",
"190 225 CURVE SMOOTH",
"118 225 OFFCURVE",
"68 184 OFFCURVE",
"53 123 CURVE"
);
}
);
width = 581;
}
);
unicode = 2248;
},
{
glyphname = notequal;
layers = (
{
layerId = "04EC68FF-C98D-4D46-AE83-08D67BD50805";
paths = (
{
closed = 1;
nodes = (
"77 0 LINE",
"177 0 LINE",
"262 121 LINE",
"549 121 LINE",
"549 200 LINE",
"317 200 LINE",
"392 307 LINE",
"549 307 LINE",
"549 387 LINE",
"448 387 LINE",
"524 496 LINE",
"425 496 LINE",
"348 387 LINE",
"53 387 LINE",
"53 307 LINE",
"292 307 LINE",
"218 200 LINE",
"53 200 LINE",
"53 121 LINE",
"162 121 LINE"
);
}
);
width = 602;
}
);
unicode = 2260;
},
{
glyphname = lessequal;
layers = (
{
layerId = "04EC68FF-C98D-4D46-AE83-08D67BD50805";
paths = (
{
closed = 1;
nodes = (
"53 267 LINE",
"526 100 LINE",
"526 190 LINE",
"158 302 LINE",
"526 414 LINE",
"526 505 LINE",
"53 337 LINE"
);
},
{
closed = 1;
nodes = (
"53 0 LINE",
"526 0 LINE",
"526 80 LINE",
"53 80 LINE"
);
}
);
width = 579;
}
);
unicode = 2264;
},
{
glyphname = greaterequal;
layers = (
{
layerId = "04EC68FF-C98D-4D46-AE83-08D67BD50805";
paths = (
{
closed = 1;
nodes = (
"53 100 LINE",
"526 267 LINE",
"526 337 LINE",
"53 505 LINE",
"53 414 LINE",
"421 302 LINE",
"53 190 LINE"
);
},
{
closed = 1;
nodes = (
"53 0 LINE",
"526 0 LINE",
"526 80 LINE",
"53 80 LINE"
);
}
);
width = 579;
}
);
unicode = 2265;
},
{
glyphname = lozenge;
layers = (
{
layerId = "04EC68FF-C98D-4D46-AE83-08D67BD50805";
paths = (
{
closed = 1;
nodes = (
"281 -73 LINE",
"508 315 LINE",
"281 703 LINE",
"53 315 LINE"
);
},
{
closed = 1;
nodes = (
"281 76 LINE",
"140 315 LINE",
"281 554 LINE",
"421 315 LINE"
);
}
);
width = 561;
}
);
unicode = 25CA;
},
{
glyphname = summation;
layers = (
{
layerId = "04EC68FF-C98D-4D46-AE83-08D67BD50805";
paths = (
{
closed = 1;
nodes = (
"53 -161 LINE",
"534 -161 LINE",
"534 -80 LINE",
"154 -80 LINE",
"399 254 LINE",
"154 587 LINE",
"534 587 LINE",
"534 668 LINE",
"53 668 LINE",
"53 587 LINE",
"299 254 LINE",
"53 -80 LINE"
);
}
);
width = 587;
}
);
unicode = 2211;
},
{
glyphname = minus;
layers = (
{
layerId = "04EC68FF-C98D-4D46-AE83-08D67BD50805";
paths = (
{
closed = 1;
nodes = (
"53 209 LINE",
"549 209 LINE",
"549 288 LINE",
"53 288 LINE"
);
}
);
width = 602;
}
);
unicode = 2212;
},
{
color = (153,254,255,255);
glyphname = uni2215;
layers = (
{
layerId = "04EC68FF-C98D-4D46-AE83-08D67BD50805";
paths = (
{
closed = 1;
nodes = (
"15 0 LINE",
"115 0 LINE",
"583 669 LINE",
"483 669 LINE"
);
}
);
width = 598;
}
);
unicode = 2215;
},
{
glyphname = uni2219;
layers = (
{
layerId = "04EC68FF-C98D-4D46-AE83-08D67BD50805";
paths = (
{
closed = 1;
nodes = (
"53 223 OFFCURVE",
"78 191 OFFCURVE",
"118 191 CURVE SMOOTH",
"143 191 OFFCURVE",
"166 206 OFFCURVE",
"177 231 CURVE SMOOTH",
"180 239 OFFCURVE",
"182 248 OFFCURVE",
"182 256 CURVE SMOOTH",
"182 281 OFFCURVE",
"167 304 OFFCURVE",
"142 315 CURVE SMOOTH",
"134 318 OFFCURVE",
"126 320 OFFCURVE",
"118 320 CURVE SMOOTH",
"92 320 OFFCURVE",
"69 305 OFFCURVE",
"58 280 CURVE SMOOTH",
"55 272 OFFCURVE",
"53 263 OFFCURVE",
"53 255 CURVE SMOOTH"
);
}
);
width = 235;
}
);
unicode = 2219;
},
{
glyphname = radical;
layers = (
{
layerId = "04EC68FF-C98D-4D46-AE83-08D67BD50805";
paths = (
{
closed = 1;
nodes = (
"279 -161 LINE",
"378 -161 LINE",
"529 669 LINE",
"441 669 LINE",
"318 -37 LINE",
"215 225 LINE",
"53 225 LINE",
"53 145 LINE",
"159 145 LINE"
);
}
);
width = 582;
}
);
unicode = 221A;
},
{
glyphname = infinity;
layers = (
{
layerId = "04EC68FF-C98D-4D46-AE83-08D67BD50805";
paths = (
{
closed = 1;
nodes = (
"432 148 OFFCURVE",
"486 104 OFFCURVE",
"560 104 CURVE SMOOTH",
"655 104 OFFCURVE",
"720 167 OFFCURVE",
"720 256 CURVE SMOOTH",
"720 343 OFFCURVE",
"653 406 OFFCURVE",
"554 406 CURVE SMOOTH",
"482 406 OFFCURVE",
"429 364 OFFCURVE",
"387 317 CURVE",
"344 364 OFFCURVE",
"291 406 OFFCURVE",
"219 406 CURVE SMOOTH",
"120 406 OFFCURVE",
"53 343 OFFCURVE",
"53 256 CURVE SMOOTH",
"53 167 OFFCURVE",
"118 104 OFFCURVE",
"213 104 CURVE SMOOTH",
"287 104 OFFCURVE",
"341 148 OFFCURVE",
"387 198 CURVE"
);
},
{
closed = 1;
nodes = (
"293 200 OFFCURVE",
"260 180 OFFCURVE",
"217 180 CURVE SMOOTH",
"169 180 OFFCURVE",
"134 214 OFFCURVE",
"134 256 CURVE SMOOTH",
"134 301 OFFCURVE",
"171 330 OFFCURVE",
"220 330 CURVE SMOOTH",
"269 330 OFFCURVE",
"303 299 OFFCURVE",
"339 256 CURVE"
);
},
{
closed = 1;
nodes = (
"471 299 OFFCURVE",
"505 330 OFFCURVE",
"553 330 CURVE SMOOTH",
"602 330 OFFCURVE",
"639 301 OFFCURVE",
"639 256 CURVE SMOOTH",
"639 214 OFFCURVE",
"604 180 OFFCURVE",
"556 180 CURVE SMOOTH",
"513 180 OFFCURVE",
"481 200 OFFCURVE",
"435 256 CURVE"
);
}
);
width = 773;
}
);
unicode = 221E;
},
{
glyphname = Omega;
layers = (
{
layerId = "04EC68FF-C98D-4D46-AE83-08D67BD50805";
paths = (
{
closed = 1;
nodes = (
"50 0 LINE",
"286 0 LINE",
"286 173 LINE",
"192 198 OFFCURVE",
"123 284 OFFCURVE",
"123 385 CURVE SMOOTH",
"123 507 OFFCURVE",
"222 606 OFFCURVE",
"343 606 CURVE SMOOTH",
"465 606 OFFCURVE",
"564 507 OFFCURVE",
"564 385 CURVE SMOOTH",
"564 284 OFFCURVE",
"495 198 OFFCURVE",
"401 173 CURVE",
"401 0 LINE",
"637 0 LINE",
"637 81 LINE",
"486 81 LINE",
"486 130 LINE",
"576 180 OFFCURVE",
"637 276 OFFCURVE",
"637 385 CURVE SMOOTH",
"637 548 OFFCURVE",
"506 680 OFFCURVE",
"343 680 CURVE SMOOTH",
"181 680 OFFCURVE",
"50 548 OFFCURVE",
"50 385 CURVE SMOOTH",
"50 276 OFFCURVE",
"111 180 OFFCURVE",
"201 130 CURVE",
"201 81 LINE",
"50 81 LINE"
);
}
);
width = 687;
}
);
leftMetricsKey = O;
rightMetricsKey = O;
unicode = 03A9;
},
{
glyphname = estimated;
layers = (
{
layerId = "04EC68FF-C98D-4D46-AE83-08D67BD50805";
paths = (
{
closed = 1;
nodes = (
"159 248 LINE",
"569 248 LINE",
"568 389 OFFCURVE",
"453 504 OFFCURVE",
"311 504 CURVE SMOOTH",
"157 504 OFFCURVE",
"53 374 OFFCURVE",
"53 256 CURVE SMOOTH",
"53 79 OFFCURVE",
"189 -12 OFFCURVE",
"311 -12 CURVE SMOOTH",
"394 -12 OFFCURVE",
"467 27 OFFCURVE",
"514 87 CURVE",
"481 97 LINE",
"440 50 OFFCURVE",
"379 20 OFFCURVE",
"311 20 CURVE SMOOTH",
"252 20 OFFCURVE",
"199 42 OFFCURVE",
"159 78 CURVE"
);
},
{
closed = 1;
nodes = (
"159 279 LINE",
"159 413 LINE",
"199 450 OFFCURVE",
"252 472 OFFCURVE",
"311 472 CURVE SMOOTH",
"369 472 OFFCURVE",
"423 450 OFFCURVE",
"463 413 CURVE",
"463 279 LINE"
);
}
);
width = 622;
}
);
unicode = 212E;
},
{
glyphname = partialdiff;
layers = (
{
layerId = "04EC68FF-C98D-4D46-AE83-08D67BD50805";
paths = (
{
closed = 1;
nodes = (
"142 598 LINE",
"275 601 OFFCURVE",
"383 578 OFFCURVE",
"423 450 CURVE",
"391 490 OFFCURVE",
"332 504 OFFCURVE",
"291 504 CURVE SMOOTH",
"176 504 OFFCURVE",
"53 426 OFFCURVE",
"53 246 CURVE SMOOTH",
"53 66 OFFCURVE",
"176 -12 OFFCURVE",
"291 -12 CURVE SMOOTH",
"406 -12 OFFCURVE",
"523 57 OFFCURVE",
"529 246 CURVE SMOOTH",
"529 257 OFFCURVE",
"530 267 OFFCURVE",
"530 277 CURVE SMOOTH",
"530 683 OFFCURVE",
"263 680 OFFCURVE",
"142 680 CURVE"
);
},
{
closed = 1;
nodes = (
"219 61 OFFCURVE",
"142 117 OFFCURVE",
"142 246 CURVE SMOOTH",
"142 374 OFFCURVE",
"219 430 OFFCURVE",
"291 430 CURVE SMOOTH",
"363 430 OFFCURVE",
"439 374 OFFCURVE",
"439 246 CURVE SMOOTH",
"439 117 OFFCURVE",
"363 61 OFFCURVE",
"291 61 CURVE SMOOTH"
);
}
);
width = 582;
}
);
unicode = 2202;
},
{
glyphname = Delta;
layers = (
{
layerId = "04EC68FF-C98D-4D46-AE83-08D67BD50805";
paths = (
{
closed = 1;
nodes = (
"53 0 LINE",
"706 0 LINE",
"379 680 LINE"
);
},
{
closed = 1;
nodes = (
"178 78 LINE",
"379 498 LINE",
"580 78 LINE"
);
}
);
width = 759;
}
);
unicode = 0394;
},
{
glyphname = product;
layers = (
{
layerId = "04EC68FF-C98D-4D46-AE83-08D67BD50805";
paths = (
{
closed = 1;
nodes = (
"53 -161 LINE",
"134 -161 LINE",
"134 587 LINE",
"450 587 LINE",
"450 -161 LINE",
"532 -161 LINE",
"532 668 LINE",
"53 668 LINE"
);
}
);
width = 585;
}
);
unicode = 220F;
},
{
glyphname = pi;
layers = (
{
layerId = "04EC68FF-C98D-4D46-AE83-08D67BD50805";
paths = (
{
closed = 1;
nodes = (
"104 0 LINE",
"185 0 LINE",
"185 414 LINE",
"383 414 LINE",
"383 124 LINE SMOOTH",
"383 21 OFFCURVE",
"405 0 OFFCURVE",
"500 0 CURVE SMOOTH",
"551 0 LINE",
"551 74 LINE",
"518 74 LINE SMOOTH",
"470 74 OFFCURVE",
"467 87 OFFCURVE",
"467 139 CURVE SMOOTH",
"467 414 LINE",
"551 414 LINE",
"551 496 LINE",
"20 496 LINE",
"20 414 LINE",
"104 414 LINE"
);
}
);
width = 591;
}
);
leftMetricsKey = t;
rightMetricsKey = t;
unicode = 03C0;
},
{
glyphname = hungarumlaut;
layers = (
{
layerId = "04EC68FF-C98D-4D46-AE83-08D67BD50805";
paths = (
{
closed = 1;
nodes = (
"199 572 LINE",
"269 572 LINE",
"350 643 LINE SMOOTH",
"359 651 OFFCURVE",
"361 661 OFFCURVE",
"361 670 CURVE SMOOTH",
"361 690 OFFCURVE",
"343 708 OFFCURVE",
"323 708 CURVE SMOOTH",
"313 708 OFFCURVE",
"302 704 OFFCURVE",
"295 695 CURVE SMOOTH",
"215 594 LINE SMOOTH"
);
},
{
closed = 1;
nodes = (
"53 572 LINE",
"123 572 LINE",
"204 643 LINE SMOOTH",
"213 651 OFFCURVE",
"215 661 OFFCURVE",
"215 670 CURVE SMOOTH",
"215 691 OFFCURVE",
"198 708 OFFCURVE",
"177 708 CURVE SMOOTH",
"167 708 OFFCURVE",
"156 704 OFFCURVE",
"149 695 CURVE SMOOTH",
"69 594 LINE SMOOTH"
);
}
);
width = 414;
}
);
unicode = 02DD;
},
{
glyphname = tilde;
layers = (
{
layerId = "04EC68FF-C98D-4D46-AE83-08D67BD50805";
paths = (
{
closed = 1;
nodes = (
"118 577 LINE",
"121 603 OFFCURVE",
"136 618 OFFCURVE",
"160 618 CURVE SMOOTH",
"199 618 OFFCURVE",
"230 575 OFFCURVE",
"285 575 CURVE SMOOTH",
"348 575 OFFCURVE",
"382 627 OFFCURVE",
"382 649 CURVE SMOOTH",
"382 666 OFFCURVE",
"367 680 OFFCURVE",
"351 680 CURVE SMOOTH",
"341 680 OFFCURVE",
"330 675 OFFCURVE",
"322 661 CURVE SMOOTH",
"313 646 OFFCURVE",
"303 638 OFFCURVE",
"283 638 CURVE SMOOTH",
"241 638 OFFCURVE",
"215 681 OFFCURVE",
"159 681 CURVE SMOOTH",
"106 681 OFFCURVE",
"65 648 OFFCURVE",
"53 577 CURVE"
);
}
);
width = 435;
}
);
unicode = 02DC;
},
{
glyphname = endash;
layers = (
{
layerId = "04EC68FF-C98D-4D46-AE83-08D67BD50805";
paths = (
{
closed = 1;
nodes = (
"41 208 LINE",
"439 208 LINE",
"439 287 LINE",
"41 287 LINE"
);
}
);
width = 480;
}
);
leftKerningGroup = hyphen;
rightKerningGroup = hyphen_2;
unicode = 2013;
},
{
glyphname = emdash;
layers = (
{
layerId = "04EC68FF-C98D-4D46-AE83-08D67BD50805";
paths = (
{
closed = 1;
nodes = (
"41 208 LINE",
"759 208 LINE",
"759 287 LINE",
"41 287 LINE"
);
}
);
width = 800;
}
);
leftKerningGroup = hyphen;
rightKerningGroup = hyphen_2;
unicode = 2014;
},
{
glyphname = trademark;
layers = (
{
layerId = "04EC68FF-C98D-4D46-AE83-08D67BD50805";
paths = (
{
closed = 1;
nodes = (
"393 292 LINE",
"460 292 LINE",
"460 571 LINE",
"558 292 LINE",
"630 292 LINE",
"728 571 LINE",
"728 292 LINE",
"795 292 LINE",
"795 668 LINE",
"687 668 LINE",
"594 384 LINE",
"501 668 LINE",
"393 668 LINE"
);
},
{
closed = 1;
nodes = (
"171 292 LINE",
"238 292 LINE",
"238 608 LINE",
"356 608 LINE",
"356 668 LINE",
"53 668 LINE",
"53 608 LINE",
"171 608 LINE"
);
}
);
width = 848;
}
);
unicode = 2122;
},
{
color = (255,255,153,255);
glyphname = dotlessi;
layers = (
{
layerId = "04EC68FF-C98D-4D46-AE83-08D67BD50805";
paths = (
{
closed = 1;
nodes = (
"114 0 LINE",
"198 0 LINE",
"198 496 LINE",
"45 496 LINE",
"45 429 LINE",
"114 429 LINE"
);
}
);
width = 278;
}
);
leftKerningGroup = i;
leftMetricsKey = i;
unicode = 0131;
},
{
glyphname = uni2113;
layers = (
{
layerId = "04EC68FF-C98D-4D46-AE83-08D67BD50805";
paths = (
{
closed = 1;
nodes = (
"53 138 LINE",
"119 188 LINE",
"119 156 LINE SMOOTH",
"119 38 OFFCURVE",
"160 -12 OFFCURVE",
"261 -12 CURVE SMOOTH",
"317 -12 OFFCURVE",
"366 14 OFFCURVE",
"397 42 CURVE",
"360 100 LINE",
"335 78 OFFCURVE",
"306 61 OFFCURVE",
"271 61 CURVE SMOOTH",
"234 61 OFFCURVE",
"204 78 OFFCURVE",
"204 151 CURVE SMOOTH",
"204 251 LINE",
"327 342 OFFCURVE",
"394 420 OFFCURVE",
"394 538 CURVE SMOOTH",
"394 621 OFFCURVE",
"348 680 OFFCURVE",
"264 680 CURVE SMOOTH",
"160 680 OFFCURVE",
"119 616 OFFCURVE",
"119 507 CURVE SMOOTH",
"119 278 LINE",
"53 227 LINE"
);
},
{
closed = 1;
nodes = (
"204 518 LINE SMOOTH",
"204 589 OFFCURVE",
"220 610 OFFCURVE",
"259 610 CURVE SMOOTH",
"291 610 OFFCURVE",
"312 588 OFFCURVE",
"312 535 CURVE SMOOTH",
"312 461 OFFCURVE",
"278 396 OFFCURVE",
"204 344 CURVE"
);
}
);
width = 450;
}
);
unicode = 2113;
},
{
glyphname = Lslash;
layers = (
{
layerId = "04EC68FF-C98D-4D46-AE83-08D67BD50805";
paths = (
{
closed = 1;
nodes = (
"110 0 LINE",
"563 0 LINE",
"563 81 LINE",
"204 81 LINE",
"204 326 LINE",
"384 434 LINE",
"384 505 LINE",
"204 397 LINE",
"204 669 LINE",
"110 669 LINE",
"110 340 LINE",
"20 287 LINE",
"20 216 LINE",
"110 270 LINE"
);
}
);
width = 573;
}
);
leftMetricsKey = t;
rightKerningGroup = L;
rightMetricsKey = L;
unicode = 0141;
},
{
glyphname = lslash;
layers = (
{
layerId = "04EC68FF-C98D-4D46-AE83-08D67BD50805";
paths = (
{
closed = 1;
nodes = (
"222 0 LINE",
"222 74 LINE",
"204 74 LINE SMOOTH",
"156 74 OFFCURVE",
"152 87 OFFCURVE",
"152 139 CURVE SMOOTH",
"152 323 LINE",
"222 365 LINE",
"222 436 LINE",
"152 394 LINE",
"152 668 LINE",
"68 668 LINE",
"68 344 LINE",
"15 312 LINE",
"15 242 LINE",
"68 273 LINE",
"68 124 LINE SMOOTH",
"68 22 OFFCURVE",
"90 0 OFFCURVE",
"186 0 CURVE SMOOTH"
);
}
);
width = 237;
}
);
leftMetricsKey = f;
rightMetricsKey = l;
unicode = 0142;
},
{
color = (153,254,255,255);
glyphname = oslash;
layers = (
{
layerId = "04EC68FF-C98D-4D46-AE83-08D67BD50805";
paths = (
{
closed = 1;
nodes = (
"45 24 LINE",
"83 -9 LINE",
"125 40 LINE",
"168 4 OFFCURVE",
"223 -12 OFFCURVE",
"276 -12 CURVE SMOOTH",
"391 -12 OFFCURVE",
"514 67 OFFCURVE",
"514 246 CURVE SMOOTH",
"514 324 OFFCURVE",
"490 384 OFFCURVE",
"454 425 CURVE",
"495 474 LINE",
"457 507 LINE",
"416 460 LINE",
"375 490 OFFCURVE",
"325 504 OFFCURVE",
"276 504 CURVE SMOOTH",
"161 504 OFFCURVE",
"38 425 OFFCURVE",
"38 246 CURVE SMOOTH",
"38 174 OFFCURVE",
"58 118 OFFCURVE",
"89 77 CURVE"
);
},
{
closed = 1;
nodes = (
"397 359 LINE",
"414 330 OFFCURVE",
"424 293 OFFCURVE",
"424 246 CURVE SMOOTH",
"424 118 OFFCURVE",
"348 62 OFFCURVE",
"276 62 CURVE SMOOTH",
"241 62 OFFCURVE",
"206 75 OFFCURVE",
"178 103 CURVE"
);
},
{
closed = 1;
nodes = (
"148 146 LINE",
"135 172 OFFCURVE",
"127 206 OFFCURVE",
"127 246 CURVE SMOOTH",
"127 374 OFFCURVE",
"204 430 OFFCURVE",
"276 430 CURVE SMOOTH",
"306 430 OFFCURVE",
"338 420 OFFCURVE",
"364 398 CURVE"
);
}
);
width = 552;
}
);
leftKerningGroup = c;
leftMetricsKey = o;
rightKerningGroup = b;
rightMetricsKey = o;
unicode = 00F8;
},
{
color = (153,254,255,255);
glyphname = Oslash;
layers = (
{
layerId = "04EC68FF-C98D-4D46-AE83-08D67BD50805";
paths = (
{
closed = 1;
nodes = (
"65 27 LINE",
"103 -6 LINE",
"160 60 LINE",
"212 14 OFFCURVE",
"281 -12 OFFCURVE",
"363 -12 CURVE SMOOTH",
"556 -12 OFFCURVE",
"677 132 OFFCURVE",
"677 333 CURVE SMOOTH",
"677 430 OFFCURVE",
"649 513 OFFCURVE",
"599 574 CURVE",
"655 641 LINE",
"616 673 LINE",
"563 610 LINE",
"511 655 OFFCURVE",
"443 680 OFFCURVE",
"363 680 CURVE SMOOTH",
"171 680 OFFCURVE",
"50 535 OFFCURVE",
"50 333 CURVE SMOOTH",
"50 240 OFFCURVE",
"77 157 OFFCURVE",
"125 97 CURVE"
);
},
{
closed = 1;
nodes = (
"538 503 LINE",
"565 460 OFFCURVE",
"581 403 OFFCURVE",
"581 333 CURVE SMOOTH",
"581 162 OFFCURVE",
"485 67 OFFCURVE",
"363 67 CURVE SMOOTH",
"307 67 OFFCURVE",
"255 88 OFFCURVE",
"217 127 CURVE"
);
},
{
closed = 1;
nodes = (
"186 169 LINE",
"160 211 OFFCURVE",
"146 267 OFFCURVE",
"146 333 CURVE SMOOTH",
"146 506 OFFCURVE",
"242 599 OFFCURVE",
"363 599 CURVE SMOOTH",
"418 599 OFFCURVE",
"468 580 OFFCURVE",
"506 543 CURVE"
);
}
);
width = 727;
}
);
leftMetricsKey = O;
rightMetricsKey = O;
unicode = 00D8;
},
{
glyphname = Thorn;
layers = (
{
layerId = "04EC68FF-C98D-4D46-AE83-08D67BD50805";
paths = (
{
closed = 1;
nodes = (
"76 0 LINE",
"160 0 LINE",
"160 163 LINE",
"287 163 LINE SMOOTH",
"435 163 OFFCURVE",
"538 195 OFFCURVE",
"538 345 CURVE SMOOTH",
"538 494 OFFCURVE",
"435 528 OFFCURVE",
"287 528 CURVE SMOOTH",
"160 528 LINE",
"160 668 LINE",
"76 668 LINE"
);
},
{
closed = 1;
nodes = (
"160 244 LINE",
"160 447 LINE",
"296 447 LINE SMOOTH",
"377 447 OFFCURVE",
"441 435 OFFCURVE",
"441 344 CURVE SMOOTH",
"441 252 OFFCURVE",
"377 244 OFFCURVE",
"296 244 CURVE SMOOTH"
);
}
);
width = 576;
}
);
leftKerningGroup = B;
leftMetricsKey = B;
rightMetricsKey = B;
unicode = 00DE;
},
{
glyphname = ae;
layers = (
{
layerId = "04EC68FF-C98D-4D46-AE83-08D67BD50805";
paths = (
{
closed = 1;
nodes = (
"151 359 LINE",
"162 407 OFFCURVE",
"201 436 OFFCURVE",
"261 436 CURVE SMOOTH",
"386 436 OFFCURVE",
"373 320 OFFCURVE",
"373 292 CURVE",
"185 292 OFFCURVE",
"38 250 OFFCURVE",
"38 131 CURVE SMOOTH",
"38 40 OFFCURVE",
"115 -12 OFFCURVE",
"209 -12 CURVE SMOOTH",
"314 -12 OFFCURVE",
"383 31 OFFCURVE",
"417 88 CURVE",
"457 27 OFFCURVE",
"525 -12 OFFCURVE",
"617 -12 CURVE SMOOTH",
"709 -12 OFFCURVE",
"777 29 OFFCURVE",
"814 87 CURVE",
"733 111 LINE",
"709 81 OFFCURVE",
"672 62 OFFCURVE",
"617 62 CURVE SMOOTH",
"555 62 OFFCURVE",
"468 100 OFFCURVE",
"463 225 CURVE",
"845 225 LINE",
"855 366 OFFCURVE",
"773 504 OFFCURVE",
"614 504 CURVE SMOOTH",
"541 504 OFFCURVE",
"477 475 OFFCURVE",
"433 424 CURVE",
"404 478 OFFCURVE",
"347 504 OFFCURVE",
"260 504 CURVE SMOOTH",
"178 504 OFFCURVE",
"98 461 OFFCURVE",
"70 383 CURVE"
);
},
{
closed = 1;
nodes = (
"380 209 OFFCURVE",
"396 54 OFFCURVE",
"227 54 CURVE SMOOTH",
"167 54 OFFCURVE",
"131 86 OFFCURVE",
"131 133 CURVE SMOOTH",
"131 201 OFFCURVE",
"228 225 OFFCURVE",
"380 225 CURVE"
);
},
{
closed = 1;
nodes = (
"465 292 LINE",
"472 392 OFFCURVE",
"539 432 OFFCURVE",
"614 432 CURVE SMOOTH",
"702 432 OFFCURVE",
"755 362 OFFCURVE",
"757 292 CURVE"
);
}
);
width = 874;
}
);
leftKerningGroup = a;
leftMetricsKey = a;
rightKerningGroup = e;
rightMetricsKey = e;
unicode = 00E6;
},
{
glyphname = eth;
layers = (
{
layerId = "04EC68FF-C98D-4D46-AE83-08D67BD50805";
paths = (
{
closed = 1;
nodes = (
"283 474 LINE",
"356 547 LINE",
"398 506 OFFCURVE",
"424 444 OFFCURVE",
"430 352 CURVE",
"399 405 OFFCURVE",
"342 445 OFFCURVE",
"254 445 CURVE SMOOTH",
"129 445 OFFCURVE",
"38 352 OFFCURVE",
"38 218 CURVE SMOOTH",
"38 94 OFFCURVE",
"130 -12 OFFCURVE",
"273 -12 CURVE SMOOTH",
"463 -12 OFFCURVE",
"517 142 OFFCURVE",
"517 303 CURVE SMOOTH",
"517 421 OFFCURVE",
"484 540 OFFCURVE",
"413 604 CURVE",
"453 644 LINE",
"417 680 LINE",
"371 634 LINE",
"316 667 OFFCURVE",
"249 679 OFFCURVE",
"175 679 CURVE",
"175 602 LINE",
"231 602 OFFCURVE",
"277 595 OFFCURVE",
"313 576 CURVE",
"247 510 LINE"
);
},
{
closed = 1;
nodes = (
"185 59 OFFCURVE",
"128 123 OFFCURVE",
"128 215 CURVE SMOOTH",
"128 307 OFFCURVE",
"185 371 OFFCURVE",
"273 371 CURVE SMOOTH",
"362 371 OFFCURVE",
"419 307 OFFCURVE",
"419 215 CURVE SMOOTH",
"419 123 OFFCURVE",
"362 59 OFFCURVE",
"273 59 CURVE SMOOTH"
);
}
);
width = 567;
}
);
leftKerningGroup = c;
leftMetricsKey = d;
rightKerningGroup = D;
rightMetricsKey = D;
unicode = 00F0;
},
{
glyphname = thorn;
layers = (
{
layerId = "04EC68FF-C98D-4D46-AE83-08D67BD50805";
paths = (
{
closed = 1;
nodes = (
"70 -161 LINE",
"154 -161 LINE",
"154 75 LINE",
"184 23 OFFCURVE",
"237 -12 OFFCURVE",
"315 -12 CURVE SMOOTH",
"428 -12 OFFCURVE",
"528 83 OFFCURVE",
"528 246 CURVE SMOOTH",
"528 411 OFFCURVE",
"428 505 OFFCURVE",
"315 505 CURVE SMOOTH",
"237 505 OFFCURVE",
"184 470 OFFCURVE",
"154 418 CURVE",
"154 669 LINE",
"70 669 LINE"
);
},
{
closed = 1;
nodes = (
"208 60 OFFCURVE",
"152 129 OFFCURVE",
"152 246 CURVE SMOOTH",
"152 364 OFFCURVE",
"208 433 OFFCURVE",
"293 433 CURVE SMOOTH",
"378 433 OFFCURVE",
"434 364 OFFCURVE",
"434 246 CURVE SMOOTH",
"434 128 OFFCURVE",
"378 60 OFFCURVE",
"293 60 CURVE SMOOTH"
);
}
);
width = 566;
}
);
leftKerningGroup = B;
leftMetricsKey = p;
rightKerningGroup = b;
rightMetricsKey = p;
unicode = 00FE;
},
{
glyphname = uni02C9;
layers = (
{
layerId = "04EC68FF-C98D-4D46-AE83-08D67BD50805";
paths = (
{
closed = 1;
nodes = (
"53 601 LINE",
"329 601 LINE",
"329 668 LINE",
"53 668 LINE"
);
}
);
width = 382;
}
);
unicode = 02C9;
},
{
glyphname = multiply;
layers = (
{
layerId = "04EC68FF-C98D-4D46-AE83-08D67BD50805";
paths = (
{
closed = 1;
nodes = (
"110 39 LINE",
"264 193 LINE",
"418 39 LINE",
"475 97 LINE",
"322 250 LINE",
"475 404 LINE",
"418 462 LINE",
"264 308 LINE",
"110 462 LINE",
"53 404 LINE",
"207 250 LINE",
"53 97 LINE"
);
}
);
width = 528;
}
);
unicode = 00D7;
},
{
glyphname = divide;
layers = (
{
layerId = "04EC68FF-C98D-4D46-AE83-08D67BD50805";
paths = (
{
closed = 1;
nodes = (
"53 208 LINE",
"549 208 LINE",
"549 289 LINE",
"53 289 LINE"
);
},
{
closed = 1;
nodes = (
"337 14 OFFCURVE",
"365 43 OFFCURVE",
"365 79 CURVE SMOOTH",
"365 114 OFFCURVE",
"337 143 OFFCURVE",
"301 143 CURVE SMOOTH",
"265 143 OFFCURVE",
"236 114 OFFCURVE",
"236 79 CURVE SMOOTH",
"236 43 OFFCURVE",
"265 14 OFFCURVE",
"301 14 CURVE SMOOTH"
);
},
{
closed = 1;
nodes = (
"236 382 OFFCURVE",
"265 354 OFFCURVE",
"301 354 CURVE SMOOTH",
"337 354 OFFCURVE",
"365 382 OFFCURVE",
"365 418 CURVE SMOOTH",
"365 454 OFFCURVE",
"337 483 OFFCURVE",
"301 483 CURVE SMOOTH",
"265 483 OFFCURVE",
"236 454 OFFCURVE",
"236 418 CURVE SMOOTH"
);
}
);
width = 602;
}
);
unicode = 00F7;
},
{
glyphname = OE;
layers = (
{
layerId = "04EC68FF-C98D-4D46-AE83-08D67BD50805";
paths = (
{
closed = 1;
nodes = (
"581 0 LINE",
"1014 0 LINE",
"1014 81 LINE",
"655 81 LINE",
"655 304 LINE",
"920 304 LINE",
"920 385 LINE",
"655 385 LINE",
"655 588 LINE",
"1014 588 LINE",
"1014 669 LINE",
"581 669 LINE",
"581 597 LINE",
"527 649 OFFCURVE",
"453 680 OFFCURVE",
"363 680 CURVE SMOOTH",
"171 680 OFFCURVE",
"50 538 OFFCURVE",
"50 335 CURVE SMOOTH",
"50 133 OFFCURVE",
"171 -12 OFFCURVE",
"363 -12 CURVE SMOOTH",
"453 -12 OFFCURVE",
"527 20 OFFCURVE",
"581 75 CURVE"
);
},
{
closed = 1;
nodes = (
"242 69 OFFCURVE",
"146 163 OFFCURVE",
"146 335 CURVE SMOOTH",
"146 508 OFFCURVE",
"242 602 OFFCURVE",
"363 602 CURVE SMOOTH",
"473 602 OFFCURVE",
"581 521 OFFCURVE",
"581 334 CURVE SMOOTH",
"581 160 OFFCURVE",
"483 69 OFFCURVE",
"363 69 CURVE SMOOTH"
);
}
);
width = 1052;
}
);
leftKerningGroup = C;
leftMetricsKey = O;
rightKerningGroup = E;
rightMetricsKey = E;
unicode = 0152;
},
{
glyphname = oe;
layers = (
{
layerId = "04EC68FF-C98D-4D46-AE83-08D67BD50805";
paths = (
{
closed = 1;
nodes = (
"785 111 LINE",
"761 81 OFFCURVE",
"725 62 OFFCURVE",
"669 62 CURVE SMOOTH",
"608 62 OFFCURVE",
"520 100 OFFCURVE",
"516 225 CURVE",
"898 225 LINE",
"908 367 OFFCURVE",
"825 505 OFFCURVE",
"666 505 CURVE SMOOTH",
"585 505 OFFCURVE",
"514 468 OFFCURVE",
"471 404 CURVE",
"425 473 OFFCURVE",
"349 505 OFFCURVE",
"276 505 CURVE SMOOTH",
"161 505 OFFCURVE",
"38 426 OFFCURVE",
"38 246 CURVE SMOOTH",
"38 67 OFFCURVE",
"161 -12 OFFCURVE",
"276 -12 CURVE SMOOTH",
"348 -12 OFFCURVE",
"424 20 OFFCURVE",
"470 88 CURVE",
"510 27 OFFCURVE",
"578 -12 OFFCURVE",
"669 -12 CURVE SMOOTH",
"762 -12 OFFCURVE",
"829 30 OFFCURVE",
"866 87 CURVE"
);
},
{
closed = 1;
nodes = (
"204 62 OFFCURVE",
"127 118 OFFCURVE",
"127 246 CURVE SMOOTH",
"127 375 OFFCURVE",
"204 431 OFFCURVE",
"276 431 CURVE SMOOTH",
"348 431 OFFCURVE",
"424 375 OFFCURVE",
"424 246 CURVE SMOOTH",
"424 118 OFFCURVE",
"348 62 OFFCURVE",
"276 62 CURVE SMOOTH"
);
},
{
closed = 1;
nodes = (
"517 292 LINE",
"524 392 OFFCURVE",
"592 433 OFFCURVE",
"666 433 CURVE SMOOTH",
"755 433 OFFCURVE",
"807 363 OFFCURVE",
"809 292 CURVE"
);
}
);
width = 927;
}
);
leftKerningGroup = c;
leftMetricsKey = o;
rightKerningGroup = e;
rightMetricsKey = e;
unicode = 0153;
},
{
glyphname = Eth;
layers = (
{
components = (
{
alignment = -1;
name = D;
transform = "{1, 0, 0, 1, 39, 0}";
}
);
layerId = "04EC68FF-C98D-4D46-AE83-08D67BD50805";
paths = (
{
closed = 1;
nodes = (
"20 303 LINE",
"349 303 LINE",
"349 383 LINE",
"20 383 LINE"
);
}
);
width = 712;
}
);
leftMetricsKey = t;
rightKerningGroup = D;
rightMetricsKey = D;
unicode = 00D0;
},
{
glyphname = one.tf;
layers = (
{
layerId = "04EC68FF-C98D-4D46-AE83-08D67BD50805";
paths = (
{
closed = 1;
nodes = (
"109 0 LINE",
"530 0 LINE",
"530 77 LINE",
"370 77 LINE",
"370 668 LINE",
"314 668 LINE",
"285 586 OFFCURVE",
"205 571 OFFCURVE",
"109 571 CURVE",
"109 504 LINE",
"287 504 LINE",
"287 77 LINE",
"109 77 LINE"
);
}
);
width = 639;
}
);
},
{
glyphname = ogonek.case;
layers = (
{
layerId = "04EC68FF-C98D-4D46-AE83-08D67BD50805";
paths = (
{
closed = 1;
nodes = (
"210 -107 LINE",
"197 -113 OFFCURVE",
"184 -115 OFFCURVE",
"172 -115 CURVE SMOOTH",
"144 -115 OFFCURVE",
"123 -102 OFFCURVE",
"123 -74 CURVE SMOOTH",
"123 -40 OFFCURVE",
"154 -20 OFFCURVE",
"210 0 CURVE",
"110 0 LINE",
"84 -14 OFFCURVE",
"53 -43 OFFCURVE",
"53 -91 CURVE SMOOTH",
"53 -134 OFFCURVE",
"87 -173 OFFCURVE",
"147 -173 CURVE SMOOTH",
"166 -173 OFFCURVE",
"187 -169 OFFCURVE",
"210 -161 CURVE"
);
}
);
width = 263;
}
);
},
{
color = (255,255,153,255);
glyphname = eogonek;
layers = (
{
components = (
{
alignment = -1;
name = e;
}
);
layerId = "04EC68FF-C98D-4D46-AE83-08D67BD50805";
paths = (
{
closed = 1;
nodes = (
"411 -107 LINE",
"398 -113 OFFCURVE",
"385 -115 OFFCURVE",
"373 -115 CURVE SMOOTH",
"345 -115 OFFCURVE",
"324 -102 OFFCURVE",
"324 -70 CURVE SMOOTH",
"324 -36 OFFCURVE",
"355 -7 OFFCURVE",
"408 20 CURVE",
"331 20 LINE",
"293 5 OFFCURVE",
"254 -32 OFFCURVE",
"254 -85 CURVE SMOOTH",
"254 -134 OFFCURVE",
"288 -173 OFFCURVE",
"348 -173 CURVE SMOOTH",
"367 -173 OFFCURVE",
"388 -169 OFFCURVE",
"411 -161 CURVE"
);
}
);
width = 539;
}
);
leftKerningGroup = c;
leftMetricsKey = e;
rightKerningGroup = e;
rightMetricsKey = e;
unicode = 0119;
},
{
glyphname = commaaccent;
layers = (
{
components = (
{
alignment = -1;
name = space;
}
);
layerId = "04EC68FF-C98D-4D46-AE83-08D67BD50805";
paths = (
{
closed = 1;
nodes = (
"94 -250 LINE",
"164 -250 OFFCURVE",
"214 -206 OFFCURVE",
"214 -143 CURVE SMOOTH",
"214 -111 OFFCURVE",
"198 -77 OFFCURVE",
"158 -56 CURVE",
"98 -82 LINE",
"135 -95 OFFCURVE",
"148 -121 OFFCURVE",
"148 -147 CURVE SMOOTH",
"148 -209 OFFCURVE",
"86 -216 OFFCURVE",
"54 -216 CURVE"
);
}
);
width = 280;
}
);
unicode = 0326;
},
{
color = (255,255,153,255);
glyphname = uogonek;
layers = (
{
components = (
{
alignment = -1;
name = u;
}
);
layerId = "04EC68FF-C98D-4D46-AE83-08D67BD50805";
paths = (
{
closed = 1;
nodes = (
"466 -107 LINE",
"453 -113 OFFCURVE",
"440 -115 OFFCURVE",
"428 -115 CURVE SMOOTH",
"400 -115 OFFCURVE",
"379 -102 OFFCURVE",
"379 -75 CURVE SMOOTH",
"379 -50 OFFCURVE",
"398 -25 OFFCURVE",
"466 0 CURVE",
"403 4 LINE",
"344 -6 OFFCURVE",
"309 -42 OFFCURVE",
"309 -91 CURVE SMOOTH",
"309 -134 OFFCURVE",
"343 -173 OFFCURVE",
"403 -173 CURVE SMOOTH",
"422 -173 OFFCURVE",
"443 -169 OFFCURVE",
"466 -161 CURVE"
);
}
);
width = 536;
}
);
leftKerningGroup = u;
leftMetricsKey = u;
rightKerningGroup = u1;
rightMetricsKey = u;
unicode = 0173;
},
{
color = (255,255,153,255);
glyphname = Hbar;
layers = (
{
components = (
{
alignment = -1;
name = H;
transform = "{1, 0, 0, 1, 10, 0}";
}
);
guideLines = (
{
position = "{0, 224}";
showMeasurement = 1;
}
);
layerId = "04EC68FF-C98D-4D46-AE83-08D67BD50805";
paths = (
{
closed = 1;
nodes = (
"10 504 LINE",
"700 504 LINE",
"700 583 LINE",
"10 583 LINE"
);
}
);
width = 710;
}
);
leftMetricsKey = T;
rightMetricsKey = T;
unicode = 0126;
},
{
color = (255,255,153,255);
glyphname = hbar;
layers = (
{
components = (
{
alignment = -1;
name = h;
transform = "{1, 0, 0, 1, 35, 0}";
}
);
layerId = "04EC68FF-C98D-4D46-AE83-08D67BD50805";
paths = (
{
closed = 1;
nodes = (
"20 548 LINE",
"349 548 LINE",
"349 615 LINE",
"20 615 LINE"
);
}
);
width = 581;
}
);
leftMetricsKey = t;
rightMetricsKey = h;
unicode = 0127;
},
{
color = (153,254,255,255);
glyphname = caron.salt;
layers = (
{
layerId = "04EC68FF-C98D-4D46-AE83-08D67BD50805";
paths = (
{
closed = 1;
nodes = (
"102 495 LINE",
"152 629 LINE",
"159 658 OFFCURVE",
"139 678 OFFCURVE",
"115 678 CURVE SMOOTH",
"92 678 OFFCURVE",
"81 660 OFFCURVE",
"79 649 CURVE",
"72 624 OFFCURVE",
"55 508 OFFCURVE",
"53 495 CURVE"
);
}
);
width = 206;
}
);
},
{
color = (255,255,153,255);
glyphname = dcroat;
layers = (
{
components = (
{
alignment = -1;
name = d;
}
);
layerId = "04EC68FF-C98D-4D46-AE83-08D67BD50805";
paths = (
{
closed = 1;
nodes = (
"249 548 LINE",
"578 548 LINE",
"578 615 LINE",
"249 615 LINE"
);
}
);
width = 603;
}
);
leftKerningGroup = c;
leftMetricsKey = d;
rightKerningGroup = f;
rightMetricsKey = f;
unicode = 0111;
},
{
glyphname = euro;
lastChange = "2021-04-13 15:42:06 +0000";
layers = (
{
layerId = "04EC68FF-C98D-4D46-AE83-08D67BD50805";
paths = (
{
closed = 1;
nodes = (
"15 240 LINE",
"106 240 LINE",
"134 88 OFFCURVE",
"231 -12 OFFCURVE",
"380 -12 CURVE SMOOTH",
"490 -12 OFFCURVE",
"581 40 OFFCURVE",
"626 139 CURVE",
"549 167 LINE",
"520 107 OFFCURVE",
"465 67 OFFCURVE",
"385 67 CURVE SMOOTH",
"293 67 OFFCURVE",
"223 130 OFFCURVE",
"197 240 CURVE",
"343 240 LINE",
"371 291 LINE",
"189 291 LINE",
"188 305 OFFCURVE",
"188 319 OFFCURVE",
"188 334 CURVE SMOOTH",
"188 349 OFFCURVE",
"188 364 OFFCURVE",
"189 377 CURVE",
"418 377 LINE",
"446 428 LINE",
"197 428 LINE",
"222 541 OFFCURVE",
"294 601 OFFCURVE",
"382 601 CURVE SMOOTH",
"463 601 OFFCURVE",
"517 560 OFFCURVE",
"545 500 CURVE",
"623 528 LINE",
"579 625 OFFCURVE",
"491 680 OFFCURVE",
"387 680 CURVE SMOOTH",
"239 680 OFFCURVE",
"135 582 OFFCURVE",
"106 428 CURVE",
"43 428 LINE",
"15 377 LINE",
"100 377 LINE",
"99 363 OFFCURVE",
"99 349 OFFCURVE",
"99 334 CURVE SMOOTH",
"99 320 OFFCURVE",
"99 305 OFFCURVE",
"100 291 CURVE",
"43 291 LINE"
);
}
